{
.appVersion = "3134";
.formatVersion = 3;
DisplayStrings = (
"0123456789

釧盛/uni9577.ss04 千大岡熊
旭仙/uni9AD8.ss04 静天廣分
札秋水名福四鹿
青新東金/uni7C73.ss04 門

/uni5B9A.ss04/uni54E1.ss04 寝台/uni5F62.ss04/uni5F0F.ss04 食堂
/uni4E00.ss04/uni4E8C.ss04/uni4E09.ss04/uni7B49.ss04/uni81EA.ss04/uni91CD.ss04/uni7A4D.ss04/uni7A7A.ss04 
夏冬荷行嚢換算/uni74F2.ss04 

イロパニポヘト
チリヌワカヨタ
レソツネナラム
ウオクヤマケフ
コテサキユミシ
ヒモセス

",
"①②○乘井仕仙令便保倉内冬分別制勤千半取台名和喫嚢四国堂場夏夜大天字客室宮寝小尾岡席年廣復所扇持掌排換援救教文料新日旭昭有本札東検槽標機水温湯煙熊燈片物特理盛省福秋穂算管籍終給置習職苗行表記試貨車道郵配金釧鉄鐵門青静風食験鷹鹿",
"座位皮重載空定員
公體尺積漆全等自
長噸高立盈荷瓲米
寢臺塗一二三形式",
EXIT3517290,
ABCDEFGHIJKLMNOPQRSTUVWXYZ,
"ㄅㄆㄇㄈㄉㄊㄋㄌ
ㄍㄎㄏㄐㄑㄒㄓㄔ
ㄕㄖㄗㄘㄙㄧㄨㄩ
ㄚㄛㄜㄝㄞㄟㄠㄡ
ㄢㄣㄤㄥㄦ      





"
);
axes = (
{
name = Weight;
tag = wght;
},
{
name = Width;
tag = wdth;
}
);
customParameters = (
{
name = panose;
value = (
2,
0,
6,
4,
0,
0,
0,
0,
0,
0
);
},
{
name = unicodeRanges;
value = (
0,
1,
2,
3,
4,
5,
7,
9,
29,
31,
32,
33,
35,
36,
37,
38,
39,
42,
43,
44,
45,
46,
47,
48,
50,
51,
54,
55,
59,
61,
62,
68
);
},
{
name = codePageRanges;
value = (
"1252",
"932",
"950"
);
},
{
name = glyphOrder;
value = (
.notdef,
g1,
space,
exclam,
quotedbl,
numbersign,
dollar,
percent,
ampersand,
quotesingle,
parenleft,
parenright,
asterisk,
plus,
comma,
hyphen,
period,
slash,
zero,
one,
two,
three,
four,
five,
six,
seven,
eight,
nine,
colon,
semicolon,
less,
equal,
greater,
question,
at,
A,
B,
C,
D,
E,
F,
G,
H,
I,
J,
K,
L,
M,
N,
O,
P,
Q,
R,
S,
T,
U,
V,
W,
X,
Y,
Z,
bracketleft,
backslash,
bracketright,
asciicircum,
underscore,
grave,
a,
b,
c,
d,
e,
f,
g,
h,
i,
j,
k,
l,
m,
n,
o,
p,
q,
r,
s,
t,
u,
v,
w,
x,
y,
z,
braceleft,
bar,
braceright,
asciitilde,
uni00A0,
exclamdown,
cent,
sterling,
currency,
yen,
brokenbar,
section,
dieresis,
copyright,
ordfeminine,
guillemotleft,
logicalnot,
uni00AD,
registered,
macron,
degree,
plusminus,
twosuperior,
threesuperior,
acute,
mu,
paragraph,
periodcentered,
cedilla,
onesuperior,
ordmasculine,
guillemotright,
onequarter,
onehalf,
threequarters,
questiondown,
Agrave,
Aacute,
Acircumflex,
Atilde,
Adieresis,
Aring,
AE,

glyphs = (
{
glyphname = .notdef;
lastChange = "2023-08-06 13:19:06 +0000";
layers = (
{
layerId = "0A3FE703-33D8-4A7C-9AA9-9C187B3DD6D1";
shapes = (
{
closed = 1;
nodes = (
(620,620,l),
(400,620,l),
(400,400,l),
(620,400,l)
);
}
);
vertWidth = 1024;
width = 1024;
}
);
note = ".notdef";
},
{
glyphname = parenleft;
lastChange = "2023-08-06 13:19:06 +0000";
layers = (
{
layerId = "0A3FE703-33D8-4A7C-9AA9-9C187B3DD6D1";
shapes = (
{
closed = 1;
nodes = (
(309,167,o),
(309,541,o),
(466,774,c),
(479,792,o),
(470,804,o),
(442,788,c),
(166,589,o),
(182,141,o),
(434,-88,c),
(450,-103,o),
(478,-85,o),
(466,-65,c)
);
}
);
width = 512;
}
);
note = parenleft;
unicode = 40;
},
{
glyphname = parenright;
lastChange = "2023-08-06 13:19:06 +0000";
layers = (
{
layerId = "0A3FE703-33D8-4A7C-9AA9-9C187B3DD6D1";
shapes = (
{
closed = 1;
nodes = (
(60,805,o),
(31,786,o),
(43,766,c),
(201,535,o),
(201,161,o),
(43,-72,c),
(38,-82,o),
(41,-102,o),
(66,-87,c),
(343,111,o),
(327,561,o),
(74,789,c)
);
}
);
width = 512;
}
);
note = parenright;
unicode = 41;
},
{
glyphname = hyphen;
lastChange = "2023-08-08 07:21:05 +0000";
layers = (
{
layerId = "0A3FE703-33D8-4A7C-9AA9-9C187B3DD6D1";
shapes = (
{
closed = 1;
nodes = (
(110,346,l),
(80,346,o),
(55,320,o),
(55,290,c),
(55,260,o),
(80,234,o),
(110,234,c),
(291,234,l),
(321,234,o),
(346,260,o),
(346,290,c),
(346,320,o),
(321,346,o),
(291,346,c)
);
}
);
width = 400;
}
);
note = hyphen;
unicode = 45;
},
{
glyphname = period;
lastChange = "2023-08-06 17:59:49 +0000";
layers = (
{
layerId = "0A3FE703-33D8-4A7C-9AA9-9C187B3DD6D1";
shapes = (
{
closed = 1;
nodes = (
(200,12,o),
(238,49,o),
(238,94,cs),
(238,139,o),
(200,177,o),
(155,177,cs),
(110,177,o),
(73,139,o),
(73,94,cs),
(73,49,o),
(110,12,o),
(155,12,cs)
);
}
);
width = 300;
}
);
note = period;
unicode = 46;
},
{
glyphname = zero;
lastChange = "2023-09-10 13:35:19 +0000";
layers = (
{
layerId = "0A3FE703-33D8-4A7C-9AA9-9C187B3DD6D1";
shapes = (
{
closed = 1;
nodes = (
(254,718,o),
(170,679,o),
(111,608,cs),
(51,537,o),
(24,445,o),
(24,356,cs),
(24,273,o),
(51,181,o),
(111,111,cs),
(170,41,o),
(254,-3,o),
(350,-3,cs),
(441,-3,o),
(525,41,o),
(584,114,cs),
(644,185,o),
(676,276,o),
(673,356,cs),
(670,456,o),
(644,548,o),
(585,615,cs),
(527,682,o),
(442,718,o),
(350,718,cs)
);
},
{
closed = 1;
nodes = (
(187,407,o),
(198,463,o),
(225,509,cs),
(253,556,o),
(295,587,o),
(350,587,cs),
(404,587,o),
(444,556,o),
(473,510,cs),
(501,463,o),
(510,411,o),
(509,356,cs),
(508,301,o),
(498,255,o),
(473,215,cs),
(447,176,o),
(406,139,o),
(350,139,cs),
(295,139,o),
(253,168,o),
(225,212,cs),
(198,256,o),
(187,310,o),
(187,356,cs)
);
}
);
width = 697;
}
);
note = zero;
unicode = 48;
},
{
glyphname = one;
lastChange = "2023-09-10 13:36:02 +0000";
layers = (
{
layerId = "0A3FE703-33D8-4A7C-9AA9-9C187B3DD6D1";
shapes = (
{
closed = 1;
nodes = (
(170,700,o),
(123,700,o),
(109,696,cs),
(96,692,o),
(90,681,o),
(90,664,cs),
(90,40,ls),
(90,25,o),
(96,15,o),
(109,9,cs),
(123,3,o),
(141,3,o),
(170,4,c),
(197,3,o),
(217,5,o),
(230,9,cs),
(242,13,o),
(251,25,o),
(251,40,c),
(251,664,ls),
(251,681,o),
(242,691,o),
(230,696,cs),
(217,701,o),
(170,700,o),
(170,700,c)
);
}
);
width = 341;
}
);
note = one;
unicode = 49;
},
{
glyphname = two;
lastChange = "2023-09-10 13:36:28 +0000";
layers = (
{
layerId = "0A3FE703-33D8-4A7C-9AA9-9C187B3DD6D1";
shapes = (
{
closed = 1;
nodes = (
(406,577,o),
(465,548,o),
(465,491,cs),
(465,442,o),
(417,415,o),
(373,400,cs),
(337,388,o),
(320,383,o),
(299,377,cs),
(294,375,o),
(288,373,o),
(282,371,cs),
(251,363,o),
(230,357,o),
(193,341,cs),
(156,325,o),
(104,289,o),
(79,247,cs),
(47,191,o),
(45,124,o),
(45,61,cs),
(45,36,o),
(52,6,o),
(81,6,cs),
(614,6,ls),
(642,6,o),
(638,14,o),
(638,31,cs),
(638,124,ls),
(638,135,o),
(638,141,o),
(614,141,cs),
(218,141,ls),
(200,141,o),
(200,141,o),
(200,161,cs),
(200,215,o),
(269,231,o),
(331,250,cs),
(351,255,o),
(367,259,o),
(380,263,cs),
(407,270,o),
(424,274,o),
(444,282,cs),
(473,293,o),
(499,304,o),
(536,332,cs),
(573,361,o),
(610,428,o),
(610,491,cs),
(610,558,o),
(581,614,o),
(534,653,cs),
(488,691,o),
(431,712,o),
(389,713,c),
(299,721,o),
(216,697,o),
(158,653,cs),
(90,602,o),
(49,513,o),
(65,445,cs),
(68,435,o),
(76,427,o),
(94,427,cs),
(138,427,o),
(145,427,o),
(190,429,cs),
(199,429,o),
(210,429,o),
(214,443,cs),
(216,451,o),
(216,475,o),
(217,483,cs),
(218,497,o),
(224,521,o),
(247,544,cs),
(270,564,o),
(310,580,o),
(355,579,cs)
);
}
);
width = 683;
}
);
note = two;
unicode = 50;
},
{
glyphname = three;
lastChange = "2023-09-10 13:29:59 +0000";
layers = (
{
layerId = "0A3FE703-33D8-4A7C-9AA9-9C187B3DD6D1";
shapes = (
{
closed = 1;
nodes = (
(246,725,o),
(111,648,o),
(85,532,cs),
(84,528,o),
(84,522,o),
(84,519,cs),
(84,514,o),
(84,510,o),
(87,507,c),
(91,499,o),
(97,495,o),
(107,493,cs),
(119,490,o),
(131,488,o),
(141,486,cs),
(168,479,o),
(187,475,o),
(198,475,cs),
(214,474,o),
(223,483,o),
(228,496,cs),
(249,545,o),
(313,589,o),
(382,587,cs),
(409,587,o),
(431,582,o),
(453,571,cs),
(493,550,o),
(492,513,o),
(469,488,cs),
(446,462,o),
(428,458,o),
(409,455,c),
(401,452,o),
(396,451,o),
(391,450,cs),
(390,450,o),
(389,450,o),
(388,450,c),
(376,446,o),
(367,440,o),
(368,421,cs),
(368,416,o),
(368,407,o),
(367,393,cs),
(366,379,o),
(367,368,o),
(368,363,cs),
(371,350,o),
(379,344,o),
(397,340,c),
(420,344,o),
(449,336,o),
(475,318,cs),
(501,302,o),
(517,275,o),
(521,243,c),
(522,207,o),
(504,179,o),
(474,161,cs),
(446,144,o),
(410,135,o),
(378,135,cs),
(310,139,o),
(269,153,o),
(243,175,cs),
(216,197,o),
(202,220,o),
(190,240,cs),
(185,249,o),
(181,257,o),
(178,261,cs),
(177,262,o),
(176,263,o),
(176,264,c),
(174,267,o),
(172,270,o),
(169,272,cs),
(161,278,o),
(148,279,o),
(133,273,cs),
(130,272,o),
(127,271,o),
(124,269,c),
(115,266,o),
(105,262,o),
(95,259,cs),
(77,254,o),
(66,250,o),
(60,246,c),
(45,239,o),
(37,227,o),
(44,208,c),
(77,70,o),
(222,-15,o),
(366,-8,cs),
(446,-4,o),
(520,8,o),
(581,48,cs),
(641,87,o),
(688,156,o),
(688,230,c),
(682,301,o),
(653,366,o),
(604,410,c),
(627,444,o),
(643,486,o),
(643,525,cs),
(645,590,o),
(606,649,o),
(558,678,cs),
(510,710,o),
(463,716,o),
(400,719,cs)
);
}
);
width = 730;
}
);
note = three;
unicode = 51;
},
{
glyphname = four;
lastChange = "2023-09-10 13:30:40 +0000";
layers = (
{
layerId = "0A3FE703-33D8-4A7C-9AA9-9C187B3DD6D1";
shapes = (
{
closed = 1;
nodes = (
(421,501,o),
(429,504,o),
(433,501,cs),
(437,498,o),
(440,493,o),
(440,486,cs),
(440,256,l),
(244,256,ls),
(235,256,o),
(231,259,o),
(229,264,cs),
(227,268,o),
(229,274,o),
(237,279,c),
(417,498,l)
);
},
{
closed = 1;
nodes = (
(600,3,o),
(608,12,o),
(608,30,cs),
(608,122,l),
(656,122,l),
(671,121,o),
(679,127,o),
(680,139,c),
(680,232,l),
(681,249,o),
(672,256,o),
(656,256,cs),
(608,256,l),
(606,692,l),
(606,709,o),
(597,717,o),
(579,717,cs),
(452,717,ls),
(431,717,o),
(417,712,o),
(409,699,c),
(64,264,l),
(53,254,o),
(49,241,o),
(50,223,c),
(50,149,ls),
(50,131,o),
(58,122,o),
(73,122,cs),
(440,122,l),
(440,30,ls),
(440,12,o),
(451,3,o),
(471,3,cs),
(584,3,ls)
);
}
);
width = 730;
}
);
note = four;
unicode = 52;
},
{
glyphname = five;
lastChange = "2023-09-10 13:30:20 +0000";
layers = (
{
layerId = "0A3FE703-33D8-4A7C-9AA9-9C187B3DD6D1";
shapes = (
{
closed = 1;
nodes = (
(263,569,o),
(268,574,o),
(278,574,cs),
(598,574,ls),
(612,574,o),
(618,582,o),
(618,597,cs),
(618,672,ls),
(618,686,o),
(612,692,o),
(598,692,cs),
(147,692,ls),
(126,692,o),
(116,684,o),
(116,667,cs),
(116,362,l),
(116,357,o),
(118,350,o),
(126,347,cs),
(134,344,o),
(140,340,o),
(149,342,c),
(192,357,o),
(218,367,o),
(254,375,cs),
(291,383,o),
(326,389,o),
(366,384,c),
(459,379,o),
(515,327,o),
(520,253,c),
(516,170,o),
(446,116,o),
(363,116,cs),
(281,116,o),
(202,173,o),
(173,239,c),
(165,252,o),
(152,256,o),
(136,254,c),
(63,225,l),
(53,218,o),
(48,207,o),
(51,194,c),
(80,59,o),
(215,-16,o),
(361,-16,cs),
(544,-16,o),
(686,80,o),
(689,254,c),
(681,392,o),
(618,451,o),
(530,480,cs),
(441,509,o),
(358,512,o),
(263,488,c),
(263,561,ls)
);
}
);
width = 739;
}
);
note = five;
unicode = 53;
},
{
glyphname = six;
lastChange = "2023-09-10 13:31:08 +0000";
layers = (
{
layerId = "0A3FE703-33D8-4A7C-9AA9-9C187B3DD6D1";
shapes = (
{
closed = 1;
nodes = (
(598,654,o),
(491,705,o),
(400,708,cs),
(298,711,o),
(208,671,o),
(144,601,cs),
(79,532,o),
(44,439,o),
(45,342,cs),
(46,251,o),
(76,157,o),
(140,92,cs),
(202,27,o),
(297,-15,o),
(394,-15,c),
(473,-6,o),
(541,10,o),
(595,48,cs),
(651,86,o),
(687,157,o),
(690,226,c),
(691,297,o),
(659,357,o),
(605,402,cs),
(554,445,o),
(486,468,o),
(424,467,cs),
(341,466,o),
(272,442,o),
(215,388,c),
(210,436,o),
(231,480,o),
(265,515,cs),
(299,548,o),
(346,565,o),
(391,565,c),
(439,568,o),
(476,550,o),
(511,524,c),
(518,516,o),
(530,514,o),
(540,517,c),
(625,539,l),
(631,541,o),
(635,543,o),
(639,545,c),
(645,550,o),
(648,555,o),
(648,561,cs),
(648,564,o),
(647,567,o),
(646,570,c)
);
},
{
closed = 1;
nodes = (
(257,286,o),
(319,326,o),
(384,322,c),
(453,322,o),
(524,288,o),
(530,223,c),
(529,162,o),
(456,123,o),
(384,121,c),
(313,124,o),
(246,165,o),
(225,225,c)
);
}
);
width = 733;
}
);
note = six;
unicode = 54;
},
{
glyphname = seven;
lastChange = "2023-09-10 13:32:41 +0000";
layers = (
{
layerId = "0A3FE703-33D8-4A7C-9AA9-9C187B3DD6D1";
shapes = (
{
closed = 1;
nodes = (
(226,12,o),
(225,5,o),
(228,0,c),
(232,-6,o),
(238,-9,o),
(247,-9,c),
(338,-9,ls),
(352,-9,o),
(366,-4,o),
(371,5,c),
(625,555,ls),
(630,567,o),
(633,581,o),
(633,597,cs),
(633,679,ls),
(633,695,o),
(624,703,o),
(605,703,c),
(78,703,l),
(59,703,o),
(50,695,o),
(50,680,cs),
(50,602,ls),
(50,583,o),
(59,574,o),
(78,574,cs),
(439,574,l),
(448,575,o),
(457,573,o),
(461,569,cs),
(465,565,o),
(468,558,o),
(467,550,c),
(230,18,l)
);
}
);
width = 683;
}
);
note = seven;
unicode = 55;
},
{
glyphname = eight;
lastChange = "2023-09-10 13:39:22 +0000";
layers = (
{
layerId = "0A3FE703-33D8-4A7C-9AA9-9C187B3DD6D1";
shapes = (
{
closed = 1;
nodes = (
(296,716,o),
(239,710,o),
(188,679,cs),
(136,648,o),
(99,590,o),
(102,525,c),
(99,478,o),
(119,435,o),
(159,393,c),
(86,363,o),
(42,295,o),
(44,214,c),
(42,141,o),
(90,78,o),
(155,40,cs),
(220,4,o),
(295,-12,o),
(367,-10,c),
(449,-12,o),
(520,4,o),
(585,40,cs),
(650,78,o),
(695,139,o),
(693,214,c),
(695,292,o),
(641,363,o),
(572,393,c),
(610,433,o),
(630,477,o),
(630,523,c),
(633,591,o),
(595,648,o),
(545,679,cs),
(497,710,o),
(441,716,o),
(366,718,c)
);
},
{
closed = 1;
nodes = (
(247,549,o),
(270,571,o),
(308,582,cs),
(345,594,o),
(403,594,o),
(430,582,cs),
(457,571,o),
(484,557,o),
(487,521,c),
(486,504,o),
(479,491,o),
(468,480,cs),
(444,459,o),
(421,450,o),
(366,449,c),
(341,450,o),
(322,452,o),
(306,456,cs),
(273,464,o),
(248,484,o),
(246,516,c)
);
},
{
closed = 1;
nodes = (
(208,248,o),
(215,268,o),
(231,282,cs),
(261,311,o),
(295,327,o),
(367,327,cs),
(403,327,o),
(431,323,o),
(451,317,cs),
(490,305,o),
(528,279,o),
(530,225,c),
(530,200,o),
(522,180,o),
(505,166,cs),
(472,137,o),
(436,120,o),
(367,120,c),
(332,121,o),
(305,125,o),
(284,133,cs),
(245,150,o),
(209,177,o),
(207,222,c)
);
}
);
width = 737;
}
);
note = eight;
unicode = 56;
},
{
glyphname = nine;
lastChange = "2023-09-10 13:39:38 +0000";
layers = (
{
layerId = "0A3FE703-33D8-4A7C-9AA9-9C187B3DD6D1";
shapes = (
{
closed = 1;
nodes = (
(284,573,o),
(321,582,o),
(345,582,c),
(404,586,o),
(478,546,o),
(507,493,c),
(500,469,o),
(478,436,o),
(456,421,c),
(390,360,o),
(284,363,o),
(226,436,cs),
(211,456,o),
(208,497,o),
(220,523,c),
(226,536,o),
(247,557,o),
(265,563,c)
);
},
{
closed = 1;
nodes = (
(686,354,o),
(680,429,o),
(671,477,cs),
(648,611,o),
(510,726,o),
(364,726,cs),
(317,726,o),
(240,705,o),
(195,685,cs),
(119,654,o),
(54,573,o),
(52,493,c),
(46,446,o),
(68,377,o),
(101,341,c),
(201,222,o),
(378,208,o),
(497,308,c),
(503,311,o),
(514,319,o),
(516,327,c),
(516,317,l),
(519,221,o),
(440,139,o),
(342,139,c),
(303,134,o),
(256,156,o),
(228,180,cs),
(220,187,o),
(205,195,o),
(191,191,cs),
(128,175,l),
(105,167,o),
(92,147,o),
(95,124,c),
(105,109,l),
(154,45,o),
(256,-5,o),
(337,-2,c),
(507,-5,o),
(658,128,o),
(678,297,c)
);
}
);
width = 709;
}
);
note = nine;
unicode = 57;
},
{
glyphname = A;
lastChange = "2023-09-10 13:24:00 +0000";
layers = (
{
layerId = "0A3FE703-33D8-4A7C-9AA9-9C187B3DD6D1";
shapes = (
{
closed = 1;
nodes = (
(761,-5,o),
(732,12,o),
(725,30,c),
(653,147,l),
(468,147,l),
(284,147,l),
(217,29,l),
(205,12,o),
(173,-1,o),
(157,0,cs),
(84,0,ls),
(72,0,o),
(58,2,o),
(53,7,c),
(23,24,o),
(18,60,o),
(29,84,c),
(364,660,ls),
(372,672,o),
(402,697,o),
(419,697,cs),
(524,697,ls),
(548,697,o),
(569,671,o),
(575,659,cs),
(906,85,l),
(913,78,o),
(913,66,o),
(913,54,cs),
(913,25,o),
(888,0,o),
(853,0,cs),
(785,0,l)
);
},
{
closed = 1;
nodes = (
(468,473,l),
(388,334,l),
(548,334,l)
);
}
);
width = 936;
}
);
note = A;
unicode = 65;
},
{
glyphname = B;
lastChange = "2023-09-10 13:24:00 +0000";
layers = (
{
layerId = "0A3FE703-33D8-4A7C-9AA9-9C187B3DD6D1";
shapes = (
{
closed = 1;
nodes = (
(252,193,l),
(252,267,l),
(662,267,ls),
(687,267,o),
(700,248,o),
(700,230,cs),
(700,207,o),
(686,193,o),
(662,193,cs)
);
},
{
closed = 1;
nodes = (
(252,447,l),
(252,527,l),
(662,527,ls),
(687,527,o),
(700,508,o),
(700,485,cs),
(700,467,o),
(687,447,o),
(662,447,cs)
);
},
{
closed = 1;
nodes = (
(897,427,o),
(892,545,o),
(836,618,cs),
(802,669,o),
(724,707,o),
(662,707,cs),
(114,707,ls),
(87,707,o),
(66,687,o),
(66,660,cs),
(66,54,ls),
(66,27,o),
(87,7,o),
(114,7,cs),
(674,7,ls),
(703,7,o),
(746,17,o),
(768,35,c),
(875,91,o),
(915,218,o),
(857,318,cs),
(834,354,l)
);
}
);
width = 936;
}
);
note = B;
unicode = 66;
},
{
glyphname = C;
lastChange = "2023-09-10 13:24:00 +0000";
layers = (
{
layerId = "0A3FE703-33D8-4A7C-9AA9-9C187B3DD6D1";
shapes = (
{
closed = 1;
nodes = (
(639,229,o),
(587,194,o),
(546,195,cs),
(394,195,l),
(318,200,o),
(249,269,o),
(243,350,cs),
(238,436,o),
(307,517,o),
(394,522,c),
(546,522,ls),
(592,522,o),
(650,488,o),
(674,447,c),
(680,431,o),
(700,421,o),
(710,426,c),
(807,426,ls),
(833,426,o),
(854,447,o),
(854,469,cs),
(854,475,o),
(854,485,o),
(849,490,c),
(811,608,o),
(669,704,o),
(546,704,cs),
(394,704,ls),
(202,704,o),
(57,536,o),
(68,339,cs),
(74,164,o),
(219,19,o),
(394,7,c),
(546,7,ls),
(664,7,o),
(799,104,o),
(843,215,c),
(854,237,o),
(844,268,o),
(822,279,c),
(801,279,l),
(704,279,l),
(689,285,o),
(673,275,o),
(661,263,c)
);
}
);
width = 936;
}
);
note = C;
unicode = 67;
},
{
glyphname = D;
lastChange = "2023-09-10 13:24:00 +0000";
layers = (
{
layerId = "0A3FE703-33D8-4A7C-9AA9-9C187B3DD6D1";
shapes = (
{
closed = 1;
nodes = (
(119,697,ls),
(98,697,o),
(82,682,o),
(82,660,cs),
(82,349,l),
(82,37,ls),
(82,21,o),
(98,6,o),
(119,6,cs),
(543,6,ls),
(734,6,o),
(886,157,o),
(886,349,cs),
(886,540,o),
(734,697,o),
(543,697,cs)
);
},
{
closed = 1;
nodes = (
(631,510,o),
(699,434,o),
(699,349,cs),
(699,263,o),
(630,193,o),
(543,193,cs),
(274,193,l),
(274,349,l),
(274,510,l),
(543,510,ls)
);
}
);
width = 936;
}
);
note = D;
unicode = 68;
},
{
glyphname = E;
lastChange = "2023-09-10 14:16:01 +0000";
layers = (
{
layerId = "0A3FE703-33D8-4A7C-9AA9-9C187B3DD6D1";
shapes = (
{
closed = 1;
nodes = (
(858,666,ls),
(858,682,o),
(847,697,o),
(826,697,cs),
(92,697,ls),
(71,697,o),
(60,682,o),
(60,666,cs),
(60,37,ls),
(60,21,o),
(71,6,o),
(92,6,cs),
(826,6,ls),
(847,6,o),
(858,21,o),
(858,37,cs),
(858,156,ls),
(858,172,o),
(847,188,o),
(826,188,cs),
(252,188,l),
(252,267,l),
(708,267,ls),
(729,267,o),
(744,277,o),
(744,298,cs),
(744,405,ls),
(744,426,o),
(729,436,o),
(708,436,cs),
(252,436,l),
(252,510,l),
(826,510,ls),
(847,510,o),
(858,525,o),
(858,547,cs)
);
}
);
width = 908;
}
);
note = E;
unicode = 69;
},
{
glyphname = F;
lastChange = "2023-09-10 14:17:00 +0000";
layers = (
{
layerId = "0A3FE703-33D8-4A7C-9AA9-9C187B3DD6D1";
shapes = (
{
closed = 1;
nodes = (
(780,343,ls),
(780,371,o),
(765,386,o),
(737,386,cs),
(276,386,l),
(276,515,l),
(833,515,ls),
(861,515,o),
(876,531,o),
(876,552,cs),
(876,654,ls),
(876,676,o),
(860,697,o),
(833,697,cs),
(127,697,ls),
(100,697,o),
(84,676,o),
(84,654,cs),
(84,42,ls),
(84,20,o),
(100,-1,o),
(127,-1,cs),
(234,-1,ls),
(256,-1,o),
(276,20,o),
(276,42,cs),
(276,194,l),
(737,194,ls),
(764,194,o),
(780,214,o),
(780,235,cs)
);
}
);
width = 926;
}
);
note = F;
unicode = 70;
},
{
glyphname = G;
lastChange = "2023-09-10 13:24:00 +0000";
layers = (
{
layerId = "0A3FE703-33D8-4A7C-9AA9-9C187B3DD6D1";
shapes = (
{
closed = 1;
nodes = (
(590,387,ls),
(568,388,o),
(547,367,o),
(547,345,cs),
(547,294,ls),
(547,268,o),
(568,252,o),
(590,252,cs),
(670,252,l),
(648,225,o),
(604,211,o),
(573,211,cs),
(375,211,ls),
(294,211,o),
(230,282,o),
(230,356,cs),
(230,436,o),
(294,507,o),
(375,507,cs),
(573,507,ls),
(608,507,o),
(654,490,o),
(677,460,c),
(683,455,o),
(698,450,o),
(703,450,cs),
(850,450,ls),
(872,450,o),
(893,471,o),
(893,492,cs),
(893,494,o),
(892,497,o),
(890,500,cs),
(889,502,o),
(887,506,o),
(887,508,c),
(836,626,o),
(697,709,o),
(573,705,c),
(375,705,ls),
(184,705,o),
(27,553,o),
(27,356,cs),
(27,165,o),
(184,8,o),
(375,8,cs),
(573,8,ls),
(759,8,o),
(916,154,o),
(921,339,cs),
(921,367,o),
(905,382,o),
(884,388,c),
(880,388,o),
(879,388,o),
(879,388,c)
);
}
);
width = 936;
},
{
associatedMasterId = "0A3FE703-33D8-4A7C-9AA9-9C187B3DD6D1";
layerId = "F1683C16-BC6D-42B0-B2B1-45E7414627F9";
name = "23年8月7日 01:55";
shapes = (
{
closed = 1;
nodes = (
(591,390,ls),
(568,391,o),
(545,368,o),
(545,345,cs),
(545,293,ls),
(545,265,o),
(568,248,o),
(591,248,cs),
(665,248,l),
(643,225,o),
(603,213,o),
(574,213,cs),
(374,213,ls),
(294,213,o),
(231,282,o),
(231,356,c),
(231,436,o),
(294,505,o),
(374,505,cs),
(574,505,ls),
(608,505,o),
(654,488,o),
(677,459,c),
(683,453,o),
(700,448,o),
(705,448,cs),
(854,448,ls),
(877,448,o),
(900,471,o),
(900,493,c),
(900,499,o),
(894,505,o),
(894,511,c),
(843,631,o),
(700,716,o),
(574,711,c),
(374,711,ls),
(180,711,o),
(20,556,o),
(20,356,c),
(20,162,o),
(180,2,o),
(374,2,cs),
(574,2,ls),
(763,2,o),
(923,151,o),
(928,339,cs),
(928,368,o),
(911,385,o),
(888,391,c),
(883,391,o),
(883,391,o),
(883,391,cs)
);
}
);
width = 936;
}
);
note = G;
unicode = 71;
},
{
glyphname = H;
lastChange = "2023-09-10 13:24:00 +0000";
layers = (
{
layerId = "0A3FE703-33D8-4A7C-9AA9-9C187B3DD6D1";
shapes = (
{
closed = 1;
nodes = (
(887,686,o),
(866,702,o),
(844,702,cs),
(743,702,ls),
(716,702,o),
(701,687,o),
(701,665,cs),
(701,458,l),
(477,458,l),
(247,458,l),
(247,665,ls),
(247,687,o),
(232,702,o),
(206,702,cs),
(104,702,ls),
(82,702,o),
(61,686,o),
(61,665,cs),
(61,48,ls),
(61,26,o),
(82,5,o),
(104,5,cs),
(206,5,ls),
(231,5,o),
(247,26,o),
(247,48,cs),
(247,261,l),
(477,261,l),
(701,261,l),
(701,48,ls),
(701,26,o),
(717,5,o),
(743,5,cs),
(844,5,ls),
(866,5,o),
(887,26,o),
(887,48,cs),
(887,665,ls)
);
}
);
width = 948;
}
);
note = H;
unicode = 72;
},
{
glyphname = I;
lastChange = "2023-09-10 13:24:00 +0000";
layers = (
{
layerId = "0A3FE703-33D8-4A7C-9AA9-9C187B3DD6D1";
shapes = (
{
closed = 1;
nodes = (
(384,695,o),
(371,706,o),
(361,706,cs),
(45,706,ls),
(33,706,o),
(25,696,o),
(25,683,cs),
(25,591,ls),
(25,579,o),
(33,571,o),
(44,571,cs),
(96,571,ls),
(104,571,o),
(112,563,o),
(112,555,cs),
(112,179,ls),
(112,165,o),
(99,152,o),
(85,152,cs),
(55,153,ls),
(38,153,o),
(25,140,o),
(25,122,cs),
(25,41,ls),
(25,22,o),
(39,8,o),
(57,8,cs),
(361,8,ls),
(374,8,o),
(384,17,o),
(384,29,cs),
(384,133,ls),
(384,144,o),
(376,152,o),
(365,153,c),
(321,152,ls),
(313,152,o),
(305,160,o),
(305,168,cs),
(305,555,ls),
(305,563,o),
(313,571,o),
(321,571,cs),
(365,571,ls),
(376,571,o),
(384,579,o),
(384,591,cs),
(384,683,ls)
);
}
);
width = 407;
}
);
note = I;
unicode = 73;
},
{
glyphname = J;
lastChange = "2023-09-10 13:24:00 +0000";
layers = (
{
layerId = "0A3FE703-33D8-4A7C-9AA9-9C187B3DD6D1";
shapes = (
{
closed = 1;
nodes = (
(85,196,o),
(96,165,o),
(117,124,cs),
(139,82,o),
(182,60,o),
(202,49,cs),
(257,19,o),
(327,5,o),
(428,5,cs),
(524,5,o),
(650,17,o),
(702,61,cs),
(740,93,o),
(777,145,o),
(777,227,cs),
(777,673,ls),
(777,687,o),
(764,694,o),
(730,694,cs),
(633,694,ls),
(600,694,o),
(586,687,o),
(586,673,cs),
(586,256,ls),
(586,224,o),
(568,200,o),
(557,190,cs),
(533,168,o),
(483,163,o),
(430,163,cs),
(373,163,o),
(325,168,o),
(303,198,cs),
(287,218,o),
(283,242,o),
(281,253,cs),
(281,256,o),
(281,258,o),
(281,259,c),
(275,273,o),
(270,278,o),
(258,278,cs),
(110,278,ls),
(95,278,o),
(85,271,o),
(85,257,cs)
);
}
);
width = 936;
}
);
note = J;
unicode = 74;
},
{
glyphname = K;
lastChange = "2023-09-10 13:24:00 +0000";
layers = (
{
layerId = "0A3FE703-33D8-4A7C-9AA9-9C187B3DD6D1";
shapes = (
{
closed = 1;
nodes = (
(29,58,ls),
(29,30,o),
(50,10,o),
(83,10,cs),
(179,10,ls),
(206,10,o),
(227,30,o),
(227,58,cs),
(227,269,l),
(373,356,l),
(639,26,l),
(651,15,o),
(666,10,o),
(677,10,cs),
(829,10,ls),
(850,10,o),
(861,25,o),
(861,41,cs),
(861,47,o),
(861,57,o),
(856,62,c),
(536,455,l),
(839,632,ls),
(855,642,o),
(855,662,o),
(849,679,c),
(844,684,o),
(828,695,o),
(824,695,cs),
(609,695,ls),
(604,695,o),
(589,689,o),
(583,684,c),
(227,472,l),
(227,641,ls),
(227,668,o),
(206,695,o),
(179,695,cs),
(83,695,ls),
(50,695,o),
(29,668,o),
(29,641,cs)
);
}
);
width = 936;
}
);
note = K;
unicode = 75;
},
{
glyphname = L;
lastChange = "2023-09-10 13:24:00 +0000";
layers = (
{
layerId = "0A3FE703-33D8-4A7C-9AA9-9C187B3DD6D1";
shapes = (
{
closed = 1;
nodes = (
(871,158,ls),
(871,180,o),
(855,201,o),
(829,201,cs),
(303,201,l),
(303,650,ls),
(303,678,o),
(282,699,o),
(260,699,cs),
(139,699,ls),
(112,699,o),
(92,678,o),
(92,650,cs),
(92,56,ls),
(92,35,o),
(112,14,o),
(139,14,cs),
(829,14,ls),
(855,14,o),
(871,35,o),
(871,56,cs)
);
}
);
width = 936;
}
);
note = L;
unicode = 76;
},
{
glyphname = M;
lastChange = "2023-09-10 13:24:00 +0000";
layers = (
{
layerId = "0A3FE703-33D8-4A7C-9AA9-9C187B3DD6D1";
shapes = (
{
closed = 1;
nodes = (
(882,654,ls),
(882,682,o),
(861,703,o),
(834,703,cs),
(721,703,ls),
(705,703,o),
(689,692,o),
(684,681,c),
(472,343,l),
(261,681,l),
(249,692,o),
(233,703,o),
(223,703,cs),
(105,703,ls),
(78,703,o),
(62,682,o),
(62,654,cs),
(62,49,ls),
(62,21,o),
(77,6,o),
(105,6,cs),
(201,6,ls),
(222,6,o),
(242,21,o),
(242,49,cs),
(242,331,l),
(248,333,l),
(356,169,l),
(361,159,o),
(376,154,o),
(393,154,cs),
(472,154,l),
(545,154,ls),
(562,154,o),
(578,159,o),
(582,169,c),
(690,333,l),
(696,331,l),
(696,49,ls),
(696,22,o),
(717,6,o),
(738,6,cs),
(834,6,ls),
(861,6,o),
(882,22,o),
(882,49,cs)
);
}
);
width = 936;
}
);
note = M;
unicode = 77;
},
{
glyphname = N;
lastChange = "2023-09-10 13:24:00 +0000";
layers = (
{
layerId = "0A3FE703-33D8-4A7C-9AA9-9C187B3DD6D1";
shapes = (
{
closed = 1;
nodes = (
(80,38,ls),
(80,22,o),
(77,6,o),
(105,6,cs),
(246,6,ls),
(265,6,o),
(274,15,o),
(274,30,cs),
(273,421,l),
(630,43,ls),
(646,26,o),
(659,9,o),
(703,8,cs),
(813,6,ls),
(851,6,o),
(850,19,o),
(850,43,cs),
(850,668,ls),
(850,684,o),
(852,706,o),
(813,706,cs),
(694,706,ls),
(649,706,o),
(654,684,o),
(654,668,cs),
(651,310,l),
(313,678,l),
(293,694,o),
(281,692,o),
(236,692,cs),
(124,692,ls),
(90,692,o),
(80,679,o),
(80,656,cs)
);
}
);
width = 936;
}
);
note = N;
unicode = 78;
},
{
glyphname = O;
lastChange = "2023-09-10 13:24:00 +0000";
layers = (
{
layerId = "0A3FE703-33D8-4A7C-9AA9-9C187B3DD6D1";
shapes = (
{
closed = 1;
nodes = (
(659,6,o),
(788,96,o),
(832,208,c),
(917,383,o),
(839,590,o),
(659,668,c),
(630,685,o),
(570,703,o),
(535,703,cs),
(389,703,l),
(192,691,o),
(46,528,o),
(58,337,cs),
(63,157,o),
(209,12,o),
(389,6,cs),
(535,6,ls)
);
},
{
closed = 1;
nodes = (
(389,188,l),
(308,193,o),
(238,262,o),
(232,343,cs),
(227,434,o),
(296,510,o),
(389,521,c),
(535,521,l),
(559,515,o),
(599,505,o),
(622,487,cs),
(692,435,o),
(709,330,o),
(656,256,cs),
(634,222,o),
(579,192,o),
(535,188,c)
);
}
);
width = 936;
}
);
note = O;
unicode = 79;
},
{
glyphname = P;
lastChange = "2023-09-10 13:24:00 +0000";
layers = (
{
layerId = "0A3FE703-33D8-4A7C-9AA9-9C187B3DD6D1";
shapes = (
{
closed = 1;
nodes = (
(76,64,ls),
(76,42,o),
(91,27,o),
(113,27,cs),
(221,27,ls),
(242,27,o),
(257,42,o),
(257,64,cs),
(257,248,l),
(644,248,ls),
(774,248,o),
(874,348,o),
(879,477,cs),
(879,607,o),
(774,707,o),
(644,707,cs),
(113,707,ls),
(91,707,o),
(76,691,o),
(76,670,cs)
);
},
{
closed = 1;
nodes = (
(257,440,l),
(257,519,l),
(644,519,ls),
(668,519,o),
(687,501,o),
(687,477,cs),
(687,459,o),
(668,440,o),
(644,440,cs)
);
}
);
width = 936;
}
);
note = P;
unicode = 80;
},
{
glyphname = Q;
lastChange = "2023-09-10 13:24:00 +0000";
layers = (
{
layerId = "0A3FE703-33D8-4A7C-9AA9-9C187B3DD6D1";
shapes = (
{
closed = 1;
nodes = (
(574,6,o),
(618,20,o),
(649,33,c),
(667,13,l),
(676,6,o),
(680,4,o),
(750,6,cs),
(787,7,o),
(829,6,o),
(847,6,cs),
(852,6,o),
(855,6,o),
(856,6,cs),
(862,6,o),
(861,12,o),
(852,23,cs),
(772,117,l),
(794,138,o),
(821,182,o),
(832,208,c),
(917,383,o),
(839,590,o),
(659,668,c),
(630,685,o),
(570,703,o),
(535,703,cs),
(389,703,l),
(192,691,o),
(46,528,o),
(58,337,cs),
(63,157,o),
(209,12,o),
(389,6,cs),
(535,6,ls)
);
},
{
closed = 1;
nodes = (
(389,188,l),
(308,193,o),
(238,262,o),
(232,343,cs),
(227,434,o),
(296,510,o),
(389,521,c),
(535,521,l),
(559,515,o),
(599,504,o),
(622,487,cs),
(687,439,o),
(712,338,o),
(676,264,cs),
(672,256,o),
(666,254,o),
(661,261,cs),
(642,284,ls),
(634,293,o),
(611,293,o),
(595,293,cs),
(580,293,o),
(544,293,o),
(517,292,cs),
(502,292,o),
(488,292,o),
(485,292,cs),
(476,292,o),
(465,284,o),
(477,271,cs),
(480,268,o),
(512,230,o),
(543,195,c),
(541,190,l),
(538,190,o),
(535,190,o),
(532,189,c),
(525,189,o),
(517,188,o),
(510,188,cs)
);
}
);
width = 936;
}
);
note = Q;
unicode = 81;
},
{
glyphname = R;
lastChange = "2023-09-10 13:24:00 +0000";
layers = (
{
layerId = "0A3FE703-33D8-4A7C-9AA9-9C187B3DD6D1";
shapes = (
{
closed = 1;
nodes = (
(255,442,l),
(255,510,l),
(660,510,ls),
(685,510,o),
(697,497,o),
(697,479,cs),
(697,461,o),
(685,442,o),
(660,442,cs)
);
},
{
closed = 1;
nodes = (
(846,6,ls),
(868,6,o),
(883,21,o),
(883,43,cs),
(883,54,o),
(878,64,o),
(873,70,cs),
(694,266,l),
(815,286,o),
(895,399,o),
(872,512,cs),
(855,613,o),
(766,697,o),
(660,691,c),
(100,691,ls),
(78,691,o),
(63,676,o),
(63,654,cs),
(63,43,ls),
(63,21,o),
(78,6,o),
(100,6,cs),
(219,6,ls),
(240,6,o),
(255,21,o),
(255,43,cs),
(255,256,l),
(446,256,l),
(656,17,l),
(667,12,o),
(678,6,o),
(688,6,cs)
);
}
);
width = 936;
}
);
note = R;
unicode = 82;
},
{
glyphname = S;
lastChange = "2023-09-10 13:24:00 +0000";
layers = (
{
layerId = "0A3FE703-33D8-4A7C-9AA9-9C187B3DD6D1";
shapes = (
{
closed = 1;
nodes = (
(87,85,o),
(181,6,o),
(282,6,cs),
(660,6,ls),
(778,6,o),
(878,106,o),
(878,230,cs),
(878,348,o),
(778,447,o),
(660,447,cs),
(468,447,l),
(282,447,ls),
(262,447,o),
(250,461,o),
(250,479,cs),
(250,491,o),
(262,510,o),
(282,510,cs),
(660,510,ls),
(667,510,o),
(680,503,o),
(685,498,c),
(691,487,o),
(701,482,o),
(712,482,cs),
(841,482,ls),
(857,482,o),
(873,497,o),
(873,512,cs),
(873,524,l),
(855,618,o),
(761,697,o),
(660,697,cs),
(282,697,ls),
(158,697,o),
(64,597,o),
(64,479,cs),
(64,355,o),
(158,261,o),
(282,261,cs),
(468,261,l),
(660,261,ls),
(674,261,o),
(692,243,o),
(692,230,cs),
(692,210,o),
(673,199,o),
(660,199,cs),
(282,199,ls),
(275,199,o),
(262,205,o),
(257,210,cs),
(251,216,o),
(241,227,o),
(230,227,cs),
(101,227,ls),
(80,227,o),
(69,211,o),
(69,191,c),
(69,191,o),
(69,185,o),
(69,185,c)
);
}
);
width = 936;
},
{
associatedMasterId = "0A3FE703-33D8-4A7C-9AA9-9C187B3DD6D1";
layerId = "413D3DC3-C6F5-4642-887B-D883BDC6EE64";
name = "23年8月6日 22:01";
shapes = (
{
closed = 1;
nodes = (
(80,80,o),
(177,0,o),
(280,0,cs),
(662,0,ls),
(782,0,o),
(885,103,o),
(885,229,c),
(885,349,o),
(782,451,o),
(662,451,cs),
(468,451,l),
(280,451,ls),
(262,451,o),
(251,463,o),
(251,480,c),
(251,491,o),
(262,509,o),
(280,509,cs),
(662,509,ls),
(668,509,o),
(680,503,o),
(685,497,c),
(691,486,o),
(702,480,o),
(714,480,cs),
(845,480,ls),
(862,480,o),
(880,497,o),
(880,514,c),
(880,526,l),
(862,623,o),
(765,703,o),
(662,703,cs),
(280,703,ls),
(154,703,o),
(57,600,o),
(57,480,c),
(57,354,o),
(154,257,o),
(280,257,cs),
(468,257,l),
(662,257,ls),
(674,257,o),
(691,240,o),
(691,229,c),
(691,211,o),
(674,200,o),
(662,200,cs),
(280,200,ls),
(274,200,o),
(262,206,o),
(257,211,cs),
(251,217,o),
(240,229,o),
(228,229,cs),
(97,229,ls),
(74,229,o),
(62,211,o),
(62,189,c),
(62,189,o),
(62,183,o),
(62,183,c)
);
}
);
visible = 1;
width = 936;
}
);
note = S;
unicode = 83;
},
{
glyphname = T;
lastChange = "2023-09-10 13:24:00 +0000";
layers = (
{
layerId = "0A3FE703-33D8-4A7C-9AA9-9C187B3DD6D1";
shapes = (
{
closed = 1;
nodes = (
(880,660,ls),
(880,682,o),
(865,697,o),
(843,697,cs),
(87,697,ls),
(67,697,o),
(56,682,o),
(56,660,cs),
(56,564,ls),
(56,542,o),
(67,527,o),
(87,527,cs),
(382,527,l),
(382,43,ls),
(382,21,o),
(397,6,o),
(418,6,cs),
(530,6,ls),
(552,6,o),
(567,21,o),
(567,43,cs),
(567,527,l),
(843,527,ls),
(865,527,o),
(880,542,o),
(880,564,cs)
);
}
);
width = 936;
}
);
note = T;
unicode = 84;
},
{
glyphname = U;
lastChange = "2023-09-10 13:24:00 +0000";
layers = (
{
layerId = "0A3FE703-33D8-4A7C-9AA9-9C187B3DD6D1";
shapes = (
{
closed = 1;
nodes = (
(85,325,ls),
(85,225,o),
(117,148,o),
(188,92,cs),
(255,38,o),
(348,9,o),
(471,9,cs),
(587,9,o),
(679,37,o),
(747,92,cs),
(819,148,o),
(852,225,o),
(852,325,cs),
(852,667,ls),
(852,685,o),
(833,694,o),
(796,694,cs),
(716,694,ls),
(676,694,o),
(657,685,o),
(657,667,cs),
(657,403,ls),
(657,330,o),
(653,274,o),
(614,236,cs),
(574,199,o),
(538,180,o),
(471,180,cs),
(401,180,o),
(359,199,o),
(319,236,cs),
(277,274,o),
(277,330,o),
(277,403,cs),
(277,667,ls),
(277,685,o),
(260,694,o),
(220,694,cs),
(139,694,ls),
(102,694,o),
(85,685,o),
(85,667,cs)
);
}
);
width = 936;
}
);
note = U;
unicode = 85;
},
{
glyphname = V;
lastChange = "2023-09-10 13:24:00 +0000";
layers = (
{
layerId = "0A3FE703-33D8-4A7C-9AA9-9C187B3DD6D1";
shapes = (
{
closed = 1;
nodes = (
(408,1,ls),
(390,1,o),
(372,7,o),
(365,25,c),
(48,636,l),
(48,639,o),
(47,641,o),
(45,644,c),
(44,647,o),
(42,650,o),
(42,654,cs),
(42,678,o),
(67,702,o),
(91,702,cs),
(221,702,ls),
(239,702,o),
(257,690,o),
(264,678,cs),
(470,271,l),
(682,678,ls),
(689,690,o),
(707,702,o),
(719,702,cs),
(849,702,ls),
(853,702,o),
(857,701,o),
(861,700,cs),
(866,698,o),
(870,697,o),
(873,697,c),
(898,685,o),
(903,654,o),
(892,635,cs),
(575,25,l),
(568,7,o),
(550,1,o),
(538,1,cs),
(470,1,l)
);
}
);
width = 936;
}
);
note = V;
unicode = 86;
},
{
glyphname = W;
lastChange = "2023-09-10 13:24:00 +0000";
layers = (
{
layerId = "0A3FE703-33D8-4A7C-9AA9-9C187B3DD6D1";
shapes = (
{
closed = 1;
nodes = (
(578,-5,o),
(553,12,o),
(548,36,c),
(463,330,l),
(469,330,l),
(390,36,ls),
(384,12,o),
(359,-5,o),
(336,0,c),
(239,0,l),
(217,-5,o),
(192,12,o),
(186,36,cs),
(171,88,o),
(90,379,o),
(17,643,c),
(17,672,o),
(40,697,o),
(70,697,cs),
(155,697,ls),
(179,697,o),
(202,679,o),
(209,661,c),
(294,361,l),
(288,361,l),
(367,661,l),
(374,679,o),
(397,697,o),
(420,697,cs),
(466,697,l),
(517,697,ls),
(540,697,o),
(559,679,o),
(565,661,cs),
(650,361,l),
(644,361,l),
(729,661,l),
(736,679,o),
(759,697,o),
(783,697,cs),
(868,697,l),
(868,697,o),
(879,697,o),
(879,697,c),
(880,697,l),
(910,685,o),
(921,661,o),
(916,630,c),
(746,36,ls),
(740,12,o),
(721,-5,o),
(698,0,c),
(602,0,l)
);
}
);
width = 936;
}
);
note = W;
unicode = 87;
},
{
glyphname = X;
lastChange = "2023-09-10 14:15:50 +0000";
layers = (
{
layerId = "0A3FE703-33D8-4A7C-9AA9-9C187B3DD6D1";
shapes = (
{
closed = 1;
nodes = (
(312,346,l),
(64,36,ls),
(53,22,o),
(65,6,o),
(83,6,cs),
(246,6,ls),
(267,6,o),
(269,13,o),
(281,30,cs),
(422,216,l),
(563,32,ls),
(573,18,o),
(583,6,o),
(603,6,cs),
(759,6,ls),
(778,6,o),
(788,26,o),
(774,44,cs),
(537,346,l),
(781,657,ls),
(791,670,o),
(774,694,o),
(759,694,cs),
(596,694,ls),
(585,694,o),
(580,689,o),
(572,681,cs),
(570,678,o),
(567,675,o),
(563,672,c),
(422,491,l),
(285,672,ls),
(273,688,o),
(272,694,o),
(250,694,cs),
(96,694,ls),
(72,694,o),
(61,673,o),
(72,659,cs)
);
}
);
width = 844;
}
);
note = X;
unicode = 88;
},
{
glyphname = Y;
lastChange = "2023-09-10 13:24:00 +0000";
layers = (
{
layerId = "0A3FE703-33D8-4A7C-9AA9-9C187B3DD6D1";
shapes = (
{
closed = 1;
nodes = (
(555,271,l),
(918,616,ls),
(934,632,o),
(934,659,o),
(918,675,c),
(913,686,o),
(897,691,o),
(887,691,cs),
(750,691,ls),
(740,691,o),
(724,685,o),
(718,681,c),
(468,435,l),
(212,681,l),
(206,685,o),
(190,691,o),
(185,691,cs),
(43,691,ls),
(17,691,o),
(2,670,o),
(2,648,cs),
(2,638,o),
(7,628,o),
(12,616,c),
(375,271,l),
(375,49,ls),
(375,22,o),
(396,6,o),
(416,6,cs),
(468,6,l),
(514,6,ls),
(534,6,o),
(555,22,o),
(555,49,cs)
);
}
);
width = 936;
}
);
note = Y;
unicode = 89;
},
{
glyphname = Z;
lastChange = "2023-09-10 13:24:00 +0000";
layers = (
{
layerId = "0A3FE703-33D8-4A7C-9AA9-9C187B3DD6D1";
shapes = (
{
closed = 1;
nodes = (
(804,8,ls),
(839,8,o),
(853,19,o),
(853,33,cs),
(853,150,ls),
(853,163,o),
(837,174,o),
(802,174,cs),
(470,174,ls),
(468,174,o),
(451,185,o),
(469,201,cs),
(777,512,ls),
(795,530,o),
(830,555,o),
(830,602,cs),
(830,684,o),
(826,691,o),
(768,691,cs),
(170,692,ls),
(134,692,o),
(121,685,o),
(121,672,cs),
(121,559,ls),
(121,545,o),
(134,538,o),
(170,538,cs),
(501,537,ls),
(529,537,o),
(535,526,o),
(519,508,cs),
(144,133,ls),
(114,101,o),
(112,93,o),
(112,52,cs),
(112,19,o),
(119,8,o),
(179,8,cs)
);
}
);
width = 936;
}
);
note = Z;
unicode = 90;
},
{
glyphname = zeroinferior;
lastChange = "2023-09-10 13:38:17 +0000";
layers = (
{
layerId = "0A3FE703-33D8-4A7C-9AA9-9C187B3DD6D1";
shapes = (
{
closed = 1;
nodes = (
(181,201,o),
(128,266,o),
(128,347,c),
(128,426,o),
(181,492,o),
(244,492,c),
(310,492,o),
(362,426,o),
(362,347,c),
(362,266,o),
(310,201,o),
(244,201,c)
);
},
{
closed = 1;
nodes = (
(127,588,o),
(32,480,o),
(32,347,c),
(32,212,o),
(127,105,o),
(244,105,c),
(362,105,o),
(458,212,o),
(458,347,c),
(458,480,o),
(362,588,o),
(244,588,c)
);
}
);
width = 490;
},
{
associatedMasterId = "0A3FE703-33D8-4A7C-9AA9-9C187B3DD6D1";
layerId = "62FD5654-CE77-4A43-A419-3B33EB45F063";
name = "23年8月6日 15:51";
shapes = (
{
ref = zero;
scale = (0.7,0.7);
}
);
visible = 1;
width = 488;
}
);
unicode = 8320;
},
{
glyphname = oneinferior;
lastChange = "2023-08-06 14:21:57 +0000";
layers = (
{
layerId = "0A3FE703-33D8-4A7C-9AA9-9C187B3DD6D1";
shapes = (
{
closed = 1;
nodes = (
(219,583,l),
(204,583,o),
(192,570,o),
(192,555,c),
(192,136,l),
(192,121,o),
(204,108,o),
(219,108,c),
(271,108,l),
(287,108,o),
(298,121,o),
(298,136,c),
(298,555,l),
(298,570,o),
(287,583,o),
(271,583,c)
);
}
);
width = 490;
},
{
associatedMasterId = "0A3FE703-33D8-4A7C-9AA9-9C187B3DD6D1";
layerId = "86A137A0-5DDB-4DE8-9613-3C2414D7D761";
name = "23年8月6日 15:51";
shapes = (
{
ref = one;
scale = (0.7083,0.7083);
}
);
visible = 1;
width = 242;
}
);
unicode = 8321;
},
{
glyphname = twoinferior;
lastChange = "2023-08-06 14:22:03 +0000";
layers = (
{
layerId = "0A3FE703-33D8-4A7C-9AA9-9C187B3DD6D1";
shapes = (
{
closed = 1;
nodes = (
(196,203,l),
(187,203,o),
(178,209,o),
(175,218,c),
(170,230,o),
(176,243,o),
(187,248,c),
(311,300,l),
(386,331,o),
(421,418,o),
(390,493,c),
(368,547,o),
(315,583,o),
(256,583,c),
(235,584,o),
(213,583,o),
(192,579,c),
(121,566,o),
(66,511,o),
(55,440,c),
(50,415,o),
(67,391,o),
(93,386,c),
(116,383,o),
(140,399,o),
(145,423,c),
(153,455,o),
(178,481,o),
(211,486,c),
(225,489,o),
(239,490,o),
(255,489,c),
(275,488,o),
(293,476,o),
(301,457,c),
(314,429,o),
(301,398,o),
(274,385,c),
(127,320,l),
(77,298,o),
(46,248,o),
(46,195,c),
(46,141,l),
(46,124,o),
(59,110,o),
(76,110,c),
(398,110,l),
(424,110,o),
(445,131,o),
(445,157,c),
(445,183,o),
(424,203,o),
(398,203,c)
);
}
);
width = 490;
},
{
associatedMasterId = "0A3FE703-33D8-4A7C-9AA9-9C187B3DD6D1";
layerId = "A87B32D4-374B-4347-9445-CEF9C6E6417F";
name = "23年8月6日 15:51";
shapes = (
{
ref = two;
scale = (0.7,0.7);
}
);
visible = 1;
width = 478;
}
);
unicode = 8322;
},
{
glyphname = threeinferior;
lastChange = "2023-08-08 08:29:31 +0000";
layers = (
{
layerId = "0A3FE703-33D8-4A7C-9AA9-9C187B3DD6D1";
shapes = (
{
closed = 1;
nodes = (
(442,330,o),
(429,354,o),
(410,374,c),
(445,436,o),
(425,514,o),
(363,549,c),
(262,609,o),
(131,582,o),
(59,486,c),
(51,474,o),
(53,456,o),
(65,445,c),
(98,418,l),
(112,409,o),
(131,411,o),
(141,423,c),
(142,426,o),
(143,427,o),
(144,430,c),
(144,430,o),
(144,430,o),
(145,431,c),
(175,490,o),
(246,515,o),
(307,485,c),
(320,479,o),
(329,465,o),
(329,451,c),
(329,430,o),
(311,412,o),
(291,412,c),
(262,412,l),
(240,412,o),
(222,394,o),
(222,372,c),
(222,349,o),
(240,331,o),
(262,331,c),
(280,331,l),
(311,331,o),
(338,310,o),
(347,279,c),
(355,242,o),
(333,205,o),
(296,196,c),
(228,180,o),
(157,210,o),
(120,270,c),
(110,288,o),
(85,293,o),
(68,283,c),
(65,283,o),
(63,280,o),
(61,279,c),
(48,266,l),
(35,254,o),
(32,233,o),
(41,217,c),
(82,156,o),
(147,115,o),
(220,106,c),
(258,101,o),
(298,103,o),
(334,112,c),
(419,133,o),
(470,220,o),
(449,304,c)
);
}
);
width = 490;
},
{
associatedMasterId = "0A3FE703-33D8-4A7C-9AA9-9C187B3DD6D1";
layerId = "3604D33B-5519-4755-8AB9-2593FD26E6C9";
name = "23年8月6日 15:51";
shapes = (
{
ref = three;
scale = (0.7,0.7);
}
);
visible = 1;
width = 511;
}
);
unicode = 8323;
},
{
glyphname = fourinferior;
lastChange = "2023-08-06 14:22:15 +0000";
layers = (
{
layerId = "0A3FE703-33D8-4A7C-9AA9-9C187B3DD6D1";
shapes = (
{
closed = 1;
nodes = (
(304,281,l),
(192,281,l),
(189,281,o),
(187,281,o),
(186,284,c),
(180,288,o),
(179,296,o),
(185,301,c),
(285,417,l),
(286,420,o),
(289,422,o),
(293,422,c),
(298,422,o),
(304,416,o),
(304,410,c)
);
},
{
closed = 1;
nodes = (
(399,281,l),
(399,555,l),
(399,571,o),
(387,584,o),
(371,584,c),
(334,584,l),
(326,584,o),
(318,580,o),
(312,574,c),
(44,264,l),
(28,244,o),
(29,215,o),
(49,199,c),
(56,190,o),
(68,187,o),
(78,187,c),
(304,187,l),
(304,146,l),
(304,125,o),
(320,109,o),
(340,109,c),
(363,109,l),
(382,109,o),
(399,125,o),
(399,146,c),
(399,187,l),
(409,187,l),
(429,187,o),
(446,203,o),
(446,224,c),
(446,244,l),
(446,264,o),
(429,281,o),
(409,281,c)
);
}
);
width = 490;
},
{
associatedMasterId = "0A3FE703-33D8-4A7C-9AA9-9C187B3DD6D1";
layerId = "57490889-2B8D-407D-A060-60E54F992C57";
name = "23年8月6日 15:51";
shapes = (
{
ref = four;
scale = (0.7,0.7);
}
);
visible = 1;
width = 511;
}
);
unicode = 8324;
},
{
glyphname = fiveinferior;
lastChange = "2023-08-08 08:28:46 +0000";
layers = (
{
layerId = "0A3FE703-33D8-4A7C-9AA9-9C187B3DD6D1";
shapes = (
{
closed = 1;
nodes = (
(421,403,o),
(347,455,o),
(265,450,c),
(236,448,o),
(209,445,o),
(180,440,c),
(179,440,o),
(179,440,o),
(178,440,c),
(171,440,o),
(165,447,o),
(165,454,c),
(165,474,l),
(165,487,o),
(175,498,o),
(189,498,c),
(373,498,l),
(395,498,o),
(413,516,o),
(413,538,c),
(413,559,o),
(395,577,o),
(373,577,c),
(109,577,l),
(91,577,o),
(75,562,o),
(75,543,c),
(75,378,l),
(75,365,o),
(86,355,o),
(98,355,c),
(100,355,o),
(103,355,o),
(105,356,c),
(153,370,o),
(206,376,o),
(256,371,c),
(295,368,o),
(329,338,o),
(336,299,c),
(345,252,o),
(313,206,o),
(266,197,c),
(201,185,o),
(138,216,o),
(106,272,c),
(97,285,o),
(81,290,o),
(68,281,c),
(67,280,o),
(64,280,o),
(63,279,c),
(44,263,l),
(29,251,o),
(26,230,o),
(36,215,c),
(100,122,o),
(215,80,o),
(325,112,c),
(416,138,o),
(469,233,o),
(443,324,c)
);
}
);
width = 490;
},
{
associatedMasterId = "0A3FE703-33D8-4A7C-9AA9-9C187B3DD6D1";
layerId = "2E833DC2-ABD2-46A8-B162-CB683EEC92FC";
name = "23年8月6日 15:51";
shapes = (
{
ref = five;
scale = (0.7,0.7);
}
);
visible = 1;
width = 517;
}
);
unicode = 8325;
},
{
glyphname = sixinferior;
lastChange = "2023-08-06 14:22:41 +0000";
layers = (
{
layerId = "0A3FE703-33D8-4A7C-9AA9-9C187B3DD6D1";
shapes = (
{
closed = 1;
nodes = (
(229,203,o),
(179,223,o),
(147,265,c),
(147,265,o),
(147,265,o),
(147,265,c),
(179,306,o),
(229,327,o),
(279,323,cs),
(308,321,o),
(332,298,o),
(332,271,cs),
(332,238,o),
(311,209,o),
(279,207,cs)
);
},
{
closed = 1;
nodes = (
(416,370,o),
(364,411,o),
(303,411,cs),
(242,414,o),
(179,399,o),
(127,364,c),
(127,397,o),
(139,425,o),
(157,446,cs),
(206,501,o),
(287,507,o),
(341,460,cs),
(351,452,o),
(366,452,o),
(375,463,c),
(402,490,ls),
(410,498,o),
(410,516,o),
(399,524,cs),
(369,548,o),
(338,563,o),
(303,575,c),
(186,603,o),
(68,537,o),
(37,422,c),
(34,417,o),
(34,407,o),
(30,402,c),
(22,340,o),
(34,279,o),
(64,226,cs),
(118,128,o),
(238,84,o),
(346,122,cs),
(426,148,o),
(466,236,o),
(436,312,cs)
);
}
);
width = 490;
},
{
associatedMasterId = "0A3FE703-33D8-4A7C-9AA9-9C187B3DD6D1";
layerId = "C6214F60-094C-4F7E-AD7C-15DF553DFCFA";
name = "23年8月6日 15:51";
shapes = (
{
ref = six;
scale = (0.7,0.7);
}
);
visible = 1;
width = 513;
}
);
unicode = 8326;
},
{
glyphname = seveninferior;
lastChange = "2023-08-08 08:30:21 +0000";
layers = (
{
layerId = "0A3FE703-33D8-4A7C-9AA9-9C187B3DD6D1";
shapes = (
{
closed = 1;
nodes = (
(91,573,ls),
(67,573,o),
(50,556,o),
(50,532,cs),
(50,509,o),
(67,492,o),
(91,492,cs),
(308,492,ls),
(319,492,o),
(328,476,o),
(323,465,cs),
(172,155,ls),
(166,143,o),
(172,125,o),
(186,120,cs),
(230,108,ls),
(244,105,o),
(256,111,o),
(262,123,cs),
(436,483,ls),
(439,489,o),
(439,492,o),
(439,498,cs),
(439,541,ls),
(439,559,o),
(424,573,o),
(404,573,cs)
);
}
);
width = 490;
},
{
associatedMasterId = "0A3FE703-33D8-4A7C-9AA9-9C187B3DD6D1";
layerId = "C924B382-DD8F-4313-89CA-E4E3AC510691";
name = "23年8月6日 15:51";
shapes = (
{
ref = seven;
scale = (0.7,0.7);
}
);
visible = 1;
width = 478;
}
);
unicode = 8327;
},
{
glyphname = eightinferior;
lastChange = "2023-08-08 08:30:38 +0000";
layers = (
{
layerId = "0A3FE703-33D8-4A7C-9AA9-9C187B3DD6D1";
shapes = (
{
closed = 1;
nodes = (
(187,208,o),
(140,235,o),
(140,270,c),
(140,303,o),
(187,328,o),
(245,328,c),
(304,328,o),
(351,303,o),
(351,270,c),
(351,235,o),
(304,208,o),
(245,208,c)
);
},
{
closed = 1;
nodes = (
(295,499,o),
(336,475,o),
(336,448,c),
(336,420,o),
(295,399,o),
(245,399,c),
(195,399,o),
(155,420,o),
(155,448,c),
(155,475,o),
(195,499,o),
(245,499,c)
);
},
{
closed = 1;
nodes = (
(421,404,o),
(427,440,o),
(421,475,c),
(400,548,o),
(307,595,o),
(211,581,c),
(140,568,o),
(84,527,o),
(70,475,c),
(64,440,o),
(70,404,o),
(91,372,c),
(15,308,o),
(23,205,o),
(111,147,c),
(195,91,o),
(327,98,o),
(400,164,c),
(468,224,o),
(468,314,o),
(400,372,c)
);
}
);
width = 490;
},
{
associatedMasterId = "0A3FE703-33D8-4A7C-9AA9-9C187B3DD6D1";
layerId = "FA19A7BB-7AC4-4BE0-A458-5382511561B9";
name = "23年8月6日 15:51";
shapes = (
{
ref = eight;
scale = (0.7,0.7);
}
);
visible = 1;
width = 516;
}
);
unicode = 8328;
},
{
glyphname = nineinferior;
lastChange = "2023-08-06 14:22:56 +0000";
layers = (
{
layerId = "0A3FE703-33D8-4A7C-9AA9-9C187B3DD6D1";
shapes = (
{
closed = 1;
nodes = (
(172,373,o),
(157,391,o),
(151,408,c),
(141,438,o),
(159,471,o),
(190,480,c),
(246,494,o),
(305,474,o),
(338,424,c),
(305,376,o),
(246,352,o),
(190,370,c)
);
},
{
closed = 1;
nodes = (
(446,504,o),
(372,571,o),
(270,584,cs),
(243,586,o),
(215,587,o),
(184,584,cs),
(98,573,o),
(29,501,o),
(38,414,c),
(41,337,o),
(103,275,o),
(180,268,c),
(239,263,o),
(302,281,o),
(350,317,c),
(350,290,o),
(341,266,o),
(323,246,c),
(282,191,o),
(201,181,o),
(148,225,c),
(137,234,o),
(121,234,o),
(110,225,c),
(85,204,l),
(74,191,o),
(71,175,o),
(82,163,cs),
(107,137,o),
(292,49,o),
(406,191,cs),
(427,218,o),
(442,252,o),
(451,286,cs),
(460,329,o),
(461,367,o),
(457,408,cs)
);
}
);
width = 490;
},
{
associatedMasterId = "0A3FE703-33D8-4A7C-9AA9-9C187B3DD6D1";
layerId = "AA57A289-6B53-4921-8E54-8AF20B33B959";
name = "23年8月6日 15:51";
shapes = (
{
ref = nine;
scale = (0.7,0.7);
}
);
visible = 1;
width = 496;
}
);
unicode = 8329;
},
{
glyphname = uni2160;
lastChange = "2023-08-06 13:19:05 +0000";
layers = (
{
layerId = "0A3FE703-33D8-4A7C-9AA9-9C187B3DD6D1";
shapes = (
{
closed = 1;
nodes = (
(631,820,o),
(614,834,o),
(601,834,cs),
(423,834,ls),
(408,834,o),
(396,821,o),
(396,805,cs),
(396,16,ls),
(396,1,o),
(408,-11,o),
(423,-11,cs),
(601,-11,ls),
(617,-11,o),
(631,1,o),
(631,16,cs),
(631,805,ls)
);
}
);
vertWidth = 1024;
width = 1024;
}
);
note = uni2160;
unicode = 8544;
},
{
glyphname = uni2161;
lastChange = "2023-08-06 13:19:05 +0000";
layers = (
{
layerId = "0A3FE703-33D8-4A7C-9AA9-9C187B3DD6D1";
shapes = (
{
closed = 1;
nodes = (
(247,833,o),
(241,832,o),
(235,826,cs),
(229,820,o),
(227,814,o),
(227,805,cs),
(227,16,l),
(230,-1,o),
(239,-12,o),
(258,-11,c),
(396,-11,ls),
(413,-11,o),
(428,-1,o),
(428,16,cs),
(428,805,l),
(427,820,o),
(413,832,o),
(396,832,cs),
(258,832,l)
);
},
{
closed = 1;
nodes = (
(612,832,o),
(603,829,o),
(599,825,cs),
(594,820,o),
(590,813,o),
(591,805,c),
(591,16,l),
(590,9,o),
(594,3,o),
(599,-1,c),
(603,-6,o),
(612,-10,o),
(624,-11,c),
(760,-11,l),
(768,-12,o),
(774,-9,o),
(780,-4,c),
(786,0,o),
(788,8,o),
(791,16,c),
(791,805,l),
(788,820,o),
(775,829,o),
(760,832,c),
(624,832,ls)
);
}
);
vertWidth = 1024;
width = 1024;
}
);
note = uni2161;
unicode = 8545;
},
{
glyphname = uni2162;
lastChange = "2023-08-06 13:19:05 +0000";
layers = (
{
layerId = "0A3FE703-33D8-4A7C-9AA9-9C187B3DD6D1";
shapes = (
{
closed = 1;
nodes = (
(67,833,o),
(59,832,o),
(53,826,cs),
(47,820,o),
(46,814,o),
(46,805,cs),
(46,16,l),
(47,-1,o),
(57,-12,o),
(76,-11,c),
(215,-11,ls),
(231,-11,o),
(247,-1,o),
(247,16,cs),
(247,805,l),
(244,820,o),
(231,832,o),
(215,832,cs),
(76,832,l)
);
},
{
closed = 1;
nodes = (
(430,832,o),
(422,829,o),
(417,825,c),
(412,820,o),
(408,813,o),
(409,805,c),
(409,16,l),
(408,9,o),
(412,3,o),
(417,-1,c),
(422,-6,o),
(430,-10,o),
(442,-11,c),
(578,-11,l),
(586,-12,o),
(592,-9,o),
(598,-4,c),
(604,0,o),
(608,8,o),
(609,16,c),
(609,805,l),
(608,820,o),
(594,829,o),
(578,832,c),
(442,832,ls)
);
},
{
closed = 1;
nodes = (
(790,832,o),
(785,829,o),
(779,825,c),
(773,820,o),
(770,813,o),
(771,805,c),
(771,16,l),
(770,1,o),
(783,-10,o),
(798,-11,c),
(943,-11,ls),
(956,-11,o),
(967,1,o),
(970,16,c),
(970,805,ls),
(970,820,o),
(958,829,o),
(943,832,c),
(798,832,ls)
);
}
);
vertWidth = 1024;
width = 1024;
}
);
note = uni2162;
unicode = 8546;
},
{
glyphname = uni2460;
lastChange = "2023-08-06 13:19:05 +0000";
layers = (
{
layerId = "0A3FE703-33D8-4A7C-9AA9-9C187B3DD6D1";
shapes = (
{
closed = 1;
nodes = (
(271,839,o),
(75,654,o),
(75,419,cs),
(75,180,o),
(272,-17,o),
(513,-17,cs),
(745,-17,o),
(944,174,o),
(944,405,cs),
(944,642,o),
(745,839,o),
(508,839,cs)
);
},
{
closed = 1;
nodes = (
(142,614,o),
(308,776,o),
(503,776,cs),
(707,776,o),
(878,612,o),
(878,401,cs),
(878,208,o),
(709,48,o),
(508,48,cs),
(307,48,o),
(142,220,o),
(142,419,cs)
);
},
{
closed = 1;
nodes = (
(460,669,o),
(455,667,o),
(451,664,c),
(447,660,o),
(446,656,o),
(446,648,cs),
(446,181,l),
(445,178,o),
(447,172,o),
(452,167,c),
(456,162,o),
(462,158,o),
(469,157,c),
(549,157,l),
(564,162,o),
(570,169,o),
(569,181,c),
(569,648,l),
(568,660,o),
(561,668,o),
(549,668,cs),
(468,668,l)
);
}
);
vertWidth = 1024;
width = 1024;
},
{
associatedMasterId = "0A3FE703-33D8-4A7C-9AA9-9C187B3DD6D1";
layerId = "4763A388-B71C-48A9-B2D2-17552D73F846";
name = "23年8月3日 23:04";
shapes = (
{
closed = 1;
nodes = (
(308,713,o),
(144,559,o),
(144,363,cs),
(144,164,o),
(309,0,o),
(509,0,cs),
(703,0,o),
(869,159,o),
(869,352,cs),
(869,549,o),
(703,713,o),
(505,713,cs)
);
},
{
closed = 1;
nodes = (
(200,526,o),
(339,661,o),
(501,661,cs),
(671,661,o),
(814,524,o),
(814,348,cs),
(814,188,o),
(673,54,o),
(505,54,cs),
(338,54,o),
(200,198,o),
(200,363,cs)
);
},
{
closed = 1;
nodes = (
(465,572,o),
(461,570,o),
(458,568,c),
(454,564,o),
(454,561,o),
(454,554,cs),
(454,165,l),
(453,163,o),
(454,158,o),
(459,153,c),
(462,149,o),
(467,146,o),
(473,145,c),
(539,145,l),
(552,149,o),
(557,155,o),
(556,165,c),
(556,554,l),
(555,564,o),
(549,571,o),
(539,571,cs),
(472,571,l)
);
}
);
vertWidth = 1024;
width = 1024;
}
);
note = uni2460;
unicode = 9312;
},
{
glyphname = uni2461;
lastChange = "2023-08-06 13:19:05 +0000";
layers = (
{
layerId = "0A3FE703-33D8-4A7C-9AA9-9C187B3DD6D1";
shapes = (
{
closed = 1;
nodes = (
(265,839,o),
(75,654,o),
(75,401,cs),
(75,172,o),
(267,-17,o),
(506,-17,cs),
(746,-17,o),
(942,167,o),
(942,407,cs),
(942,647,o),
(749,839,o),
(509,839,cs)
);
},
{
closed = 1;
nodes = (
(139,616,o),
(309,775,o),
(512,775,cs),
(716,775,o),
(881,611,o),
(881,404,cs),
(881,204,o),
(701,42,o),
(504,42,cs),
(312,42,o),
(139,201,o),
(139,408,cs)
);
},
{
closed = 1;
nodes = (
(746,258,o),
(740,263,o),
(729,264,c),
(386,263,l),
(383,265,o),
(382,268,o),
(382,271,cs),
(382,274,o),
(384,277,o),
(387,282,c),
(390,286,o),
(395,291,o),
(402,297,c),
(416,308,o),
(437,323,o),
(466,335,cs),
(495,346,o),
(520,351,o),
(549,355,cs),
(563,357,o),
(575,359,o),
(586,362,cs),
(607,367,o),
(626,372,o),
(655,391,cs),
(684,410,o),
(714,460,o),
(714,513,cs),
(714,608,o),
(618,685,o),
(511,684,cs),
(395,685,o),
(277,597,o),
(277,486,c),
(274,479,o),
(275,474,o),
(279,468,c),
(282,462,o),
(287,459,o),
(294,456,c),
(348,456,l),
(361,457,o),
(368,465,o),
(368,480,cs),
(369,549,o),
(434,590,o),
(513,590,cs),
(569,590,o),
(628,562,o),
(628,514,cs),
(628,485,o),
(612,467,o),
(589,457,cs),
(566,447,o),
(522,438,o),
(488,431,cs),
(454,424,o),
(400,402,o),
(361,378,cs),
(322,354,o),
(296,328,o),
(283,305,cs),
(270,282,o),
(268,263,o),
(268,243,cs),
(268,232,o),
(268,226,o),
(268,223,cs),
(268,220,o),
(268,214,o),
(268,205,cs),
(268,188,o),
(271,172,o),
(286,168,c),
(730,168,l),
(741,169,o),
(747,176,o),
(746,188,c),
(746,249,ls)
);
}
);
vertWidth = 1024;
width = 1024;
},
{
associatedMasterId = "0A3FE703-33D8-4A7C-9AA9-9C187B3DD6D1";
layerId = "D763B04A-DA0E-4DC7-AE18-191F816A03D9";
name = "23年8月3日 23:04";
shapes = (
{
closed = 1;
nodes = (
(702,213,o),
(697,218,o),
(689,218,cs),
(460,218,ls),
(455,218,o),
(443,222,o),
(443,231,c),
(438,244,o),
(443,257,o),
(451,261,c),
(598,321,l),
(663,352,o),
(697,425,o),
(672,494,c),
(663,520,o),
(633,550,o),
(607,563,c),
(594,572,o),
(563,576,o),
(546,576,cs),
(520,576,l),
(503,576,ls),
(494,576,o),
(477,576,o),
(469,572,c),
(404,559,o),
(356,494,o),
(356,429,cs),
(356,416,o),
(364,408,o),
(373,408,cs),
(421,408,ls),
(434,408,o),
(438,416,o),
(443,425,c),
(443,468,o),
(477,503,o),
(516,503,cs),
(520,503,l),
(546,503,ls),
(559,503,o),
(577,494,o),
(585,486,c),
(598,468,o),
(602,442,o),
(594,425,cs),
(590,416,o),
(577,404,o),
(568,399,c),
(399,330,ls),
(365,316,o),
(339,278,o),
(339,239,cs),
(339,149,ls),
(339,144,o),
(347,136,o),
(356,136,cs),
(689,136,ls),
(697,136,o),
(702,144,o),
(702,149,c),
(702,205,ls)
);
},
{
closed = 1;
nodes = (
(870,555,o),
(710,715,o),
(512,715,c),
(313,715,o),
(153,555,o),
(153,356,c),
(153,162,o),
(313,2,o),
(512,2,c),
(710,2,o),
(870,162,o),
(870,356,c)
);
},
{
closed = 1;
nodes = (
(814,192,o),
(680,58,o),
(512,58,c),
(348,58,o),
(209,192,o),
(209,356,c),
(209,524,o),
(348,658,o),
(512,658,c),
(680,658,o),
(814,524,o),
(814,356,c)
);
}
);
vertWidth = 1024;
width = 1024;
}
);
note = uni2461;
unicode = 9313;
},
{
glyphname = circle;
lastChange = "2023-08-06 13:19:05 +0000";
layers = (
{
layerId = "0A3FE703-33D8-4A7C-9AA9-9C187B3DD6D1";
shapes = (
{
closed = 1;
nodes = (
(328,84,o),
(188,226,o),
(188,407,cs),
(189,600,o),
(309,736,o),
(522,737,c),
(637,730,o),
(700,696,o),
(756,634,cs),
(811,572,o),
(841,503,o),
(834,396,cs),
(829,301,o),
(801,240,o),
(754,184,cs),
(707,128,o),
(652,94,o),
(519,79,c)
);
},
{
closed = 1;
nodes = (
(469,144,o),
(476,134,o),
(485,129,c),
(493,124,o),
(502,121,o),
(512,121,cs),
(522,121,o),
(527,121,o),
(536,126,c),
(544,130,o),
(551,140,o),
(551,161,cs),
(551,655,l),
(550,664,o),
(548,670,o),
(545,675,c),
(539,684,o),
(530,689,o),
(524,689,cs),
(521,689,o),
(517,689,o),
(512,689,cs),
(503,689,o),
(496,689,o),
(488,685,c),
(479,681,o),
(472,672,o),
(468,655,c),
(468,161,l)
);
},
{
closed = 1;
nodes = (
(258,559,o),
(252,553,o),
(246,544,cs),
(240,535,o),
(240,529,o),
(240,523,cs),
(240,517,o),
(240,511,o),
(244,500,cs),
(248,489,o),
(254,481,o),
(273,481,cs),
(355,481,l),
(360,469,o),
(357,450,o),
(350,431,cs),
(343,412,o),
(337,399,o),
(329,386,cs),
(325,379,o),
(321,373,o),
(318,367,c),
(314,360,o),
(309,354,o),
(304,347,c),
(293,333,o),
(282,317,o),
(271,304,cs),
(265,297,o),
(261,292,o),
(258,287,cs),
(253,278,o),
(250,270,o),
(250,263,cs),
(250,255,o),
(253,247,o),
(258,241,cs),
(263,235,o),
(271,230,o),
(280,230,cs),
(284,230,o),
(289,231,o),
(295,232,c),
(306,235,o),
(317,240,o),
(330,252,c),
(342,264,o),
(358,284,o),
(374,312,cs),
(389,339,o),
(406,370,o),
(415,397,cs),
(424,424,o),
(430,450,o),
(433,469,cs),
(436,488,o),
(436,497,o),
(436,510,cs),
(436,523,o),
(436,533,o),
(433,542,cs),
(430,551,o),
(423,558,o),
(404,559,c),
(279,559,ls)
);
},
{
closed = 1;
nodes = (
(603,553,o),
(595,548,o),
(592,541,c),
(584,525,o),
(584,504,o),
(584,500,cs),
(584,497,o),
(584,494,o),
(584,491,cs),
(584,488,o),
(584,484,o),
(585,480,cs),
(586,476,o),
(586,473,o),
(586,470,cs),
(586,467,o),
(586,464,o),
(586,462,cs),
(586,459,o),
(586,456,o),
(587,451,c),
(588,442,o),
(590,437,o),
(595,419,c),
(598,410,o),
(602,397,o),
(607,382,cs),
(618,351,o),
(636,319,o),
(653,290,cs),
(670,261,o),
(687,243,o),
(703,235,cs),
(718,227,o),
(731,224,o),
(740,224,cs),
(744,224,o),
(748,225,o),
(751,227,cs),
(757,231,o),
(763,238,o),
(767,244,c),
(770,250,o),
(770,255,o),
(770,264,cs),
(770,273,o),
(768,279,o),
(762,287,cs),
(756,295,o),
(749,301,o),
(745,305,c),
(740,309,o),
(727,322,o),
(719,334,c),
(710,346,o),
(698,369,o),
(685,397,cs),
(672,425,o),
(665,448,o),
(666,481,c),
(746,481,l),
(757,482,o),
(764,485,o),
(769,490,cs),
(778,499,o),
(779,513,o),
(779,522,cs),
(779,526,o),
(778,531,o),
(776,536,cs),
(772,547,o),
(761,551,o),
(744,554,c),
(614,554,l)
);
},
{
closed = 1;
nodes = (
(394,791,o),
(326,766,o),
(254,706,cs),
(181,645,o),
(129,554,o),
(129,409,c),
(136,258,o),
(192,173,o),
(268,113,cs),
(344,52,o),
(415,27,o),
(519,23,c),
(668,31,o),
(748,79,o),
(805,152,cs),
(862,225,o),
(891,307,o),
(896,414,c),
(891,542,o),
(858,614,o),
(795,682,cs),
(732,749,o),
(655,791,o),
(514,796,c)
);
}
);
width = 1024;
}
);
note = circle;
unicode = 9675;
},
{
glyphname = uni2780;
lastChange = "2023-08-06 13:19:05 +0000";
layers = (
{
layerId = "0A3FE703-33D8-4A7C-9AA9-9C187B3DD6D1";
shapes = (
{
closed = 1;
nodes = (
(308,713,o),
(144,559,o),
(144,363,cs),
(144,164,o),
(309,0,o),
(509,0,cs),
(703,0,o),
(869,159,o),
(869,352,cs),
(869,549,o),
(703,713,o),
(505,713,cs)
);
},
{
closed = 1;
nodes = (
(200,526,o),
(339,661,o),
(501,661,cs),
(671,661,o),
(814,524,o),
(814,348,cs),
(814,188,o),
(673,54,o),
(505,54,cs),
(338,54,o),
(200,198,o),
(200,363,cs)
);
},
{
closed = 1;
nodes = (
(465,572,o),
(461,570,o),
(458,568,c),
(454,564,o),
(454,561,o),
(454,554,cs),
(454,165,l),
(453,163,o),
(454,158,o),
(459,153,c),
(462,149,o),
(467,146,o),
(473,145,c),
(539,145,l),
(552,149,o),
(557,155,o),
(556,165,c),
(556,554,l),
(555,564,o),
(549,571,o),
(539,571,cs),
(472,571,l)
);
}
);
vertWidth = 1024;
width = 1024;
}
);
note = uni2780;
unicode = 10112;
},
{
glyphname = uni2781;
lastChange = "2023-08-06 13:19:05 +0000";
layers = (
{
layerId = "0A3FE703-33D8-4A7C-9AA9-9C187B3DD6D1";
shapes = (
{
closed = 1;
nodes = (
(702,213,o),
(697,218,o),
(689,218,cs),
(460,218,ls),
(455,218,o),
(443,222,o),
(443,231,c),
(438,244,o),
(443,257,o),
(451,261,c),
(598,321,l),
(663,352,o),
(697,425,o),
(672,494,c),
(663,520,o),
(633,550,o),
(607,563,c),
(594,572,o),
(563,576,o),
(546,576,cs),
(520,576,l),
(503,576,ls),
(494,576,o),
(477,576,o),
(469,572,c),
(404,559,o),
(356,494,o),
(356,429,cs),
(356,416,o),
(364,408,o),
(373,408,cs),
(421,408,ls),
(434,408,o),
(438,416,o),
(443,425,c),
(443,468,o),
(477,503,o),
(516,503,cs),
(520,503,l),
(546,503,ls),
(559,503,o),
(577,494,o),
(585,486,c),
(598,468,o),
(602,442,o),
(594,425,cs),
(590,416,o),
(577,404,o),
(568,399,c),
(399,330,ls),
(365,316,o),
(339,278,o),
(339,239,cs),
(339,149,ls),
(339,144,o),
(347,136,o),
(356,136,cs),
(689,136,ls),
(697,136,o),
(702,144,o),
(702,149,c),
(702,205,ls)
);
},
{
closed = 1;
nodes = (
(870,555,o),
(710,715,o),
(512,715,c),
(313,715,o),
(153,555,o),
(153,356,c),
(153,162,o),
(313,2,o),
(512,2,c),
(710,2,o),
(870,162,o),
(870,356,c)
);
},
{
closed = 1;
nodes = (
(814,192,o),
(680,58,o),
(512,58,c),
(348,58,o),
(209,192,o),
(209,356,c),
(209,524,o),
(348,658,o),
(512,658,c),
(680,658,o),
(814,524,o),
(814,356,c)
);
}
);
vertWidth = 1024;
width = 1024;
}
);
note = uni2781;
unicode = 10113;
},
{
glyphname = uni3012;
lastChange = "2023-08-06 13:19:05 +0000";
layers = (
{
layerId = "0A3FE703-33D8-4A7C-9AA9-9C187B3DD6D1";
shapes = (
{
closed = 1;
nodes = (
(1015,560,l),
(1015,691,l),
(1,691,l),
(1,560,l)
);
},
{
closed = 1;
nodes = (
(426,331,l),
(426,83,l),
(590,83,l),
(590,331,l),
(1015,331,l),
(1015,460,l),
(1,460,l),
(1,331,l)
);
}
);
vertWidth = 1024;
width = 1024;
}
);
note = uni3012;
unicode = 12306;
},
{
color = 1;
glyphname = uni4E00;
lastChange = "2023-08-10 14:37:18 +0000";
layers = (
{
background = {
shapes = (
{
attr = {
strokeWidth = 0.142;
};
closed = 1;
nodes = (
(29,-3,l),
(995,-3,l),
(995,733,l),
(29,733,l)
);
}
);
};
layerId = "0A3FE703-33D8-4A7C-9AA9-9C187B3DD6D1";
shapes = (
{
closed = 1;
nodes = (
(118,453,ls),
(28,454,o),
(28,317,o),
(118,318,cs),
(916,318,ls),
(1006,317,o),
(1006,454,o),
(916,453,cs)
);
}
);
vertWidth = 1024;
width = 1024;
},
{
associatedMasterId = "0A3FE703-33D8-4A7C-9AA9-9C187B3DD6D1";
layerId = "6FA4F468-9CA5-4431-B59A-287F35B1DCA1";
name = "23年8月3日 18:15";
shapes = (
{
closed = 1;
nodes = (
(114,500,o),
(99,485,o),
(91,467,cs),
(83,449,o),
(83,440,o),
(83,424,cs),
(83,408,o),
(82,399,o),
(89,383,cs),
(96,367,o),
(111,353,o),
(147,348,c),
(908,348,l),
(932,353,o),
(949,368,o),
(957,384,cs),
(965,400,o),
(967,413,o),
(966,431,cs),
(965,449,o),
(963,459,o),
(955,474,c),
(946,489,o),
(931,500,o),
(908,501,c),
(147,501,ls)
);
}
);
vertWidth = 1024;
width = 1024;
}
);
note = uni4E00;
unicode = 19968;
},
{
color = 1;
glyphname = uni4E09;
lastChange = "2023-08-10 14:37:32 +0000";
layers = (
{
background = {
shapes = (
{
attr = {
strokeWidth = 0.142;
};
closed = 1;
nodes = (
(29,-3,l),
(995,-3,l),
(995,733,l),
(29,733,l)
);
}
);
};
layerId = "0A3FE703-33D8-4A7C-9AA9-9C187B3DD6D1";
shapes = (
{
closed = 1;
nodes = (
(800,573,ls),
(893,571,o),
(893,713,o),
(800,712,cs),
(250,712,ls),
(157,713,o),
(157,571,o),
(250,573,cs)
);
},
{
closed = 1;
nodes = (
(280,456,ls),
(202,457,o),
(202,339,o),
(280,341,cs),
(772,341,ls),
(850,339,o),
(850,457,o),
(772,456,cs)
);
},
{
closed = 1;
nodes = (
(123,173,ls),
(85,173,o),
(57,146,o),
(57,108,cs),
(57,69,o),
(85,42,o),
(123,42,cs),
(921,42,ls),
(1009,41,o),
(1010,175,o),
(921,173,cs)
);
}
);
vertWidth = 1024;
width = 1024;
},
{
associatedMasterId = "0A3FE703-33D8-4A7C-9AA9-9C187B3DD6D1";
layerId = "A9F75370-5E00-4A15-899C-C50C72D0FDFA";
name = "23年8月3日 18:15";
shapes = (
{
closed = 1;
nodes = (
(219,716,o),
(202,705,o),
(193,693,c),
(184,680,o),
(182,669,o),
(182,656,cs),
(182,643,o),
(184,635,o),
(190,623,cs),
(196,610,o),
(209,597,o),
(234,593,c),
(810,593,ls),
(837,593,o),
(851,607,o),
(857,621,cs),
(863,635,o),
(865,642,o),
(865,655,cs),
(865,667,o),
(863,677,o),
(855,690,cs),
(847,703,o),
(832,715,o),
(808,716,c),
(238,716,ls)
);
},
{
closed = 1;
nodes = (
(97,221,o),
(88,211,o),
(81,200,c),
(73,189,o),
(70,174,o),
(71,162,cs),
(72,150,o),
(72,145,o),
(79,133,cs),
(86,121,o),
(98,107,o),
(121,106,c),
(911,106,l),
(930,109,o),
(941,118,o),
(947,130,c),
(953,141,o),
(954,150,o),
(954,162,cs),
(954,173,o),
(953,183,o),
(946,197,c),
(938,211,o),
(927,221,o),
(907,222,c),
(117,222,l)
);
},
{
closed = 1;
nodes = (
(253,499,o),
(240,488,o),
(234,475,cs),
(228,462,o),
(227,453,o),
(227,441,cs),
(227,428,o),
(227,421,o),
(234,407,cs),
(241,393,o),
(253,381,o),
(277,377,c),
(760,377,l),
(784,382,o),
(799,395,o),
(804,410,cs),
(809,425,o),
(811,430,o),
(811,442,cs),
(811,454,o),
(809,461,o),
(802,474,c),
(794,486,o),
(780,496,o),
(760,500,c),
(277,500,l)
);
}
);
vertWidth = 1024;
width = 1024;
}
);
note = uni4E09;
unicode = 19977;
},
{
glyphname = uni4E57;
lastChange = "2023-08-06 13:19:05 +0000";
layers = (
{
layerId = "0A3FE703-33D8-4A7C-9AA9-9C187B3DD6D1";
shapes = (
{
closed = 1;
nodes = (
(527,-64,o),
(541,-60,o),
(548,-55,c),
(560,-43,o),
(571,-32,o),
(571,-8,cs),
(571,188,l),
(744,102,o),
(836,71,o),
(919,40,cs),
(961,25,o),
(984,17,o),
(991,16,cs),
(998,15,o),
(1004,16,o),
(1010,19,cs),
(1022,25,o),
(1031,43,o),
(1024,64,c),
(1021,74,o),
(1005,85,o),
(976,98,cs),
(918,124,o),
(758,200,o),
(571,330,c),
(571,582,l),
(948,582,l),
(965,584,o),
(976,587,o),
(981,592,c),
(991,600,o),
(997,623,o),
(993,643,cs),
(990,662,o),
(977,677,o),
(952,678,c),
(571,678,l),
(571,718,l),
(605,722,o),
(631,725,o),
(653,728,cs),
(694,733,o),
(720,737,o),
(777,758,c),
(799,776,o),
(799,796,o),
(796,812,c),
(791,829,o),
(776,843,o),
(740,843,c),
(695,837,o),
(662,832,o),
(642,829,cs),
(600,822,o),
(554,814,o),
(518,810,cs),
(481,806,o),
(442,803,o),
(395,800,cs),
(348,797,o),
(319,796,o),
(246,796,c),
(216,791,o),
(209,776,o),
(209,760,cs),
(209,752,o),
(210,744,o),
(213,737,c),
(218,722,o),
(239,717,o),
(263,714,cs),
(287,712,o),
(313,711,o),
(353,711,c),
(372,710,o),
(402,710,o),
(441,709,c),
(441,678,l),
(63,678,ls),
(31,678,o),
(21,669,o),
(17,653,c),
(12,638,o),
(11,627,o),
(17,611,cs),
(23,595,o),
(34,582,o),
(65,582,cs),
(441,582,l),
(441,324,l),
(319,242,o),
(277,217,o),
(193,171,cs),
(150,147,o),
(109,125,o),
(69,103,cs),
(29,82,o),
(7,69,o),
(4,64,c),
(-3,54,o),
(-3,41,o),
(1,30,cs),
(5,19,o),
(19,12,o),
(38,13,c),
(47,14,o),
(75,22,o),
(123,39,cs),
(220,73,o),
(317,123,o),
(441,187,c),
(441,-7,ls),
(441,-20,o),
(443,-29,o),
(446,-35,cs),
(453,-49,o),
(467,-62,o),
(507,-65,c)
);
},
{
closed = 1;
nodes = (
(187,260,o),
(261,281,o),
(310,298,cs),
(358,315,o),
(387,326,o),
(394,332,c),
(401,337,o),
(404,348,o),
(404,365,cs),
(404,527,ls),
(404,555,o),
(387,567,o),
(363,568,cs),
(340,569,o),
(320,566,o),
(309,534,c),
(91,534,l),
(59,531,o),
(50,515,o),
(50,491,cs),
(50,468,o),
(59,447,o),
(91,443,c),
(314,443,l),
(314,409,l),
(315,401,o),
(313,395,o),
(308,390,cs),
(303,385,o),
(281,378,o),
(242,368,cs),
(202,356,o),
(140,337,o),
(54,309,c),
(38,297,o),
(37,276,o),
(42,260,cs),
(47,242,o),
(70,229,o),
(88,233,cs)
);
},
{
closed = 1;
nodes = (
(957,241,o),
(967,260,o),
(972,275,c),
(976,290,o),
(973,308,o),
(962,319,c),
(956,324,o),
(932,331,o),
(891,341,cs),
(851,350,o),
(812,360,o),
(775,370,cs),
(738,379,o),
(717,385,o),
(711,390,c),
(705,394,o),
(701,400,o),
(700,409,c),
(700,443,l),
(921,443,l),
(937,444,o),
(949,448,o),
(956,455,c),
(968,471,o),
(969,487,o),
(967,502,cs),
(965,518,o),
(954,533,o),
(922,534,cs),
(700,534,l),
(696,555,o),
(677,567,o),
(658,568,c),
(638,568,o),
(620,561,o),
(612,530,c),
(612,357,l),
(614,344,o),
(619,336,o),
(626,331,cs),
(633,326,o),
(663,316,o),
(713,300,cs),
(763,285,o),
(832,266,o),
(920,244,c)
);
}
);
vertWidth = 1024;
width = 1024;
}
);
note = uni4E57;
unicode = 20055;
},
{
glyphname = uni4E58;
lastChange = "2023-08-06 13:19:05 +0000";
layers = (
{
layerId = "0A3FE703-33D8-4A7C-9AA9-9C187B3DD6D1";
shapes = (
{
closed = 1;
nodes = (
(527,-64,o),
(541,-60,o),
(548,-55,c),
(560,-43,o),
(571,-32,o),
(571,-8,cs),
(571,188,l),
(744,102,o),
(836,71,o),
(919,40,cs),
(961,25,o),
(984,17,o),
(991,16,cs),
(998,15,o),
(1004,16,o),
(1010,19,cs),
(1022,25,o),
(1031,43,o),
(1024,64,c),
(1021,74,o),
(1005,85,o),
(976,98,cs),
(918,124,o),
(758,200,o),
(571,330,c),
(571,582,l),
(948,582,l),
(965,584,o),
(976,587,o),
(981,592,c),
(991,600,o),
(997,623,o),
(993,643,cs),
(990,662,o),
(977,677,o),
(952,678,c),
(571,678,l),
(571,718,l),
(605,722,o),
(631,725,o),
(653,728,cs),
(694,733,o),
(720,737,o),
(777,758,c),
(799,776,o),
(799,796,o),
(796,812,c),
(791,829,o),
(776,843,o),
(740,843,c),
(695,837,o),
(662,832,o),
(642,829,cs),
(600,822,o),
(554,814,o),
(518,810,cs),
(481,806,o),
(442,803,o),
(395,800,cs),
(348,797,o),
(319,796,o),
(246,796,c),
(216,791,o),
(209,776,o),
(209,760,cs),
(209,752,o),
(210,744,o),
(213,737,c),
(218,722,o),
(239,717,o),
(263,714,cs),
(287,712,o),
(313,711,o),
(353,711,c),
(372,710,o),
(402,710,o),
(441,709,c),
(441,678,l),
(63,678,ls),
(31,678,o),
(21,669,o),
(17,653,c),
(12,638,o),
(11,627,o),
(17,611,cs),
(23,595,o),
(34,582,o),
(65,582,cs),
(441,582,l),
(441,324,l),
(319,242,o),
(277,217,o),
(193,171,cs),
(150,147,o),
(109,125,o),
(69,103,cs),
(29,82,o),
(7,69,o),
(4,64,c),
(-3,54,o),
(-3,41,o),
(1,30,cs),
(5,19,o),
(19,12,o),
(38,13,c),
(47,14,o),
(75,22,o),
(123,39,cs),
(220,73,o),
(317,123,o),
(441,187,c),
(441,-7,ls),
(441,-20,o),
(443,-29,o),
(446,-35,cs),
(453,-49,o),
(467,-62,o),
(507,-65,c)
);
},
{
closed = 1;
nodes = (
(187,260,o),
(261,281,o),
(310,298,cs),
(358,315,o),
(387,326,o),
(394,332,c),
(401,337,o),
(404,348,o),
(404,365,cs),
(404,527,ls),
(404,555,o),
(387,567,o),
(363,568,cs),
(340,569,o),
(320,566,o),
(309,534,c),
(91,534,l),
(59,531,o),
(50,515,o),
(50,491,cs),
(50,468,o),
(59,447,o),
(91,443,c),
(314,443,l),
(314,409,l),
(315,401,o),
(313,395,o),
(308,390,cs),
(303,385,o),
(281,378,o),
(242,368,cs),
(202,356,o),
(140,337,o),
(54,309,c),
(38,297,o),
(37,276,o),
(42,260,cs),
(47,242,o),
(70,229,o),
(88,233,cs)
);
},
{
closed = 1;
nodes = (
(957,241,o),
(967,260,o),
(972,275,c),
(976,290,o),
(973,308,o),
(962,319,c),
(956,324,o),
(932,331,o),
(891,341,cs),
(851,350,o),
(812,360,o),
(775,370,cs),
(738,379,o),
(717,385,o),
(711,390,c),
(705,394,o),
(701,400,o),
(700,409,c),
(700,443,l),
(921,443,l),
(937,444,o),
(949,448,o),
(956,455,c),
(968,471,o),
(969,487,o),
(967,502,cs),
(965,518,o),
(954,533,o),
(922,534,cs),
(700,534,l),
(696,555,o),
(677,567,o),
(658,568,c),
(638,568,o),
(620,561,o),
(612,530,c),
(612,357,l),
(614,344,o),
(619,336,o),
(626,331,cs),
(633,326,o),
(663,316,o),
(713,300,cs),
(763,285,o),
(832,266,o),
(920,244,c)
);
}
);
vertWidth = 1024;
width = 1024;
}
);
note = uni4E58;
unicode = 20056;
},
{
color = 1;
glyphname = uni4E8C;
lastChange = "2023-08-10 14:37:24 +0000";
layers = (
{
background = {
shapes = (
{
attr = {
strokeWidth = 0.142;
};
closed = 1;
nodes = (
(29,-3,l),
(995,-3,l),
(995,733,l),
(29,733,l)
);
}
);
};
layerId = "0A3FE703-33D8-4A7C-9AA9-9C187B3DD6D1";
shapes = (
{
closed = 1;
nodes = (
(755,494,ls),
(844,493,o),
(845,628,o),
(755,626,cs),
(302,626,ls),
(213,628,o),
(213,493,o),
(302,494,cs)
);
},
{
closed = 1;
nodes = (
(123,201,ls),
(34,203,o),
(34,68,o),
(123,69,cs),
(905,69,ls),
(994,68,o),
(995,203,o),
(905,201,cs)
);
}
);
width = 1024;
},
{
associatedMasterId = "0A3FE703-33D8-4A7C-9AA9-9C187B3DD6D1";
layerId = "49BBABA6-7A1F-4EEA-89DC-BEBDCA32BF60";
name = "23年8月3日 18:15";
width = 1024;
}
);
unicode = 20108;
},
{
glyphname = uni4E95;
lastChange = "2023-08-06 13:19:05 +0000";
layers = (
{
layerId = "0A3FE703-33D8-4A7C-9AA9-9C187B3DD6D1";
shapes = (
{
closed = 1;
nodes = (
(570,-57,o),
(584,-79,o),
(597,-90,c),
(610,-103,o),
(625,-110,o),
(658,-113,c),
(672,-112,o),
(684,-110,o),
(691,-107,c),
(705,-99,o),
(715,-92,o),
(724,-83,cs),
(732,-75,o),
(744,-51,o),
(744,-18,cs),
(744,246,l),
(909,246,l),
(923,247,o),
(934,251,o),
(942,257,c),
(956,268,o),
(965,279,o),
(969,319,c),
(968,340,o),
(965,355,o),
(960,364,c),
(949,380,o),
(937,392,o),
(907,396,c),
(744,396,l),
(744,515,l),
(837,515,l),
(851,520,o),
(861,526,o),
(867,533,cs),
(878,545,o),
(886,554,o),
(889,588,c),
(888,602,o),
(887,614,o),
(883,623,cs),
(878,639,o),
(870,657,o),
(838,665,c),
(744,665,l),
(744,829,l),
(741,846,o),
(737,859,o),
(729,867,cs),
(715,881,o),
(701,889,o),
(659,890,c),
(640,889,o),
(625,887,o),
(615,883,c),
(595,874,o),
(578,868,o),
(567,828,c),
(567,665,l),
(444,665,l),
(444,761,l),
(441,779,o),
(437,791,o),
(430,798,cs),
(415,812,o),
(399,822,o),
(367,825,c),
(351,825,o),
(338,824,o),
(328,822,cs),
(307,818,o),
(281,800,o),
(273,760,c),
(273,665,l),
(259,665,o),
(248,665,o),
(239,665,cs),
(230,665,o),
(220,665,o),
(211,665,cs),
(202,665,o),
(189,665,o),
(171,665,c),
(153,657,o),
(141,649,o),
(136,641,c),
(123,625,o),
(121,614,o),
(120,588,c),
(121,577,o),
(123,568,o),
(126,559,c),
(129,543,o),
(137,526,o),
(169,515,c),
(182,515,o),
(193,515,o),
(204,515,cs),
(214,515,o),
(224,515,o),
(236,515,cs),
(247,515,o),
(259,515,o),
(273,515,c),
(273,396,l),
(97,396,l),
(69,389,o),
(63,378,o),
(55,369,c),
(46,360,o),
(40,348,o),
(40,316,c),
(43,288,o),
(44,278,o),
(56,265,cs),
(68,251,o),
(78,245,o),
(98,241,c),
(273,241,l),
(268,211,o),
(263,188,o),
(259,173,c),
(254,158,o),
(250,145,o),
(245,137,c),
(236,121,o),
(229,107,o),
(210,86,cs),
(192,65,o),
(165,40,o),
(166,17,c),
(166,-8,o),
(172,-32,o),
(209,-53,c),
(223,-54,o),
(236,-54,o),
(247,-51,c),
(267,-46,o),
(291,-29,o),
(308,-15,cs),
(325,-1,o),
(339,10,o),
(355,28,cs),
(370,46,o),
(392,76,o),
(409,116,cs),
(426,156,o),
(437,199,o),
(444,241,c),
(567,241,l),
(567,-19,l)
);
},
{
closed = 1;
nodes = (
(444,515,l),
(567,515,l),
(567,396,l),
(444,396,l)
);
}
);
vertWidth = 1024;
width = 1024;
}
);
note = uni4E95;
unicode = 20117;
},
{
glyphname = uni4ED5;
lastChange = "2023-08-06 13:19:05 +0000";
layers = (
{
layerId = "0A3FE703-33D8-4A7C-9AA9-9C187B3DD6D1";
shapes = (
{
closed = 1;
nodes = (
(381,551,l),
(361,550,o),
(351,540,o),
(345,528,cs),
(339,516,o),
(337,509,o),
(337,500,cs),
(337,491,o),
(339,483,o),
(345,471,cs),
(351,459,o),
(363,447,o),
(385,446,c),
(606,446,l),
(606,183,l),
(417,183,ls),
(398,183,o),
(386,171,o),
(378,158,cs),
(371,144,o),
(370,134,o),
(371,123,cs),
(372,112,o),
(372,105,o),
(379,92,cs),
(387,80,o),
(398,67,o),
(417,66,c),
(943,66,l),
(967,71,o),
(979,81,o),
(985,93,c),
(991,105,o),
(994,114,o),
(995,124,c),
(995,134,o),
(993,144,o),
(984,158,c),
(975,171,o),
(959,183,o),
(938,183,cs),
(738,183,l),
(738,446,l),
(981,446,l),
(1001,449,o),
(1014,462,o),
(1021,474,c),
(1028,485,o),
(1028,494,o),
(1028,505,c),
(1027,517,o),
(1025,524,o),
(1018,533,cs),
(1011,542,o),
(999,551,o),
(981,551,cs),
(738,551,l),
(738,735,l),
(735,756,o),
(722,771,o),
(707,778,cs),
(691,785,o),
(681,785,o),
(670,785,c),
(659,784,o),
(648,784,o),
(634,777,c),
(621,769,o),
(607,755,o),
(606,724,cs),
(606,551,l)
);
},
{
closed = 1;
nodes = (
(263,546,o),
(273,559,o),
(284,569,cs),
(304,588,o),
(313,597,o),
(332,615,c),
(342,624,o),
(351,632,o),
(358,640,c),
(373,655,o),
(384,676,o),
(387,693,cs),
(390,710,o),
(389,724,o),
(382,735,cs),
(376,746,o),
(367,755,o),
(357,761,c),
(347,765,o),
(331,765,o),
(319,765,c),
(306,764,o),
(294,758,o),
(286,750,c),
(281,745,o),
(276,740,o),
(271,735,cs),
(260,724,o),
(257,722,o),
(245,705,c),
(238,697,o),
(232,689,o),
(225,682,cs),
(212,667,o),
(183,635,o),
(162,618,cs),
(152,609,o),
(143,600,o),
(135,591,c),
(125,582,o),
(118,574,o),
(113,569,c),
(107,564,o),
(101,558,o),
(95,551,c),
(88,545,o),
(82,540,o),
(75,536,cs),
(69,532,o),
(64,528,o),
(59,525,c),
(54,521,o),
(47,517,o),
(40,512,c),
(23,501,o),
(17,497,o),
(8,489,c),
(-1,480,o),
(-4,469,o),
(-6,458,cs),
(-8,445,o),
(-8,437,o),
(-5,430,cs),
(-2,423,o),
(3,417,o),
(9,413,cs),
(15,409,o),
(25,406,o),
(36,407,c),
(46,407,o),
(55,410,o),
(74,418,cs),
(94,426,o),
(114,436,o),
(151,461,c),
(150,451,o),
(148,441,o),
(147,430,c),
(147,75,l),
(150,51,o),
(160,34,o),
(173,26,c),
(186,17,o),
(195,14,o),
(207,14,cs),
(219,14,o),
(229,18,o),
(243,27,c),
(256,35,o),
(268,51,o),
(268,75,cs),
(268,488,l),
(267,508,o),
(261,524,o),
(253,533,c)
);
}
);
vertWidth = 1024;
width = 1024;
}
);
note = uni4ED5;
unicode = 20181;
},
{
color = 5;
glyphname = uni4ED9;
lastChange = "2023-08-08 14:54:03 +0000";
layers = (
{
layerId = "0A3FE703-33D8-4A7C-9AA9-9C187B3DD6D1";
shapes = (
{
closed = 1;
nodes = (
(215,-2,o),
(223,-10,o),
(234,-13,c),
(246,-19,o),
(251,-20,o),
(260,-20,cs),
(269,-20,o),
(273,-19,o),
(282,-15,cs),
(292,-11,o),
(302,-2,o),
(307,15,c),
(307,539,l),
(327,576,o),
(347,605,o),
(359,622,cs),
(365,631,o),
(371,640,o),
(378,651,cs),
(392,670,o),
(400,681,o),
(406,694,cs),
(409,700,o),
(412,705,o),
(415,710,cs),
(416,711,o),
(416,712,o),
(417,713,cs),
(423,722,o),
(426,731,o),
(428,736,cs),
(429,738,o),
(430,740,o),
(431,744,cs),
(432,748,o),
(433,750,o),
(434,755,cs),
(435,763,o),
(436,773,o),
(431,783,cs),
(425,794,o),
(418,802,o),
(410,807,cs),
(401,811,o),
(387,814,o),
(374,813,cs),
(362,812,o),
(351,809,o),
(342,799,c),
(333,786,o),
(324,772,o),
(313,748,cs),
(300,722,o),
(287,697,o),
(277,678,cs),
(275,673,o),
(272,668,o),
(269,663,cs),
(267,659,o),
(264,654,o),
(261,650,c),
(259,645,o),
(257,641,o),
(255,637,cs),
(249,626,o),
(246,621,o),
(237,606,cs),
(232,596,o),
(226,585,o),
(220,573,cs),
(207,552,o),
(190,525,o),
(175,502,cs),
(169,493,o),
(162,483,o),
(156,473,cs),
(155,471,o),
(153,469,o),
(152,467,cs),
(135,443,o),
(118,416,o),
(112,406,c),
(107,394,o),
(104,384,o),
(104,377,cs),
(104,374,o),
(105,370,o),
(106,366,cs),
(108,360,o),
(112,355,o),
(118,351,cs),
(125,347,o),
(131,345,o),
(139,345,cs),
(148,345,o),
(155,347,o),
(162,353,cs),
(169,359,o),
(172,362,o),
(176,367,cs),
(180,372,o),
(195,391,o),
(204,399,c),
(212,395,l),
(212,14,l)
);
},
{
closed = 1;
nodes = (
(462,428,o),
(450,439,o),
(435,444,cs),
(421,450,o),
(417,450,o),
(409,450,cs),
(400,450,o),
(395,449,o),
(381,443,cs),
(368,436,o),
(356,425,o),
(355,396,cs),
(355,128,l),
(358,99,o),
(380,69,o),
(406,65,c),
(882,65,l),
(909,69,o),
(937,104,o),
(937,134,cs),
(937,396,ls),
(938,419,o),
(925,432,o),
(911,441,c),
(896,448,o),
(889,448,o),
(880,448,cs),
(871,448,o),
(867,448,o),
(855,441,cs),
(840,432,o),
(831,421,o),
(830,395,cs),
(830,213,l),
(831,205,o),
(828,196,o),
(823,189,c),
(819,180,o),
(810,172,o),
(803,172,cs),
(705,172,l),
(705,710,l),
(702,735,o),
(691,750,o),
(678,758,cs),
(665,765,o),
(660,765,o),
(648,765,cs),
(635,765,o),
(628,765,o),
(617,758,cs),
(604,750,o),
(594,736,o),
(593,707,cs),
(593,172,l),
(499,172,l),
(488,171,o),
(481,175,o),
(474,183,cs),
(467,190,o),
(466,197,o),
(466,205,cs),
(466,396,l)
);
}
);
vertWidth = 1024;
width = 1024;
}
);
note = uni4ED9;
unicode = 20185;
},
{
glyphname = uni4EE4;
lastChange = "2023-08-06 13:19:05 +0000";
layers = (
{
layerId = "0A3FE703-33D8-4A7C-9AA9-9C187B3DD6D1";
shapes = (
{
closed = 1;
nodes = (
(608,-22,o),
(629,-19,o),
(638,-14,cs),
(648,-9,o),
(655,-1,o),
(660,10,cs),
(670,34,o),
(670,53,o),
(665,85,c),
(723,127,o),
(766,160,o),
(792,185,cs),
(818,209,o),
(839,231,o),
(855,249,cs),
(886,285,o),
(892,306,o),
(887,335,cs),
(882,363,o),
(851,389,o),
(810,389,cs),
(304,389,l),
(289,388,o),
(277,384,o),
(270,379,c),
(255,366,o),
(246,341,o),
(254,319,c),
(261,298,o),
(281,285,o),
(306,284,c),
(672,284,l),
(692,283,o),
(702,276,o),
(696,260,cs),
(693,252,o),
(684,242,o),
(671,229,cs),
(658,215,o),
(629,196,o),
(584,168,c),
(551,206,o),
(530,228,o),
(523,234,c),
(515,240,o),
(506,244,o),
(497,245,cs),
(476,247,o),
(458,242,o),
(443,229,cs),
(427,215,o),
(421,186,o),
(438,154,cs),
(453,122,o),
(492,55,o),
(520,18,cs),
(534,-1,o),
(545,-12,o),
(551,-15,cs),
(557,-18,o),
(565,-21,o),
(574,-22,c)
);
},
{
closed = 1;
nodes = (
(124,30,o),
(135,47,o),
(151,77,cs),
(167,105,o),
(191,153,o),
(206,186,cs),
(221,218,o),
(230,238,o),
(230,262,cs),
(230,286,o),
(210,304,o),
(188,305,c),
(165,305,o),
(147,298,o),
(128,278,cs),
(119,267,o),
(105,250,o),
(88,225,cs),
(69,199,o),
(52,177,o),
(36,155,cs),
(3,113,o),
(6,92,o),
(12,70,cs),
(18,49,o),
(47,26,o),
(78,26,c)
);
},
{
closed = 1;
nodes = (
(966,383,o),
(987,382,o),
(1005,389,cs),
(1021,396,o),
(1030,407,o),
(1032,432,cs),
(1034,455,o),
(1025,472,o),
(1010,482,cs),
(860,571,o),
(769,643,o),
(605,795,c),
(576,814,o),
(541,813,o),
(509,786,c),
(460,737,o),
(420,699,o),
(390,672,cs),
(328,618,o),
(255,552,o),
(146,480,c),
(139,471,o),
(135,463,o),
(134,454,c),
(130,437,o),
(140,414,o),
(155,404,cs),
(170,394,o),
(185,391,o),
(209,399,c),
(327,463,o),
(388,517,o),
(564,657,c),
(681,573,o),
(765,513,o),
(817,477,cs),
(868,441,o),
(912,412,o),
(949,392,cs)
);
},
{
closed = 1;
nodes = (
(709,437,o),
(719,440,o),
(727,446,cs),
(743,457,o),
(750,467,o),
(750,485,cs),
(750,494,o),
(748,502,o),
(744,509,cs),
(735,524,o),
(717,534,o),
(693,537,c),
(452,537,l),
(424,536,o),
(411,528,o),
(402,509,cs),
(393,490,o),
(394,475,o),
(403,462,c),
(411,449,o),
(423,440,o),
(448,436,c),
(696,436,l)
);
},
{
closed = 1;
nodes = (
(160,535,o),
(168,539,o),
(181,552,cs),
(194,564,o),
(193,582,o),
(193,602,cs),
(193,622,o),
(181,636,o),
(150,664,cs),
(117,692,o),
(64,700,o),
(40,692,cs),
(14,683,o),
(-3,668,o),
(-5,645,cs),
(-7,621,o),
(-2,603,o),
(11,591,c),
(23,578,o),
(43,565,o),
(63,553,cs),
(84,541,o),
(97,538,o),
(130,535,c)
);
}
);
vertWidth = 1024;
width = 1024;
}
);
note = uni4EE4;
unicode = 20196;
},
{
color = 1;
glyphname = uni4F4D;
lastChange = "2023-08-10 14:34:28 +0000";
layers = (
{
background = {
shapes = (
{
attr = {
strokeWidth = 0.142;
};
closed = 1;
nodes = (
(29,-3,l),
(995,-3,l),
(995,733,l),
(29,733,l)
);
}
);
};
layerId = "0A3FE703-33D8-4A7C-9AA9-9C187B3DD6D1";
shapes = (
{
closed = 1;
nodes = (
(546,210,l),
(552,201,l),
(562,191,o),
(577,183,o),
(591,183,cs),
(628,182,o),
(654,219,o),
(642,252,cs),
(637,263,l),
(557,402,ls),
(549,416,o),
(535,425,o),
(520,428,cs),
(475,435,o),
(442,390,o),
(465,348,cs)
);
},
{
closed = 1;
nodes = (
(955,109,o),
(940,122,o),
(923,125,cs),
(912,126,l),
(444,126,ls),
(378,124,o),
(369,34,o),
(434,19,c),
(444,18,o),
(964,13,o),
(928,20,c),
(959,30,o),
(975,63,o),
(963,92,cs)
);
},
{
closed = 1;
nodes = (
(385,699,o),
(330,734,o),
(288,702,cs),
(284,699,o),
(278,692,o),
(275,687,cs),
(65,364,ls),
(59,356,o),
(56,343,o),
(56,333,cs),
(57,294,o),
(98,266,o),
(135,282,cs),
(152,289,o),
(170,318,o),
(184,342,cs),
(189,349,o),
(193,356,o),
(196,361,c),
(209,357,l),
(209,77,l),
(211,65,ls),
(215,47,o),
(226,33,o),
(244,26,cs),
(270,15,o),
(302,27,o),
(313,54,cs),
(315,60,o),
(317,71,o),
(317,76,cs),
(317,546,l),
(319,550,o),
(325,559,o),
(333,570,cs),
(351,597,o),
(376,635,o),
(377,647,cs)
);
},
{
closed = 1;
nodes = (
(969,553,o),
(952,570,o),
(932,574,cs),
(921,575,l),
(748,575,l),
(748,630,o),
(760,716,o),
(687,716,cs),
(618,716,o),
(624,636,o),
(626,582,c),
(620,575,l),
(616,575,o),
(599,575,o),
(576,575,cs),
(511,576,o),
(401,577,o),
(420,574,c),
(386,563,o),
(372,523,o),
(392,494,c),
(398,483,o),
(411,474,o),
(424,471,cs),
(435,470,l),
(921,470,ls),
(954,470,o),
(979,500,o),
(972,534,cs)
);
},
{
closed = 1;
nodes = (
(758,163,o),
(804,164,o),
(826,196,c),
(828,203,o),
(834,218,o),
(842,236,cs),
(862,287,o),
(894,364,o),
(894,380,cs),
(892,433,o),
(826,452,o),
(795,407,c),
(789,392,o),
(730,244,o),
(728,235,cs),
(725,221,o),
(729,206,o),
(737,195,cs)
);
}
);
width = 1024;
}
);
unicode = 20301;
},
{
glyphname = uni4FBF;
lastChange = "2023-08-06 13:19:05 +0000";
layers = (
{
layerId = "0A3FE703-33D8-4A7C-9AA9-9C187B3DD6D1";
shapes = (
{
closed = 1;
nodes = (
(292,752,o),
(283,752,o),
(276,750,c),
(262,745,o),
(251,738,o),
(240,719,c),
(234,710,o),
(228,703,o),
(225,700,cs),
(221,696,o),
(217,692,o),
(213,687,cs),
(205,677,o),
(200,670,o),
(188,659,c),
(175,647,o),
(165,637,o),
(157,629,cs),
(152,623,o),
(147,618,o),
(141,613,cs),
(135,608,o),
(129,603,o),
(125,599,cs),
(120,594,o),
(115,590,o),
(109,586,cs),
(97,578,o),
(85,569,o),
(73,564,cs),
(62,559,o),
(52,553,o),
(40,544,cs),
(27,535,o),
(20,525,o),
(20,505,c),
(24,488,o),
(39,477,o),
(60,473,c),
(89,475,o),
(123,484,o),
(163,500,c),
(163,77,ls),
(163,55,o),
(190,33,o),
(221,30,c),
(255,34,o),
(276,51,o),
(281,77,c),
(281,581,l),
(301,605,o),
(313,620,o),
(326,642,c),
(339,663,o),
(349,683,o),
(354,704,c),
(347,732,o),
(328,751,o),
(301,750,c)
);
},
{
closed = 1;
nodes = (
(701,517,l),
(816,517,l),
(821,518,o),
(825,516,o),
(826,510,cs),
(827,504,o),
(830,494,o),
(830,481,c),
(701,481,l)
);
},
{
closed = 1;
nodes = (
(701,406,l),
(831,406,l),
(832,398,o),
(831,390,o),
(828,384,cs),
(825,378,o),
(819,374,o),
(812,374,cs),
(701,374,l)
);
},
{
closed = 1;
nodes = (
(584,373,l),
(482,373,ls),
(474,373,o),
(469,377,o),
(466,383,c),
(462,389,o),
(462,398,o),
(462,406,c),
(584,406,l)
);
},
{
closed = 1;
nodes = (
(920,296,o),
(932,319,o),
(937,345,c),
(946,421,o),
(943,499,o),
(934,555,c),
(929,580,o),
(920,596,o),
(904,601,c),
(701,601,l),
(701,640,l),
(860,640,l),
(869,639,o),
(880,644,o),
(887,654,cs),
(895,664,o),
(900,674,o),
(900,686,c),
(901,711,o),
(883,733,o),
(863,734,c),
(433,734,l),
(412,733,o),
(398,711,o),
(397,688,c),
(396,679,o),
(400,665,o),
(408,656,cs),
(416,647,o),
(426,640,o),
(435,640,cs),
(584,640,l),
(584,599,l),
(401,599,l),
(375,596,o),
(360,577,o),
(360,552,c),
(352,487,o),
(349,403,o),
(357,354,c),
(360,323,o),
(368,301,o),
(396,293,c),
(584,293,l),
(582,254,l),
(539,270,ls),
(519,277,o),
(502,277,o),
(482,277,c),
(463,280,o),
(448,277,o),
(437,270,c),
(425,261,o),
(419,250,o),
(419,234,c),
(416,208,o),
(432,188,o),
(461,183,c),
(484,183,o),
(508,180,o),
(531,174,c),
(523,169,o),
(516,163,o),
(511,160,c),
(506,156,o),
(499,152,o),
(490,148,c),
(472,139,o),
(455,134,o),
(442,130,cs),
(428,126,o),
(419,124,o),
(393,121,c),
(379,120,o),
(358,120,o),
(328,121,c),
(322,120,o),
(317,118,o),
(312,115,c),
(303,111,o),
(297,102,o),
(294,91,cs),
(291,80,o),
(297,67,o),
(301,59,c),
(305,51,o),
(314,47,o),
(324,44,c),
(334,40,o),
(343,38,o),
(356,36,cs),
(368,34,o),
(376,32,o),
(387,32,cs),
(392,32,o),
(398,32,o),
(407,32,cs),
(440,32,o),
(477,40,o),
(527,56,cs),
(577,72,o),
(616,89,o),
(650,126,c),
(676,106,o),
(698,93,o),
(714,85,cs),
(747,69,o),
(765,59,o),
(787,54,c),
(799,51,o),
(809,49,o),
(818,47,c),
(827,44,o),
(836,42,o),
(846,41,c),
(855,39,o),
(865,37,o),
(874,36,c),
(892,32,o),
(913,29,o),
(934,28,c),
(978,28,o),
(1004,39,o),
(1005,84,cs),
(1005,99,o),
(998,113,o),
(988,123,cs),
(979,132,o),
(966,136,o),
(951,133,c),
(923,137,o),
(899,142,o),
(877,147,cs),
(834,157,o),
(806,167,o),
(783,176,cs),
(772,180,o),
(763,183,o),
(756,185,cs),
(743,189,o),
(722,197,o),
(695,209,c),
(699,235,o),
(701,262,o),
(701,291,c),
(897,291,l)
);
},
{
closed = 1;
nodes = (
(584,481,l),
(459,481,l),
(456,500,o),
(459,512,o),
(475,515,c),
(584,515,l)
);
}
);
vertWidth = 1024;
width = 1024;
}
);
note = uni4FBF;
unicode = 20415;
},
{
glyphname = uni4FDD;
lastChange = "2023-08-06 13:19:05 +0000";
layers = (
{
layerId = "0A3FE703-33D8-4A7C-9AA9-9C187B3DD6D1";
shapes = (
{
closed = 1;
nodes = (
(275,-28,o),
(283,-26,o),
(290,-23,c),
(303,-16,o),
(320,-2,o),
(320,23,cs),
(320,572,l),
(347,624,o),
(365,665,o),
(373,692,cs),
(381,720,o),
(385,739,o),
(385,748,c),
(384,758,o),
(383,767,o),
(381,775,c),
(376,791,o),
(368,802,o),
(356,812,cs),
(345,821,o),
(324,829,o),
(303,829,cs),
(282,829,o),
(264,824,o),
(252,809,cs),
(246,800,o),
(241,783,o),
(236,756,cs),
(226,700,o),
(203,603,o),
(144,526,cs),
(115,487,o),
(97,464,o),
(94,457,c),
(86,440,o),
(84,420,o),
(96,404,cs),
(109,386,o),
(132,379,o),
(152,383,c),
(172,386,o),
(184,395,o),
(204,413,c),
(204,22,ls),
(204,11,o),
(208,2,o),
(213,-5,cs),
(223,-20,o),
(238,-28,o),
(264,-29,c)
);
},
{
closed = 1;
nodes = (
(645,-25,o),
(656,-22,o),
(664,-17,cs),
(679,-6,o),
(690,2,o),
(691,30,c),
(691,327,l),
(808,327,ls),
(820,327,o),
(829,329,o),
(836,333,cs),
(848,340,o),
(858,359,o),
(859,375,c),
(859,390,o),
(860,403,o),
(854,417,cs),
(848,431,o),
(835,441,o),
(805,442,cs),
(689,442,l),
(688,457,o),
(687,469,o),
(685,478,cs),
(681,497,o),
(673,506,o),
(649,513,c),
(597,513,l),
(587,509,o),
(580,505,o),
(576,500,c),
(568,490,o),
(557,475,o),
(557,442,c),
(437,442,ls),
(426,442,o),
(417,440,o),
(410,435,cs),
(395,425,o),
(386,407,o),
(386,393,cs),
(386,380,o),
(386,369,o),
(395,354,c),
(403,337,o),
(413,327,o),
(440,327,cs),
(565,327,l),
(565,30,l),
(566,17,o),
(569,7,o),
(574,0,c),
(585,-15,o),
(599,-24,o),
(632,-25,cs)
);
},
{
closed = 1;
nodes = (
(847,23,o),
(861,32,o),
(871,43,c),
(879,53,o),
(884,67,o),
(883,83,c),
(882,90,o),
(876,108,o),
(862,134,cs),
(849,161,o),
(839,188,o),
(833,216,cs),
(827,243,o),
(822,261,o),
(817,267,cs),
(806,279,o),
(795,285,o),
(777,285,cs),
(768,285,o),
(758,284,o),
(751,281,cs),
(736,275,o),
(729,265,o),
(722,243,c),
(713,222,o),
(724,164,o),
(743,115,cs),
(762,66,o),
(789,29,o),
(814,24,c)
);
},
{
closed = 1;
nodes = (
(437,29,o),
(451,32,o),
(462,41,cs),
(482,59,o),
(504,101,o),
(513,134,cs),
(520,168,o),
(522,201,o),
(522,217,cs),
(522,233,o),
(520,246,o),
(516,257,c),
(510,268,o),
(501,275,o),
(484,282,cs),
(467,289,o),
(450,288,o),
(435,281,cs),
(420,274,o),
(412,263,o),
(407,252,c),
(402,239,o),
(401,229,o),
(401,206,cs),
(401,182,o),
(397,156,o),
(385,130,cs),
(372,105,o),
(368,80,o),
(372,67,cs),
(376,54,o),
(388,38,o),
(418,30,c)
);
},
{
closed = 1;
nodes = (
(762,519,o),
(791,534,o),
(791,576,cs),
(792,640,o),
(792,704,o),
(791,768,c),
(792,803,o),
(781,825,o),
(735,825,cs),
(501,825,ls),
(470,825,o),
(447,806,o),
(448,773,c),
(447,711,o),
(447,648,o),
(448,586,cs),
(448,554,o),
(477,518,o),
(506,518,cs),
(729,518,ls)
);
},
{
closed = 1;
nodes = (
(566,621,o),
(559,627,o),
(559,639,cs),
(559,708,ls),
(559,719,o),
(566,725,o),
(579,725,cs),
(669,725,l),
(682,726,o),
(688,719,o),
(688,706,cs),
(688,638,ls),
(688,627,o),
(682,621,o),
(671,621,cs),
(578,621,ls)
);
}
);
vertWidth = 1024;
width = 1024;
}
);
note = uni4FDD;
unicode = 20445;
},
{
glyphname = uni5009;
lastChange = "2023-08-06 13:19:05 +0000";
layers = (
{
layerId = "0A3FE703-33D8-4A7C-9AA9-9C187B3DD6D1";
shapes = (
{
closed = 1;
nodes = (
(970,652,o),
(952,655,o),
(939,658,c),
(914,663,o),
(888,666,o),
(864,669,c),
(851,670,o),
(830,673,o),
(803,676,cs),
(746,683,o),
(671,693,o),
(590,705,c),
(580,709,o),
(572,716,o),
(561,724,c),
(549,732,o),
(541,737,o),
(527,737,cs),
(507,737,o),
(496,731,o),
(481,722,cs),
(467,713,o),
(457,706,o),
(445,705,c),
(419,702,o),
(391,698,o),
(359,694,cs),
(294,686,o),
(241,680,o),
(142,670,cs),
(92,665,o),
(56,659,o),
(35,655,c),
(26,654,o),
(20,651,o),
(16,648,cs),
(7,641,o),
(2,629,o),
(2,622,c),
(1,614,o),
(1,604,o),
(4,596,c),
(7,587,o),
(13,577,o),
(27,573,c),
(35,570,o),
(45,569,o),
(60,570,c),
(84,573,o),
(105,577,o),
(124,580,cs),
(144,583,o),
(160,585,o),
(175,587,cs),
(191,589,o),
(205,591,o),
(219,593,cs),
(247,597,o),
(272,600,o),
(316,604,cs),
(338,606,o),
(358,608,o),
(377,611,cs),
(415,615,o),
(462,621,o),
(522,629,c),
(575,623,o),
(619,618,o),
(654,614,cs),
(723,604,o),
(779,595,o),
(841,586,cs),
(872,581,o),
(913,576,o),
(965,569,cs),
(989,565,o),
(1002,569,o),
(1011,577,c),
(1019,585,o),
(1023,593,o),
(1023,609,cs),
(1023,626,o),
(1015,641,o),
(995,648,c)
);
},
{
closed = 1;
nodes = (
(370,592,o),
(363,590,o),
(358,587,c),
(349,579,o),
(347,571,o),
(347,564,cs),
(347,560,o),
(348,555,o),
(350,552,c),
(353,544,o),
(361,537,o),
(377,536,c),
(648,536,l),
(655,537,o),
(660,539,o),
(663,542,c),
(670,548,o),
(672,554,o),
(672,562,cs),
(672,565,o),
(671,569,o),
(670,574,c),
(667,582,o),
(659,589,o),
(638,593,c),
(379,593,l)
);
},
{
closed = 1;
nodes = (
(730,449,o),
(747,442,o),
(752,425,c),
(753,410,l),
(303,410,l),
(304,431,o),
(318,448,o),
(336,448,cs),
(710,448,l)
);
},
{
closed = 1;
nodes = (
(264,329,o),
(274,350,o),
(286,354,c),
(753,354,l),
(756,342,o),
(753,331,o),
(749,324,cs),
(745,317,o),
(736,313,o),
(728,309,c),
(259,309,l)
);
},
{
closed = 1;
nodes = (
(359,219,o),
(349,216,o),
(343,210,c),
(329,197,o),
(324,177,o),
(324,161,cs),
(324,152,o),
(325,143,o),
(326,132,cs),
(328,111,o),
(330,88,o),
(339,62,cs),
(347,35,o),
(359,15,o),
(388,11,c),
(865,11,l),
(889,16,o),
(904,33,o),
(913,55,cs),
(921,75,o),
(925,87,o),
(929,105,cs),
(933,122,o),
(937,142,o),
(938,156,cs),
(939,168,o),
(938,178,o),
(933,193,cs),
(928,209,o),
(915,220,o),
(891,220,cs),
(373,220,l)
);
},
{
closed = 1;
nodes = (
(830,164,o),
(838,158,o),
(843,151,c),
(846,145,o),
(846,140,o),
(845,130,cs),
(844,120,o),
(840,110,o),
(834,97,cs),
(828,85,o),
(817,75,o),
(798,74,c),
(476,74,l),
(451,75,o),
(440,82,o),
(434,91,cs),
(429,100,o),
(426,109,o),
(426,122,c),
(425,135,o),
(425,144,o),
(428,149,cs),
(431,155,o),
(437,160,o),
(450,161,c),
(456,161,o),
(465,161,o),
(476,161,cs),
(817,161,l)
);
},
{
closed = 1;
nodes = (
(259,513,o),
(231,489,o),
(208,461,cs),
(185,431,o),
(169,404,o),
(148,358,cs),
(126,311,o),
(111,274,o),
(99,230,cs),
(87,186,o),
(75,134,o),
(71,101,c),
(68,85,o),
(67,74,o),
(68,67,c),
(69,54,o),
(74,41,o),
(83,33,c),
(91,24,o),
(101,19,o),
(114,19,c),
(126,18,o),
(142,21,o),
(155,30,c),
(167,39,o),
(173,55,o),
(177,67,c),
(178,73,o),
(180,78,o),
(183,83,cs),
(185,88,o),
(187,95,o),
(190,107,c),
(192,117,o),
(195,128,o),
(199,140,cs),
(203,152,o),
(208,169,o),
(215,188,c),
(221,208,o),
(228,227,o),
(238,248,c),
(825,248,l),
(838,251,o),
(848,256,o),
(855,263,cs),
(867,275,o),
(869,288,o),
(870,298,cs),
(871,309,o),
(872,317,o),
(872,322,cs),
(872,325,o),
(872,328,o),
(872,333,c),
(871,338,o),
(871,343,o),
(871,350,cs),
(871,357,o),
(871,362,o),
(870,367,cs),
(869,372,o),
(869,376,o),
(869,381,cs),
(869,386,o),
(868,393,o),
(867,402,c),
(864,422,o),
(858,448,o),
(845,471,cs),
(831,493,o),
(808,510,o),
(775,513,c),
(291,513,ls)
);
}
);
vertWidth = 1024;
width = 1024;
}
);
note = uni5009;
unicode = 20489;
},
{
color = 1;
glyphname = uni5168;
lastChange = "2023-08-10 14:46:30 +0000";
layers = (
{
background = {
shapes = (
{
attr = {
strokeWidth = 0.142;
};
closed = 1;
nodes = (
(29,-3,l),
(995,-3,l),
(995,733,l),
(29,733,l)
);
}
);
};
layerId = "0A3FE703-33D8-4A7C-9AA9-9C187B3DD6D1";
shapes = (
{
closed = 1;
nodes = (
(576,107,l),
(576,183,l),
(737,183,ls),
(763,183,o),
(782,202,o),
(782,228,cs),
(782,255,o),
(762,275,o),
(737,275,cs),
(576,275,l),
(576,349,l),
(722,349,ls),
(783,348,o),
(783,442,o),
(722,441,cs),
(280,441,ls),
(255,441,o),
(235,421,o),
(235,395,cs),
(235,368,o),
(254,349,o),
(280,349,cs),
(447,349,l),
(447,275,l),
(268,275,ls),
(242,275,o),
(222,255,o),
(222,228,cs),
(222,203,o),
(242,183,o),
(268,183,cs),
(447,183,l),
(447,107,l),
(151,107,ls),
(87,108,o),
(87,10,o),
(151,11,cs),
(832,11,ls),
(896,10,o),
(896,108,o),
(832,107,cs)
);
},
{
closed = 1;
nodes = (
(829,541,o),
(639,632,o),
(543,708,cs),
(513,731,o),
(466,731,o),
(437,708,cs),
(351,641,o),
(177,546,o),
(75,511,c),
(53,501,o),
(41,476,o),
(51,452,cs),
(60,428,o),
(84,417,o),
(109,426,cs),
(207,460,o),
(373,547,o),
(456,609,cs),
(473,621,o),
(501,621,o),
(518,609,c),
(583,572,o),
(945,338,o),
(978,451,cs),
(987,478,o),
(973,506,o),
(946,514,c)
);
}
);
width = 1024;
}
);
unicode = 20840;
},
{
color = 1;
glyphname = uni516C;
lastChange = "2023-08-06 17:57:57 +0000";
layers = (
{
background = {
shapes = (
{
attr = {
strokeWidth = 0.142;
};
closed = 1;
nodes = (
(29,-3,l),
(995,-3,l),
(995,733,l),
(29,733,l)
);
}
);
};
layerId = "0A3FE703-33D8-4A7C-9AA9-9C187B3DD6D1";
shapes = (
{
closed = 1;
nodes = (
(781,221,l),
(746,272,o),
(670,238,o),
(686,178,cs),
(695,143,o),
(677,109,o),
(643,109,cs),
(635,109,o),
(367,109,o),
(376,118,c),
(359,126,o),
(351,152,o),
(367,160,c),
(532,401,ls),
(574,462,o),
(480,522,o),
(436,470,c),
(144,91,ls),
(118,57,o),
(144,6,o),
(187,14,c),
(833,14,l),
(876,6,o),
(911,66,o),
(876,100,c)
);
},
{
closed = 1;
nodes = (
(213,367,o),
(514,651,o),
(411,703,c),
(385,720,o),
(351,712,o),
(342,686,c),
(290,600,o),
(169,462,o),
(84,401,c),
(23,350,o),
(109,263,o),
(160,316,cs)
);
},
{
closed = 1;
nodes = (
(893,436,o),
(755,591,o),
(686,686,c),
(670,703,o),
(635,712,o),
(608,695,c),
(514,643,o),
(850,341,o),
(893,290,c),
(945,238,o),
(1031,316,o),
(980,367,c)
);
}
);
width = 1024;
}
);
unicode = 20844;
},
{
glyphname = uni5185;
lastChange = "2023-08-06 13:19:05 +0000";
layers = (
{
layerId = "0A3FE703-33D8-4A7C-9AA9-9C187B3DD6D1";
shapes = (
{
closed = 1;
nodes = (
(839,17,o),
(841,10,o),
(845,4,c),
(853,-9,o),
(863,-14,o),
(869,-16,cs),
(872,-17,o),
(874,-18,o),
(877,-19,c),
(882,-21,o),
(890,-23,o),
(899,-23,c),
(906,-24,o),
(913,-20,o),
(924,-14,cs),
(935,-8,o),
(944,4,o),
(944,24,cs),
(944,544,ls),
(944,572,o),
(939,588,o),
(927,602,cs),
(915,616,o),
(897,626,o),
(869,623,c),
(578,623,l),
(578,770,l),
(577,792,o),
(560,804,o),
(545,810,cs),
(529,816,o),
(525,815,o),
(517,815,cs),
(508,815,o),
(502,816,o),
(489,810,cs),
(477,804,o),
(463,793,o),
(462,768,c),
(462,619,l),
(168,619,ls),
(135,619,o),
(120,614,o),
(108,601,cs),
(96,588,o),
(90,569,o),
(90,542,cs),
(90,24,l),
(89,8,o),
(99,-6,o),
(110,-13,cs),
(121,-20,o),
(129,-23,o),
(141,-23,c),
(152,-24,o),
(162,-21,o),
(175,-13,c),
(189,-6,o),
(201,8,o),
(201,24,cs),
(201,176,l),
(267,196,o),
(301,209,o),
(332,225,cs),
(364,241,o),
(383,250,o),
(401,262,cs),
(418,274,o),
(433,288,o),
(455,309,cs),
(476,330,o),
(494,352,o),
(522,396,c),
(550,354,o),
(570,330,o),
(588,314,cs),
(607,298,o),
(620,287,o),
(639,274,c),
(659,261,o),
(671,253,o),
(687,244,cs),
(703,235,o),
(719,224,o),
(735,217,cs),
(751,210,o),
(773,201,o),
(783,197,cs),
(793,193,o),
(813,185,o),
(840,176,c),
(840,24,l)
);
},
{
closed = 1;
nodes = (
(830,512,o),
(839,502,o),
(840,486,c),
(840,289,l),
(788,306,o),
(760,318,o),
(738,334,c),
(727,341,o),
(718,348,o),
(710,354,c),
(701,359,o),
(692,365,o),
(685,372,c),
(669,385,o),
(655,397,o),
(639,418,cs),
(623,440,o),
(609,468,o),
(597,512,c),
(818,512,ls)
);
},
{
closed = 1;
nodes = (
(200,491,o),
(201,499,o),
(206,504,c),
(210,509,o),
(217,513,o),
(225,512,c),
(438,512,l),
(425,463,o),
(408,435,o),
(388,407,cs),
(369,379,o),
(352,363,o),
(324,344,cs),
(297,324,o),
(263,308,o),
(201,289,c),
(201,478,l)
);
}
);
vertWidth = 1024;
width = 1024;
}
);
note = uni5185;
unicode = 20869;
},
{
color = 4;
glyphname = uni51AC;
lastChange = "2023-08-08 15:07:25 +0000";
layers = (
{
layerId = "0A3FE703-33D8-4A7C-9AA9-9C187B3DD6D1";
shapes = (
{
closed = 1;
nodes = (
(607,443,o),
(619,452,o),
(637,465,c),
(654,477,o),
(668,489,o),
(679,499,c),
(691,508,o),
(701,516,o),
(709,523,cs),
(716,529,o),
(724,538,o),
(733,548,cs),
(750,567,o),
(764,593,o),
(766,614,cs),
(768,634,o),
(763,650,o),
(757,663,cs),
(751,675,o),
(745,681,o),
(736,689,c),
(727,696,o),
(722,699,o),
(708,703,c),
(701,704,o),
(685,706,o),
(662,707,cs),
(639,708,o),
(594,708,o),
(526,707,c),
(540,724,o),
(548,739,o),
(549,751,c),
(552,774,o),
(537,791,o),
(525,800,cs),
(514,809,o),
(502,814,o),
(491,814,cs),
(479,814,o),
(466,812,o),
(455,807,cs),
(444,802,o),
(431,794,o),
(423,785,cs),
(415,777,o),
(410,771,o),
(399,759,cs),
(393,752,o),
(387,746,o),
(381,741,cs),
(369,728,o),
(352,714,o),
(327,694,cs),
(314,682,o),
(304,673,o),
(295,666,c),
(276,650,o),
(269,644,o),
(255,634,c),
(248,629,o),
(242,625,o),
(237,621,c),
(232,616,o),
(227,613,o),
(224,610,cs),
(221,607,o),
(217,603,o),
(213,598,c),
(204,589,o),
(198,572,o),
(195,560,cs),
(192,547,o),
(193,538,o),
(198,526,c),
(202,515,o),
(209,508,o),
(217,503,cs),
(225,498,o),
(233,494,o),
(244,494,c),
(255,493,o),
(264,496,o),
(276,501,c),
(289,505,o),
(305,515,o),
(333,537,c),
(354,507,o),
(380,476,o),
(412,455,c),
(387,440,o),
(364,427,o),
(344,416,cs),
(303,394,o),
(239,363,o),
(201,347,cs),
(163,330,o),
(142,324,o),
(115,317,c),
(102,314,o),
(92,311,o),
(86,310,c),
(72,306,o),
(59,303,o),
(45,295,cs),
(31,287,o),
(25,273,o),
(28,261,cs),
(30,248,o),
(32,239,o),
(40,228,cs),
(48,218,o),
(59,211,o),
(72,205,cs),
(85,199,o),
(96,196,o),
(124,198,cs),
(153,200,o),
(197,209,o),
(255,232,cs),
(313,254,o),
(394,298,o),
(515,368,c),
(563,328,o),
(594,308,o),
(623,291,cs),
(653,273,o),
(676,259,o),
(705,247,cs),
(732,235,o),
(760,225,o),
(785,218,cs),
(810,211,o),
(835,206,o),
(856,203,c),
(876,199,o),
(891,197,o),
(915,194,c),
(938,190,o),
(950,191,o),
(959,194,cs),
(968,197,o),
(976,203,o),
(981,212,c),
(986,220,o),
(989,231,o),
(990,240,c),
(990,249,o),
(989,259,o),
(984,270,cs),
(979,282,o),
(970,291,o),
(959,297,cs),
(948,303,o),
(933,306,o),
(915,307,c),
(906,308,o),
(896,309,o),
(885,311,c),
(864,314,o),
(832,320,o),
(809,328,c),
(784,336,o),
(765,343,o),
(746,352,c),
(726,360,o),
(705,370,o),
(685,381,cs),
(676,387,o),
(667,392,o),
(660,396,c),
(644,404,o),
(623,419,o),
(599,437,c)
);
},
{
closed = 1;
nodes = (
(500,525,o),
(490,537,o),
(469,558,cs),
(449,579,o),
(437,593,o),
(428,605,c),
(435,610,o),
(441,615,o),
(448,620,c),
(479,621,o),
(503,621,o),
(520,621,c),
(538,620,o),
(550,619,o),
(558,617,cs),
(565,615,o),
(571,612,o),
(574,609,cs),
(581,602,o),
(582,593,o),
(582,584,cs),
(582,580,o),
(581,576,o),
(578,573,c),
(573,566,o),
(567,560,o),
(558,552,c),
(549,543,o),
(533,530,o),
(512,513,c)
);
},
{
closed = 1;
nodes = (
(367,237,o),
(356,223,o),
(351,208,cs),
(346,192,o),
(348,181,o),
(353,165,c),
(357,150,o),
(368,140,o),
(385,136,c),
(626,136,l),
(644,139,o),
(652,149,o),
(657,161,c),
(661,173,o),
(664,181,o),
(664,190,cs),
(664,198,o),
(661,206,o),
(654,218,c),
(647,229,o),
(635,238,o),
(620,241,c),
(387,241,l)
);
},
{
closed = 1;
nodes = (
(326,68,o),
(317,58,o),
(313,47,c),
(308,35,o),
(308,30,o),
(308,21,cs),
(308,12,o),
(308,7,o),
(313,-3,c),
(317,-13,o),
(326,-24,o),
(346,-28,c),
(662,-28,l),
(679,-22,o),
(690,-12,o),
(694,-2,cs),
(698,8,o),
(700,12,o),
(700,21,cs),
(700,30,o),
(699,35,o),
(692,47,c),
(684,58,o),
(670,68,o),
(657,69,c),
(350,69,l)
);
}
);
vertWidth = 1024;
width = 1024;
}
);
note = uni51AC;
unicode = 20908;
},
{
color = 5;
glyphname = uni5206;
lastChange = "2023-08-08 14:54:03 +0000";
layers = (
{
layerId = "0A3FE703-33D8-4A7C-9AA9-9C187B3DD6D1";
shapes = (
{
closed = 1;
nodes = (
(608,-27,o),
(620,-26,o),
(629,-25,c),
(647,-22,o),
(662,-8,o),
(677,19,cs),
(693,47,o),
(703,106,o),
(712,169,cs),
(721,232,o),
(725,286,o),
(725,346,cs),
(725,375,o),
(725,399,o),
(725,417,cs),
(725,432,o),
(722,445,o),
(716,455,cs),
(704,474,o),
(684,483,o),
(665,484,c),
(359,484,ls),
(350,484,o),
(342,482,o),
(335,478,c),
(323,469,o),
(315,460,o),
(312,448,c),
(308,435,o),
(312,421,o),
(317,411,c),
(321,401,o),
(332,389,o),
(354,386,c),
(413,386,l),
(384,263,o),
(338,145,o),
(302,88,cs),
(283,59,o),
(273,40,o),
(271,29,c),
(266,8,o),
(276,-4,o),
(286,-13,c),
(294,-23,o),
(308,-26,o),
(320,-26,cs),
(325,-26,o),
(332,-24,o),
(342,-19,cs),
(351,-13,o),
(365,7,o),
(387,44,cs),
(427,116,o),
(468,223,o),
(517,386,c),
(607,386,ls),
(618,386,o),
(625,378,o),
(626,362,c),
(625,320,o),
(623,285,o),
(620,258,cs),
(614,201,o),
(605,142,o),
(598,116,cs),
(591,91,o),
(584,92,o),
(567,99,c),
(558,102,o),
(552,104,o),
(547,104,cs),
(536,104,o),
(524,102,o),
(517,93,c),
(509,83,o),
(507,71,o),
(513,55,cs),
(519,39,o),
(537,17,o),
(551,5,c),
(563,-8,o),
(569,-17,o),
(593,-26,c)
);
},
{
closed = 1;
nodes = (
(838,364,o),
(852,361,o),
(861,364,c),
(880,369,o),
(890,376,o),
(895,395,c),
(898,413,o),
(892,426,o),
(877,443,cs),
(833,486,o),
(790,530,o),
(749,572,cs),
(706,614,o),
(646,685,o),
(567,787,c),
(547,820,o),
(520,823,o),
(504,821,cs),
(486,819,o),
(472,812,o),
(452,783,c),
(422,746,o),
(392,708,o),
(360,670,cs),
(296,596,o),
(257,547,o),
(143,444,c),
(136,434,o),
(132,426,o),
(131,418,c),
(130,401,o),
(135,392,o),
(141,380,cs),
(147,369,o),
(161,364,o),
(173,364,c),
(185,363,o),
(197,365,o),
(210,377,cs),
(333,493,o),
(389,547,o),
(508,680,c),
(512,685,o),
(517,686,o),
(522,681,c),
(582,614,o),
(625,566,o),
(653,536,cs),
(707,478,o),
(744,440,o),
(822,372,c)
);
}
);
vertWidth = 1024;
width = 1024;
}
);
note = uni5206;
unicode = 20998;
},
{
glyphname = uni5225;
lastChange = "2023-08-06 13:19:05 +0000";
layers = (
{
layerId = "0A3FE703-33D8-4A7C-9AA9-9C187B3DD6D1";
shapes = (
{
closed = 1;
nodes = (
(927,-59,o),
(947,-54,o),
(958,-45,c),
(979,-25,o),
(994,-12,o),
(994,16,cs),
(994,789,ls),
(994,810,o),
(985,829,o),
(969,838,cs),
(952,847,o),
(927,848,o),
(911,840,cs),
(895,832,o),
(884,814,o),
(884,791,cs),
(883,116,l),
(879,99,o),
(872,93,o),
(863,97,c),
(853,100,o),
(838,107,o),
(817,117,cs),
(797,126,o),
(781,132,o),
(771,133,c),
(750,136,o),
(740,130,o),
(729,119,cs),
(719,107,o),
(717,88,o),
(724,74,c),
(727,67,o),
(745,49,o),
(776,23,cs),
(808,-5,o),
(826,-21,o),
(832,-26,c),
(845,-37,o),
(855,-52,o),
(900,-59,c)
);
},
{
closed = 1;
nodes = (
(379,-37,o),
(393,-34,o),
(408,-25,cs),
(423,-16,o),
(442,0,o),
(463,25,cs),
(504,74,o),
(540,164,o),
(553,225,cs),
(565,285,o),
(565,322,o),
(565,351,cs),
(565,366,o),
(565,377,o),
(565,386,cs),
(565,402,o),
(553,430,o),
(513,430,cs),
(332,430,l),
(332,491,l),
(331,502,o),
(326,511,o),
(319,518,c),
(491,518,ls),
(526,518,o),
(551,540,o),
(551,578,cs),
(551,756,ls),
(551,788,o),
(532,813,o),
(498,813,cs),
(157,813,ls),
(116,813,o),
(98,783,o),
(98,749,cs),
(98,564,l),
(99,536,o),
(118,518,o),
(164,518,cs),
(233,518,l),
(224,508,o),
(220,496,o),
(220,483,cs),
(220,433,l),
(95,433,ls),
(82,433,o),
(71,429,o),
(63,420,cs),
(47,401,o),
(48,384,o),
(51,369,cs),
(54,353,o),
(68,334,o),
(98,334,cs),
(199,334,l),
(190,304,o),
(178,280,o),
(161,260,cs),
(129,222,o),
(99,187,o),
(63,174,cs),
(45,167,o),
(33,158,o),
(26,149,cs),
(11,130,o),
(13,111,o),
(24,95,cs),
(34,80,o),
(60,69,o),
(84,69,cs),
(95,69,o),
(108,71,o),
(122,75,cs),
(150,82,o),
(182,101,o),
(220,146,cs),
(259,191,o),
(289,236,o),
(317,334,c),
(421,334,ls),
(435,334,o),
(443,330,o),
(446,321,c),
(450,302,o),
(437,222,o),
(418,181,cs),
(400,140,o),
(383,108,o),
(369,93,cs),
(356,78,o),
(339,82,o),
(315,94,c),
(304,99,o),
(293,104,o),
(282,109,c),
(259,119,o),
(240,116,o),
(232,102,c),
(222,89,o),
(221,76,o),
(231,62,c),
(236,54,o),
(248,43,o),
(267,28,cs),
(287,13,o),
(319,-9,o),
(367,-36,c)
);
},
{
closed = 1;
nodes = (
(739,199,o),
(755,215,o),
(755,242,cs),
(755,730,l),
(754,745,o),
(751,756,o),
(744,762,c),
(730,775,o),
(714,779,o),
(701,779,cs),
(694,779,o),
(687,777,o),
(677,774,c),
(659,766,o),
(649,755,o),
(649,727,cs),
(649,241,ls),
(649,216,o),
(666,199,o),
(703,198,c)
);
},
{
closed = 1;
nodes = (
(215,611,o),
(208,619,o),
(207,634,c),
(207,698,ls),
(207,713,o),
(214,722,o),
(230,722,cs),
(408,722,ls),
(425,722,o),
(435,713,o),
(435,696,cs),
(435,631,ls),
(435,618,o),
(427,611,o),
(414,611,cs),
(229,611,ls)
);
}
);
vertWidth = 1024;
width = 1024;
}
);
note = uni5225;
unicode = 21029;
},
{
glyphname = uni5236;
lastChange = "2023-08-06 13:19:05 +0000";
layers = (
{
layerId = "0A3FE703-33D8-4A7C-9AA9-9C187B3DD6D1";
shapes = (
{
closed = 1;
nodes = (
(937,784,o),
(929,798,o),
(921,806,c),
(912,813,o),
(907,814,o),
(897,815,c),
(886,815,o),
(880,814,o),
(869,807,c),
(857,800,o),
(850,788,o),
(850,764,cs),
(850,115,ls),
(850,99,o),
(844,94,o),
(836,92,cs),
(829,90,o),
(822,92,o),
(813,95,cs),
(804,98,o),
(799,99,o),
(793,99,cs),
(786,99,o),
(780,96,o),
(779,88,cs),
(778,80,o),
(779,66,o),
(784,53,cs),
(790,40,o),
(800,27,o),
(810,16,cs),
(820,5,o),
(831,-3,o),
(844,-7,c),
(856,-12,o),
(866,-16,o),
(877,-16,cs),
(882,-16,o),
(887,-16,o),
(892,-15,c),
(900,-14,o),
(908,-11,o),
(913,-7,c),
(915,-6,o),
(918,-4,o),
(923,-1,cs),
(931,4,o),
(939,12,o),
(939,33,cs),
(942,765,l)
);
},
{
closed = 1;
nodes = (
(232,697,o),
(234,709,o),
(235,717,c),
(235,732,o),
(234,741,o),
(229,746,cs),
(225,751,o),
(221,758,o),
(214,759,c),
(211,760,o),
(207,761,o),
(204,762,c),
(200,763,o),
(196,764,o),
(193,764,cs),
(189,764,o),
(185,764,o),
(181,763,cs),
(172,761,o),
(165,757,o),
(161,749,cs),
(157,741,o),
(152,731,o),
(148,719,c),
(143,707,o),
(142,706,o),
(139,700,c),
(137,697,o),
(136,693,o),
(135,687,cs),
(133,678,o),
(130,670,o),
(122,659,cs),
(115,648,o),
(105,630,o),
(99,621,cs),
(93,612,o),
(87,602,o),
(83,594,c),
(79,584,o),
(76,577,o),
(76,573,cs),
(76,568,o),
(80,563,o),
(83,560,cs),
(86,557,o),
(90,555,o),
(96,555,c),
(102,554,o),
(111,554,o),
(119,558,c),
(127,561,o),
(138,566,o),
(148,574,c),
(158,581,o),
(175,595,o),
(194,619,cs),
(203,631,o),
(213,652,o),
(226,679,c)
);
},
{
closed = 1;
nodes = (
(225,686,ls),
(217,686,o),
(210,679,o),
(205,668,cs),
(200,657,o),
(197,646,o),
(197,636,cs),
(197,627,o),
(197,616,o),
(202,607,c),
(206,598,o),
(213,591,o),
(233,591,cs),
(289,591,l),
(289,530,l),
(164,530,l),
(144,531,o),
(130,519,o),
(124,507,cs),
(119,495,o),
(118,489,o),
(119,478,cs),
(120,468,o),
(120,462,o),
(127,454,cs),
(135,446,o),
(146,440,o),
(165,437,c),
(289,437,l),
(289,362,l),
(168,362,l),
(132,359,o),
(96,335,o),
(95,294,cs),
(95,135,ls),
(95,121,o),
(105,104,o),
(115,95,cs),
(125,86,o),
(133,84,o),
(142,82,cs),
(151,80,o),
(157,82,o),
(169,88,cs),
(182,94,o),
(195,106,o),
(198,131,c),
(198,220,l),
(201,248,o),
(222,266,o),
(248,266,cs),
(292,266,l),
(292,17,l),
(291,-6,o),
(301,-15,o),
(314,-20,cs),
(326,-26,o),
(330,-28,o),
(343,-28,cs),
(354,-28,o),
(358,-26,o),
(370,-21,cs),
(383,-17,o),
(396,-7,o),
(396,17,cs),
(396,266,l),
(445,266,l),
(469,269,o),
(489,254,o),
(492,224,c),
(492,131,l),
(491,113,o),
(500,101,o),
(511,94,cs),
(522,87,o),
(529,84,o),
(538,84,c),
(545,83,o),
(553,85,o),
(567,92,cs),
(581,99,o),
(593,110,o),
(593,131,cs),
(593,294,l),
(586,338,o),
(557,359,o),
(512,362,c),
(396,362,l),
(396,437,l),
(509,437,l),
(528,438,o),
(541,450,o),
(546,462,cs),
(551,473,o),
(552,478,o),
(552,488,c),
(551,496,o),
(549,504,o),
(543,513,cs),
(537,522,o),
(525,529,o),
(505,530,c),
(396,530,l),
(396,591,l),
(458,591,l),
(478,596,o),
(490,604,o),
(496,614,cs),
(502,624,o),
(504,631,o),
(504,641,cs),
(504,649,o),
(501,659,o),
(494,669,c),
(486,679,o),
(474,685,o),
(457,686,c),
(392,686,l),
(392,755,l),
(389,778,o),
(377,794,o),
(366,802,c),
(354,809,o),
(350,810,o),
(340,810,cs),
(329,810,o),
(324,810,o),
(312,803,c),
(300,795,o),
(289,779,o),
(289,756,cs),
(289,686,l)
);
},
{
closed = 1;
nodes = (
(741,647,o),
(730,659,o),
(719,665,c),
(707,671,o),
(699,672,o),
(692,672,cs),
(683,672,o),
(676,672,o),
(664,665,cs),
(651,658,o),
(641,648,o),
(640,623,c),
(640,348,l),
(641,331,o),
(651,319,o),
(661,314,cs),
(671,309,o),
(679,306,o),
(691,306,cs),
(702,306,o),
(708,309,o),
(720,316,c),
(731,323,o),
(741,331,o),
(742,348,c),
(742,625,l)
);
}
);
vertWidth = 1024;
width = 1024;
}
);
note = uni5236;
unicode = 21046;
},
{
glyphname = uni52E4;
lastChange = "2023-08-06 13:19:05 +0000";
layers = (
{
layerId = "0A3FE703-33D8-4A7C-9AA9-9C187B3DD6D1";
shapes = (
{
closed = 1;
nodes = (
(301,-22,o),
(308,-21,o),
(324,-13,cs),
(340,-5,o),
(345,5,o),
(352,31,c),
(352,284,l),
(377,307,o),
(398,324,o),
(412,336,cs),
(426,347,o),
(442,361,o),
(459,377,cs),
(492,410,o),
(519,447,o),
(521,473,cs),
(523,500,o),
(516,519,o),
(483,522,c),
(380,522,l),
(369,534,o),
(361,545,o),
(354,555,c),
(380,573,o),
(401,588,o),
(414,597,cs),
(441,615,o),
(451,627,o),
(468,645,cs),
(484,662,o),
(490,678,o),
(492,693,cs),
(493,707,o),
(493,723,o),
(485,736,c),
(477,748,o),
(459,764,o),
(444,765,c),
(129,765,l),
(104,764,o),
(93,758,o),
(86,742,cs),
(77,724,o),
(78,707,o),
(88,695,c),
(97,681,o),
(110,677,o),
(133,674,c),
(364,674,ls),
(377,674,o),
(382,667,o),
(374,654,c),
(319,615,l),
(306,628,o),
(297,637,o),
(292,639,cs),
(281,643,o),
(266,646,o),
(256,639,c),
(246,630,o),
(235,621,o),
(243,593,cs),
(246,578,o),
(254,555,o),
(266,522,c),
(54,522,l),
(43,521,o),
(32,519,o),
(25,514,c),
(10,505,o),
(4,487,o),
(8,467,cs),
(12,447,o),
(26,434,o),
(52,433,c),
(247,433,l),
(188,353,o),
(143,297,o),
(111,264,cs),
(79,231,o),
(58,207,o),
(45,194,cs),
(31,181,o),
(22,170,o),
(16,165,c),
(4,154,o),
(4,140,o),
(9,128,cs),
(14,114,o),
(30,112,o),
(45,114,cs),
(52,115,o),
(63,120,o),
(79,132,cs),
(95,143,o),
(115,158,o),
(140,178,cs),
(163,197,o),
(201,231,o),
(252,278,c),
(252,98,l),
(253,85,o),
(250,78,o),
(243,79,c),
(209,94,o),
(189,102,o),
(180,102,cs),
(163,102,o),
(150,86,o),
(154,68,cs),
(158,51,o),
(187,32,o),
(212,13,cs),
(236,-5,o),
(250,-18,o),
(277,-23,c)
);
},
{
closed = 1;
nodes = (
(758,-19,o),
(768,-17,o),
(775,-14,cs),
(782,-11,o),
(798,9,o),
(821,47,cs),
(866,121,o),
(885,223,o),
(887,251,cs),
(888,264,o),
(887,274,o),
(885,282,c),
(880,295,o),
(864,312,o),
(839,313,c),
(714,313,l),
(717,326,o),
(718,338,o),
(718,346,c),
(717,361,o),
(706,368,o),
(689,375,cs),
(673,383,o),
(652,382,o),
(637,372,cs),
(623,363,o),
(611,349,o),
(606,336,c),
(603,329,o),
(600,321,o),
(595,313,c),
(481,313,l),
(471,312,o),
(462,310,o),
(454,306,cs),
(436,297,o),
(431,274,o),
(435,257,c),
(438,240,o),
(457,224,o),
(477,224,cs),
(549,224,l),
(515,176,o),
(490,142,o),
(474,123,cs),
(441,87,o),
(428,74,o),
(417,55,c),
(405,37,o),
(413,16,o),
(426,9,c),
(439,1,o),
(457,5,o),
(474,21,c),
(482,29,o),
(497,43,o),
(518,63,cs),
(539,83,o),
(557,99,o),
(570,111,cs),
(597,136,o),
(616,160,o),
(668,224,c),
(775,224,ls),
(785,224,o),
(789,219,o),
(788,208,c),
(779,163,o),
(770,131,o),
(761,111,cs),
(740,71,o),
(733,75,o),
(714,87,cs),
(695,99,o),
(677,111,o),
(660,108,c),
(642,104,o),
(634,92,o),
(634,77,cs),
(634,60,o),
(640,51,o),
(668,29,cs),
(681,17,o),
(708,1,o),
(747,-19,c)
);
},
{
closed = 1;
nodes = (
(975,288,o),
(986,288,o),
(995,291,c),
(1012,297,o),
(1023,309,o),
(1026,331,cs),
(1029,352,o),
(1023,363,o),
(1006,375,c),
(996,381,o),
(973,390,o),
(935,401,cs),
(896,412,o),
(838,441,o),
(760,487,c),
(785,514,o),
(802,533,o),
(809,542,cs),
(824,560,o),
(835,571,o),
(835,615,c),
(936,615,ls),
(964,615,o),
(980,635,o),
(981,661,c),
(981,688,o),
(965,710,o),
(939,711,c),
(681,711,l),
(696,737,o),
(703,754,o),
(704,764,c),
(704,783,o),
(688,802,o),
(668,807,cs),
(648,812,o),
(630,809,o),
(620,798,c),
(615,792,o),
(604,772,o),
(588,739,cs),
(573,705,o),
(552,673,o),
(524,646,cs),
(497,617,o),
(482,600,o),
(479,595,c),
(476,589,o),
(475,583,o),
(476,577,c),
(479,565,o),
(488,556,o),
(514,562,cs),
(539,568,o),
(558,586,o),
(595,615,c),
(735,615,l),
(736,610,o),
(735,604,o),
(732,598,cs),
(726,586,o),
(716,568,o),
(686,543,c),
(665,555,o),
(651,564,o),
(644,570,c),
(635,575,o),
(625,579,o),
(614,580,cs),
(590,583,o),
(580,568,o),
(585,540,cs),
(588,525,o),
(602,506,o),
(626,483,c),
(577,441,o),
(547,419,o),
(513,401,cs),
(479,383,o),
(471,369,o),
(476,352,cs),
(481,335,o),
(496,331,o),
(520,339,c),
(532,342,o),
(550,350,o),
(573,363,cs),
(596,376,o),
(633,398,o),
(686,428,c),
(771,366,o),
(862,320,o),
(960,291,c)
);
},
{
closed = 1;
nodes = (
(378,402,o),
(365,392,o),
(352,383,c),
(352,433,l),
(390,433,l),
(396,430,o),
(396,424,o),
(390,415,c)
);
}
);
vertWidth = 1024;
width = 1024;
}
);
note = uni52E4;
unicode = 21220;
},
{
color = 5;
glyphname = uni5343;
lastChange = "2023-08-08 14:54:03 +0000";
layers = (
{
layerId = "0A3FE703-33D8-4A7C-9AA9-9C187B3DD6D1";
shapes = (
{
closed = 1;
nodes = (
(700,697,o),
(710,709,o),
(715,724,c),
(719,740,o),
(720,748,o),
(717,760,cs),
(714,772,o),
(709,783,o),
(697,793,c),
(683,803,o),
(661,808,o),
(648,801,c),
(630,796,o),
(610,789,o),
(586,782,c),
(541,765,o),
(534,763,o),
(504,752,cs),
(473,740,o),
(439,730,o),
(402,718,cs),
(383,712,o),
(350,701,o),
(300,684,c),
(287,680,o),
(280,673,o),
(277,666,c),
(273,659,o),
(272,651,o),
(272,645,cs),
(272,639,o),
(274,635,o),
(280,626,cs),
(287,618,o),
(295,611,o),
(308,612,c),
(357,622,o),
(406,633,o),
(454,643,c),
(454,489,l),
(203,489,l),
(182,490,o),
(170,482,o),
(164,470,c),
(158,458,o),
(156,449,o),
(156,440,cs),
(156,431,o),
(157,421,o),
(164,412,cs),
(171,403,o),
(183,393,o),
(203,390,c),
(454,390,l),
(454,23,l),
(455,3,o),
(467,-11,o),
(479,-18,c),
(491,-25,o),
(498,-26,o),
(507,-26,cs),
(515,-26,o),
(521,-24,o),
(533,-18,cs),
(546,-12,o),
(561,2,o),
(561,23,cs),
(561,390,l),
(827,390,l),
(845,393,o),
(857,402,o),
(863,410,cs),
(869,418,o),
(871,427,o),
(871,439,cs),
(871,450,o),
(869,459,o),
(861,468,cs),
(853,478,o),
(839,488,o),
(827,489,c),
(561,489,l),
(561,663,l),
(601,671,o),
(642,681,o),
(682,690,c)
);
}
);
vertWidth = 1024;
width = 1024;
}
);
note = uni5343;
unicode = 21315;
},
{
glyphname = uni534A;
lastChange = "2023-08-06 13:19:05 +0000";
layers = (
{
layerId = "0A3FE703-33D8-4A7C-9AA9-9C187B3DD6D1";
shapes = (
{
closed = 1;
nodes = (
(221,723,o),
(250,699,o),
(275,679,c),
(289,670,o),
(298,663,o),
(303,659,cs),
(308,655,o),
(312,651,o),
(316,648,c),
(324,641,o),
(330,635,o),
(342,631,c),
(353,626,o),
(362,621,o),
(371,623,cs),
(379,625,o),
(386,629,o),
(391,634,cs),
(395,640,o),
(397,646,o),
(394,658,cs),
(391,669,o),
(385,682,o),
(377,696,c),
(372,702,o),
(369,707,o),
(367,711,c),
(365,714,o),
(363,717,o),
(361,720,c),
(356,724,o),
(347,738,o),
(343,746,c),
(341,749,o),
(339,753,o),
(336,756,cs),
(331,763,o),
(324,774,o),
(321,780,c),
(319,783,o),
(316,786,o),
(313,791,c),
(306,798,o),
(298,804,o),
(290,808,cs),
(281,812,o),
(270,812,o),
(261,812,c),
(252,811,o),
(244,808,o),
(236,800,cs),
(226,791,o),
(219,775,o),
(220,752,cs)
);
},
{
closed = 1;
nodes = (
(763,801,o),
(745,806,o),
(729,803,cs),
(714,800,o),
(702,793,o),
(696,785,c),
(689,777,o),
(686,773,o),
(684,769,c),
(682,764,o),
(679,758,o),
(675,750,c),
(671,741,o),
(665,728,o),
(659,720,cs),
(656,716,o),
(653,713,o),
(652,711,c),
(648,706,o),
(645,701,o),
(642,695,c),
(640,692,o),
(638,687,o),
(635,682,cs),
(630,673,o),
(626,659,o),
(626,651,cs),
(626,642,o),
(631,634,o),
(640,631,cs),
(650,628,o),
(663,629,o),
(674,634,c),
(685,639,o),
(694,646,o),
(706,655,c),
(712,659,o),
(716,662,o),
(719,664,c),
(721,665,o),
(724,668,o),
(728,671,c),
(735,678,o),
(740,683,o),
(749,689,cs),
(757,694,o),
(764,701,o),
(773,710,cs),
(781,718,o),
(784,724,o),
(787,732,c),
(790,740,o),
(790,748,o),
(790,759,c),
(789,770,o),
(785,780,o),
(776,788,cs)
);
},
{
closed = 1;
nodes = (
(449,5,o),
(463,-8,o),
(477,-16,cs),
(492,-25,o),
(501,-27,o),
(510,-27,cs),
(519,-27,o),
(528,-25,o),
(545,-16,c),
(561,-9,o),
(578,3,o),
(578,24,cs),
(578,265,l),
(856,265,l),
(877,269,o),
(886,283,o),
(891,297,c),
(896,311,o),
(897,316,o),
(897,325,c),
(896,334,o),
(892,342,o),
(887,352,cs),
(882,362,o),
(873,370,o),
(853,373,c),
(578,373,l),
(578,474,l),
(779,474,l),
(797,477,o),
(806,490,o),
(810,502,cs),
(814,514,o),
(814,518,o),
(814,526,cs),
(814,534,o),
(813,541,o),
(808,552,cs),
(803,563,o),
(792,576,o),
(776,577,c),
(578,577,l),
(578,763,l),
(577,783,o),
(561,799,o),
(547,807,c),
(532,814,o),
(521,815,o),
(509,815,c),
(497,814,o),
(490,813,o),
(475,806,cs),
(461,799,o),
(449,785,o),
(448,760,c),
(448,577,l),
(257,577,ls),
(248,577,o),
(240,575,o),
(234,570,c),
(222,561,o),
(218,547,o),
(218,540,cs),
(218,537,o),
(218,532,o),
(219,527,c),
(219,518,o),
(219,512,o),
(223,500,cs),
(227,488,o),
(238,474,o),
(253,474,cs),
(448,474,l),
(448,372,l),
(174,372,l),
(159,371,o),
(148,357,o),
(141,345,cs),
(133,331,o),
(132,324,o),
(132,317,cs),
(132,309,o),
(135,301,o),
(140,290,cs),
(145,277,o),
(156,266,o),
(173,262,c),
(448,262,l),
(448,22,l)
);
}
);
vertWidth = 1024;
width = 1024;
}
);
note = uni534A;
unicode = 21322;
},
{
glyphname = uni53D6;
lastChange = "2023-08-06 13:19:05 +0000";
layers = (
{
layerId = "0A3FE703-33D8-4A7C-9AA9-9C187B3DD6D1";
shapes = (
{
closed = 1;
nodes = (
(358,46,o),
(363,35,o),
(372,28,c),
(391,12,o),
(415,6,o),
(434,6,cs),
(444,6,o),
(455,7,o),
(467,11,c),
(491,15,o),
(508,38,o),
(509,59,c),
(509,219,l),
(530,230,o),
(541,249,o),
(541,266,c),
(540,282,o),
(532,298,o),
(509,305,c),
(509,612,l),
(973,612,l),
(986,613,o),
(998,616,o),
(1007,624,c),
(1025,636,o),
(1031,672,o),
(1027,698,c),
(1022,725,o),
(1007,741,o),
(970,746,c),
(78,746,l),
(47,746,l),
(11,742,o),
(5,724,o),
(0,710,cs),
(-5,697,o),
(-8,669,o),
(1,650,c),
(9,630,o),
(16,622,o),
(36,614,c),
(62,612,l),
(62,152,l),
(13,129,l),
(1,120,o),
(-6,101,o),
(-6,81,cs),
(-6,59,o),
(5,42,o),
(18,31,c),
(32,19,o),
(56,11,o),
(82,16,c),
(357,141,l),
(357,59,l)
);
},
{
closed = 1;
nodes = (
(977,42,o),
(991,51,o),
(1007,66,cs),
(1022,80,o),
(1028,92,o),
(1028,117,cs),
(1028,128,o),
(1025,138,o),
(1018,147,cs),
(1005,164,o),
(977,186,o),
(929,207,cs),
(906,218,o),
(876,231,o),
(842,248,c),
(874,283,l),
(898,312,o),
(913,336,o),
(922,353,cs),
(939,387,o),
(947,432,o),
(947,457,cs),
(947,482,o),
(943,506,o),
(926,524,cs),
(910,541,o),
(894,558,o),
(842,562,c),
(568,562,l),
(539,557,o),
(525,545,o),
(521,522,cs),
(517,498,o),
(518,478,o),
(525,461,cs),
(532,444,o),
(546,433,o),
(571,432,c),
(763,432,l),
(782,425,o),
(788,412,o),
(780,396,cs),
(771,379,o),
(754,357,o),
(728,332,c),
(686,352,o),
(658,368,o),
(642,379,c),
(624,389,o),
(610,396,o),
(597,400,c),
(570,407,o),
(546,408,o),
(534,402,c),
(522,396,o),
(516,384,o),
(516,367,cs),
(516,357,o),
(518,350,o),
(521,343,c),
(528,329,o),
(543,321,o),
(560,321,c),
(569,320,o),
(577,319,o),
(585,316,cs),
(601,309,o),
(613,299,o),
(627,285,cs),
(634,278,o),
(644,269,o),
(656,258,c),
(633,232,o),
(611,210,o),
(590,194,cs),
(568,178,o),
(552,165,o),
(542,153,cs),
(521,132,o),
(521,102,o),
(534,87,cs),
(548,71,o),
(568,63,o),
(605,76,cs),
(641,89,o),
(665,106,o),
(744,158,c),
(777,135,o),
(803,117,o),
(820,104,cs),
(854,79,o),
(898,54,o),
(941,43,c)
);
},
{
closed = 1;
nodes = (
(200,295,l),
(357,295,l),
(357,265,l),
(200,206,l)
);
},
{
closed = 1;
nodes = (
(200,453,l),
(357,453,l),
(357,381,l),
(200,381,l)
);
},
{
closed = 1;
nodes = (
(200,534,l),
(200,612,l),
(357,612,l),
(357,534,l)
);
}
);
vertWidth = 1024;
width = 1024;
}
);
note = uni53D6;
unicode = 21462;
},
{
color = 4;
glyphname = uni53F0;
lastChange = "2023-08-08 15:37:02 +0000";
layers = (
{
layerId = "0A3FE703-33D8-4A7C-9AA9-9C187B3DD6D1";
shapes = (
{
closed = 1;
nodes = (
(151,77,ls),
(156,34,o),
(192,2,o),
(237,2,cs),
(796,2,ls),
(841,2,o),
(877,34,o),
(881,77,c),
(909,268,l),
(909,279,ls),
(909,326,o),
(870,364,o),
(823,364,cs),
(210,364,ls),
(163,364,o),
(125,326,o),
(125,279,cs),
(125,268,l)
);
},
{
closed = 1;
nodes = (
(50,457,o),
(68,439,o),
(88,439,cs),
(874,439,l),
(892,414,ls),
(902,401,o),
(917,392,o),
(933,392,cs),
(960,392,o),
(982,414,o),
(982,441,cs),
(982,455,o),
(978,466,o),
(972,472,cs),
(832,635,ls),
(825,644,o),
(814,648,o),
(802,648,cs),
(780,648,o),
(764,630,o),
(764,610,cs),
(764,601,o),
(766,592,o),
(771,588,c),
(809,532,l),
(264,532,l),
(543,710,ls),
(557,718,o),
(566,732,o),
(566,748,cs),
(566,773,o),
(545,793,o),
(520,793,cs),
(512,793,o),
(503,791,o),
(497,786,c),
(68,514,l),
(57,504,o),
(50,493,o),
(50,479,cs)
);
},
{
closed = 1;
nodes = (
(286,92,ls),
(261,92,o),
(241,110,o),
(237,135,cs),
(223,218,l),
(223,225,ls),
(223,253,o),
(246,273,o),
(273,273,cs),
(759,273,ls),
(786,273,o),
(809,253,o),
(809,225,cs),
(809,218,l),
(796,135,ls),
(791,110,o),
(771,92,o),
(746,92,cs)
);
}
);
vertWidth = 1024;
width = 1024;
},
{
associatedMasterId = "0A3FE703-33D8-4A7C-9AA9-9C187B3DD6D1";
layerId = "43A9E7C0-4EA9-4471-BF1E-54B111B23533";
name = "23年8月8日 23:36";
shapes = (
{
closed = 1;
nodes = (
(61,525,o),
(30,497,o),
(29,477,c),
(29,460,o),
(46,445,o),
(66,438,c),
(867,438,l),
(870,436,o),
(875,432,o),
(882,426,c),
(888,419,o),
(893,414,o),
(898,410,c),
(906,403,o),
(915,396,o),
(930,395,c),
(962,390,o),
(990,409,o),
(998,439,c),
(998,467,l),
(992,480,o),
(983,492,o),
(974,504,c),
(965,516,o),
(955,525,o),
(947,533,c),
(941,537,o),
(936,542,o),
(929,549,c),
(922,555,o),
(917,560,o),
(913,564,c),
(908,568,o),
(904,572,o),
(900,577,c),
(895,581,o),
(890,585,o),
(886,590,c),
(881,594,o),
(876,600,o),
(869,607,cs),
(862,614,o),
(857,621,o),
(852,625,cs),
(842,632,o),
(829,637,o),
(817,638,c),
(787,637,o),
(766,617,o),
(767,587,c),
(766,578,o),
(768,568,o),
(773,561,c),
(777,555,o),
(786,543,o),
(789,535,c),
(296,535,l),
(297,547,o),
(314,561,o),
(346,578,c),
(550,702,l),
(570,723,o),
(572,754,o),
(560,770,c),
(548,790,o),
(520,800,o),
(495,789,c),
(121,560,ls)
);
},
{
closed = 1;
nodes = (
(165,390,o),
(142,358,o),
(141,321,cs),
(141,234,l),
(145,173,o),
(151,131,o),
(170,56,c),
(175,31,o),
(213,-1,o),
(245,-2,cs),
(806,-2,l),
(826,-5,o),
(850,26,o),
(862,60,c),
(871,93,o),
(879,136,o),
(885,188,c),
(887,326,l),
(886,364,o),
(853,390,o),
(816,391,cs),
(198,391,ls)
);
},
{
closed = 1;
nodes = (
(745,293,o),
(758,288,o),
(767,280,c),
(775,272,o),
(779,257,o),
(776,241,c),
(776,226,o),
(775,213,o),
(773,202,cs),
(772,197,o),
(771,189,o),
(770,180,cs),
(769,170,o),
(768,162,o),
(767,154,c),
(764,140,o),
(762,128,o),
(758,116,cs),
(754,103,o),
(745,94,o),
(731,89,c),
(318,89,l),
(306,88,o),
(296,91,o),
(289,98,c),
(273,111,o),
(268,133,o),
(265,153,c),
(261,173,o),
(258,188,o),
(257,206,c),
(256,216,o),
(256,223,o),
(255,229,cs),
(253,240,o),
(252,248,o),
(253,262,cs),
(254,275,o),
(265,289,o),
(294,293,c),
(732,293,ls)
);
}
);
vertWidth = 1024;
visible = 1;
width = 1024;
}
);
note = uni53F0;
unicode = 21488;
},
{
color = 5;
glyphname = uni540D;
lastChange = "2023-08-08 14:54:03 +0000";
layers = (
{
layerId = "0A3FE703-33D8-4A7C-9AA9-9C187B3DD6D1";
shapes = (
{
closed = 1;
nodes = (
(787,-16,o),
(823,13,o),
(824,48,c),
(830,135,o),
(832,223,o),
(829,309,c),
(829,335,o),
(807,367,o),
(770,368,cs),
(386,368,ls),
(353,368,o),
(323,339,o),
(323,309,cs),
(323,223,o),
(326,135,o),
(333,48,c),
(334,21,o),
(358,-17,o),
(390,-16,cs),
(762,-16,ls)
);
},
{
closed = 1;
nodes = (
(718,78,o),
(711,71,o),
(695,70,c),
(463,70,l),
(448,71,o),
(439,80,o),
(438,98,cs),
(435,152,o),
(434,205,o),
(435,260,c),
(436,273,o),
(442,280,o),
(456,280,cs),
(699,280,l),
(715,279,o),
(722,273,o),
(722,260,cs),
(723,203,o),
(722,147,o),
(719,91,cs)
);
},
{
closed = 1;
nodes = (
(175,100,o),
(185,103,o),
(191,110,cs),
(197,115,o),
(205,132,o),
(216,160,cs),
(226,187,o),
(237,213,o),
(249,234,cs),
(271,278,o),
(292,319,o),
(310,342,cs),
(326,366,o),
(342,386,o),
(368,403,cs),
(392,420,o),
(416,425,o),
(429,425,cs),
(755,425,ls),
(784,425,o),
(807,449,o),
(807,477,cs),
(807,743,l),
(806,773,o),
(783,791,o),
(754,792,cs),
(336,792,l),
(327,791,o),
(319,788,o),
(312,783,cs),
(299,774,o),
(292,750,o),
(298,731,c),
(302,710,o),
(317,697,o),
(336,696,c),
(436,696,l),
(436,520,l),
(394,515,o),
(362,506,o),
(340,494,cs),
(296,469,o),
(263,436,o),
(232,395,cs),
(202,353,o),
(160,291,o),
(114,160,c),
(111,146,o),
(113,134,o),
(120,123,c),
(127,111,o),
(137,103,o),
(162,100,c)
);
},
{
closed = 1;
nodes = (
(708,526,o),
(702,520,o),
(688,520,cs),
(536,520,l),
(536,696,l),
(690,696,ls),
(702,696,o),
(708,690,o),
(708,678,cs),
(708,537,ls)
);
}
);
vertWidth = 1024;
width = 1024;
}
);
note = uni540D;
unicode = 21517;
},
{
glyphname = uni548C;
lastChange = "2023-08-06 13:19:05 +0000";
layers = (
{
layerId = "0A3FE703-33D8-4A7C-9AA9-9C187B3DD6D1";
shapes = (
{
closed = 1;
nodes = (
(381,-15,o),
(392,4,o),
(393,33,c),
(393,281,l),
(421,265,o),
(443,259,o),
(456,262,cs),
(469,265,o),
(479,270,o),
(485,279,cs),
(497,295,o),
(501,321,o),
(478,354,cs),
(466,370,o),
(444,392,o),
(412,417,c),
(412,427,l),
(461,427,l),
(474,429,o),
(485,434,o),
(494,442,cs),
(511,458,o),
(520,481,o),
(512,506,cs),
(504,532,o),
(489,547,o),
(461,550,c),
(393,550,l),
(393,653,l),
(445,683,o),
(475,701,o),
(485,708,cs),
(494,715,o),
(500,723,o),
(503,733,cs),
(509,750,o),
(506,770,o),
(494,788,cs),
(482,804,o),
(450,815,o),
(431,804,c),
(420,799,o),
(395,786,o),
(353,766,cs),
(311,746,o),
(263,730,o),
(209,719,cs),
(155,708,o),
(125,700,o),
(117,695,c),
(101,685,o),
(92,663,o),
(96,643,cs),
(100,621,o),
(126,607,o),
(150,607,c),
(175,606,o),
(201,611,o),
(265,620,c),
(265,550,l),
(103,550,l),
(90,548,o),
(80,544,o),
(70,538,c),
(52,524,o),
(43,499,o),
(51,472,cs),
(59,446,o),
(82,434,o),
(114,433,cs),
(265,433,l),
(207,324,o),
(159,247,o),
(124,200,cs),
(88,152,o),
(68,122,o),
(67,111,c),
(64,88,o),
(74,71,o),
(87,63,c),
(99,54,o),
(121,50,o),
(142,59,cs),
(151,63,o),
(165,77,o),
(184,99,cs),
(202,120,o),
(230,159,o),
(265,215,c),
(265,33,l),
(266,5,o),
(275,-15,o),
(329,-22,c)
);
},
{
closed = 1;
nodes = (
(933,-17,o),
(948,10,o),
(949,55,c),
(960,228,o),
(960,407,o),
(949,596,c),
(948,644,o),
(917,657,o),
(877,657,cs),
(582,657,l),
(554,656,o),
(531,632,o),
(531,606,cs),
(527,421,o),
(527,238,o),
(531,55,cs),
(531,2,o),
(558,-17,o),
(594,-17,cs),
(892,-17,ls)
);
},
{
closed = 1;
nodes = (
(825,118,o),
(819,108,o),
(806,106,c),
(684,106,l),
(664,107,o),
(654,117,o),
(653,137,c),
(652,256,o),
(652,374,o),
(653,494,c),
(654,513,o),
(661,523,o),
(673,524,c),
(806,524,l),
(818,523,o),
(825,513,o),
(826,494,c),
(828,374,o),
(828,256,o),
(826,137,c)
);
}
);
vertWidth = 1024;
width = 1024;
}
);
note = uni548C;
unicode = 21644;
},
{
color = 1;
glyphname = uni54E1;
lastChange = "2023-08-10 14:38:31 +0000";
layers = (
{
background = {
shapes = (
{
attr = {
strokeWidth = 0.142;
};
closed = 1;
nodes = (
(29,-3,l),
(995,-3,l),
(995,733,l),
(29,733,l)
);
}
);
};
layerId = "0A3FE703-33D8-4A7C-9AA9-9C187B3DD6D1";
shapes = (
{
closed = 1;
nodes = (
(670,730,ls),
(685,730,o),
(697,718,o),
(697,703,cs),
(697,688,o),
(685,676,o),
(670,676,cs),
(345,676,ls),
(309,676,o),
(309,730,o),
(345,730,cs)
);
},
{
closed = 1;
nodes = (
(241,574,o),
(278,574,c),
(748,574,ls),
(789,574,o),
(826,610,o),
(826,652,c),
(826,761,l),
(826,810,o),
(789,830,o),
(748,830,cs),
(278,830,ls),
(237,830,o),
(200,796,o),
(200,753,c),
(200,650,l),
(200,598,o)
);
},
{
closed = 1;
nodes = (
(273,395,l),
(278,416,o),
(299,437,o),
(322,437,cs),
(687,437,ls),
(710,437,o),
(732,416,o),
(737,395,c)
);
},
{
closed = 1;
nodes = (
(737,307,l),
(737,262,l),
(273,262,l),
(273,307,l)
);
},
{
closed = 1;
nodes = (
(323,125,ls),
(297,125,o),
(276,147,o),
(273,172,c),
(737,172,l),
(734,147,o),
(711,125,o),
(687,125,cs)
);
},
{
closed = 1;
nodes = (
(855,515,o),
(813,528,o),
(765,529,c),
(231,528,l),
(175,528,o),
(146,513,o),
(146,457,c),
(146,116,ls),
(146,88,o),
(164,60,o),
(190,49,c),
(208,39,o),
(271,45,o),
(290,43,c),
(210,-13,o),
(270,-100,o),
(334,-52,c),
(428,43,l),
(575,43,l),
(630,-109,o),
(884,-109,o),
(736,43,c),
(765,43,o),
(793,41,o),
(816,51,cs),
(848,65,o),
(855,88,o),
(857,123,c),
(857,472,l)
);
}
);
vertWidth = 1024;
width = 1024;
},
{
associatedMasterId = "0A3FE703-33D8-4A7C-9AA9-9C187B3DD6D1";
layerId = "55D231D3-7ABE-4962-8280-C597CA548B81";
name = "23年8月3日 18:14";
shapes = (
{
closed = 1;
nodes = (
(720,745,o),
(727,740,o),
(730,732,cs),
(733,724,o),
(734,719,o),
(731,711,c),
(728,702,o),
(719,694,o),
(702,690,c),
(316,690,l),
(308,693,o),
(302,695,o),
(299,698,c),
(291,703,o),
(288,709,o),
(288,718,cs),
(288,722,o),
(289,726,o),
(291,730,c),
(294,737,o),
(301,742,o),
(314,745,c),
(701,745,ls)
);
},
{
closed = 1;
nodes = (
(876,95,o),
(906,124,o),
(907,168,cs),
(907,508,l),
(902,547,o),
(871,575,o),
(832,572,c),
(180,572,l),
(137,575,o),
(104,551,o),
(103,508,cs),
(103,168,ls),
(103,148,o),
(109,129,o),
(124,117,c),
(139,104,o),
(160,95,o),
(181,98,c),
(220,98,l),
(217,89,o),
(215,81,o),
(214,76,cs),
(213,70,o),
(212,65,o),
(211,61,cs),
(210,57,o),
(209,54,o),
(209,51,cs),
(209,48,o),
(209,44,o),
(210,41,c),
(211,33,o),
(214,27,o),
(220,20,cs),
(226,13,o),
(232,7,o),
(240,3,c),
(247,-1,o),
(255,-3,o),
(270,-2,cs),
(285,-1,o),
(304,6,o),
(319,16,cs),
(334,26,o),
(343,36,o),
(353,48,cs),
(363,60,o),
(388,89,o),
(399,98,c),
(638,98,l),
(663,62,o),
(680,43,o),
(696,31,cs),
(711,19,o),
(726,14,o),
(741,14,cs),
(756,14,o),
(765,18,o),
(780,31,cs),
(795,44,o),
(803,63,o),
(798,98,c),
(832,98,l)
);
},
{
closed = 1;
nodes = (
(231,468,o),
(239,483,o),
(259,483,cs),
(744,483,l),
(767,482,o),
(778,467,o),
(778,436,c),
(231,436,l)
);
},
{
closed = 1;
nodes = (
(778,314,l),
(231,314,l),
(231,363,l),
(778,363,l)
);
},
{
closed = 1;
nodes = (
(779,234,o),
(776,221,o),
(770,212,cs),
(764,203,o),
(755,197,o),
(744,197,cs),
(259,197,l),
(239,200,o),
(231,215,o),
(231,247,c),
(778,247,l)
);
},
{
closed = 1;
nodes = (
(854,805,o),
(818,832,o),
(770,832,cs),
(244,832,l),
(197,835,o),
(167,804,o),
(162,764,c),
(162,662,ls),
(163,619,o),
(198,598,o),
(249,598,cs),
(776,598,ls),
(808,597,o),
(830,605,o),
(841,619,cs),
(852,633,o),
(857,649,o),
(857,666,cs),
(857,764,l)
);
}
);
vertWidth = 1024;
width = 1024;
}
);
note = uni54E1;
unicode = 21729;
},
{
glyphname = uni55AB;
lastChange = "2023-08-06 13:19:05 +0000";
layers = (
{
layerId = "0A3FE703-33D8-4A7C-9AA9-9C187B3DD6D1";
shapes = (
{
closed = 1;
nodes = (
(560,769,o),
(552,785,o),
(543,792,cs),
(533,799,o),
(521,800,o),
(507,800,cs),
(493,800,o),
(478,796,o),
(469,789,cs),
(460,782,o),
(454,768,o),
(455,752,c),
(455,729,l),
(366,729,l),
(351,728,o),
(344,722,o),
(340,707,c),
(334,692,o),
(337,675,o),
(342,665,cs),
(347,656,o),
(353,650,o),
(366,647,c),
(455,647,l),
(455,593,l),
(390,593,l),
(373,588,o),
(364,580,o),
(360,568,c),
(355,556,o),
(356,545,o),
(361,535,cs),
(366,525,o),
(375,517,o),
(392,512,c),
(455,512,l),
(455,449,l),
(355,449,l),
(346,447,o),
(341,442,o),
(340,435,c),
(335,420,o),
(335,409,o),
(335,400,cs),
(335,391,o),
(335,379,o),
(340,367,cs),
(344,356,o),
(350,350,o),
(359,350,c),
(646,409,l),
(649,413,o),
(652,417,o),
(655,421,c),
(660,427,o),
(663,432,o),
(661,437,cs),
(659,442,o),
(656,447,o),
(649,448,c),
(646,449,o),
(639,449,o),
(631,449,cs),
(560,449,l),
(560,512,l),
(617,512,l),
(636,513,o),
(648,519,o),
(652,528,c),
(656,535,o),
(658,542,o),
(659,552,c),
(659,562,o),
(658,570,o),
(653,580,cs),
(648,589,o),
(636,596,o),
(613,593,c),
(560,593,l),
(560,647,l),
(625,647,l),
(635,648,o),
(644,651,o),
(650,656,c),
(661,664,o),
(667,678,o),
(667,690,cs),
(667,696,o),
(666,702,o),
(663,709,cs),
(658,721,o),
(648,732,o),
(626,732,cs),
(560,732,l),
(560,754,ls)
);
},
{
closed = 1;
nodes = (
(90,691,o),
(81,688,o),
(76,683,c),
(64,674,o),
(56,652,o),
(54,628,cs),
(53,615,o),
(52,604,o),
(51,593,cs),
(49,571,o),
(48,541,o),
(48,526,cs),
(48,510,o),
(49,478,o),
(50,460,c),
(51,451,o),
(51,442,o),
(52,433,c),
(53,413,o),
(57,400,o),
(62,383,cs),
(67,365,o),
(78,350,o),
(103,345,c),
(275,345,l),
(284,347,o),
(292,350,o),
(297,355,c),
(305,364,o),
(308,382,o),
(312,399,c),
(315,415,o),
(317,438,o),
(318,459,cs),
(319,480,o),
(321,503,o),
(321,528,cs),
(321,539,o),
(320,551,o),
(319,564,c),
(316,589,o),
(314,604,o),
(310,632,cs),
(306,659,o),
(296,690,o),
(266,693,c),
(100,693,l)
);
},
{
closed = 1;
nodes = (
(216,610,o),
(223,601,o),
(227,586,cs),
(231,569,o),
(234,550,o),
(236,527,c),
(236,503,o),
(234,485,o),
(231,465,cs),
(228,446,o),
(224,436,o),
(212,433,c),
(145,433,l),
(140,434,o),
(136,437,o),
(132,442,c),
(127,452,o),
(126,469,o),
(126,487,cs),
(126,495,o),
(126,506,o),
(126,519,cs),
(126,533,o),
(126,544,o),
(126,552,cs),
(126,560,o),
(126,567,o),
(127,574,c),
(128,586,o),
(130,594,o),
(135,600,c),
(138,606,o),
(143,607,o),
(151,607,cs),
(201,607,l)
);
},
{
closed = 1;
nodes = (
(416,340,o),
(406,333,o),
(401,321,cs),
(396,308,o),
(397,296,o),
(401,284,c),
(404,272,o),
(413,268,o),
(430,262,c),
(570,262,l),
(559,227,o),
(547,208,o),
(526,188,cs),
(505,167,o),
(488,153,o),
(471,141,c),
(454,128,o),
(415,109,o),
(394,102,c),
(372,94,o),
(362,91,o),
(351,88,c),
(339,84,o),
(329,81,o),
(323,73,cs),
(317,65,o),
(314,55,o),
(314,44,c),
(313,33,o),
(315,25,o),
(320,18,cs),
(325,10,o),
(337,6,o),
(353,3,cs),
(368,0,o),
(386,2,o),
(411,5,cs),
(435,8,o),
(460,14,o),
(501,37,cs),
(542,60,o),
(591,100,o),
(657,186,c),
(678,160,o),
(699,138,o),
(713,124,cs),
(727,109,o),
(748,91,o),
(766,77,cs),
(784,62,o),
(803,47,o),
(817,39,c),
(831,30,o),
(854,21,o),
(872,15,cs),
(890,8,o),
(904,4,o),
(916,4,c),
(928,3,o),
(937,4,o),
(947,7,cs),
(956,10,o),
(964,16,o),
(969,23,c),
(973,30,o),
(976,38,o),
(976,49,c),
(975,60,o),
(971,71,o),
(963,79,c),
(955,86,o),
(944,92,o),
(922,101,cs),
(900,110,o),
(881,120,o),
(861,132,c),
(840,143,o),
(819,159,o),
(799,180,cs),
(778,200,o),
(755,227,o),
(725,264,c),
(874,264,l),
(896,272,o),
(899,279,o),
(904,288,c),
(908,296,o),
(907,311,o),
(903,322,cs),
(899,332,o),
(890,337,o),
(869,344,c),
(706,344,l),
(705,368,o),
(698,379,o),
(686,386,cs),
(675,393,o),
(666,395,o),
(654,395,cs),
(640,395,o),
(628,393,o),
(618,386,cs),
(608,379,o),
(601,366,o),
(601,341,c),
(431,341,l)
);
},
{
closed = 1;
nodes = (
(715,730,o),
(706,727,o),
(701,722,c),
(689,714,o),
(689,701,o),
(689,689,cs),
(689,683,o),
(690,677,o),
(693,669,c),
(696,655,o),
(704,645,o),
(727,642,c),
(749,642,l),
(747,609,o),
(745,586,o),
(741,571,cs),
(738,557,o),
(735,545,o),
(732,536,cs),
(725,516,o),
(716,496,o),
(709,484,c),
(706,477,o),
(704,473,o),
(703,469,cs),
(702,466,o),
(700,464,o),
(699,461,c),
(696,455,o),
(696,451,o),
(696,444,cs),
(696,440,o),
(696,436,o),
(697,432,c),
(697,423,o),
(702,416,o),
(710,412,cs),
(718,408,o),
(731,405,o),
(740,407,cs),
(750,409,o),
(759,413,o),
(768,426,c),
(777,437,o),
(786,454,o),
(795,472,cs),
(802,488,o),
(807,503,o),
(811,518,cs),
(815,534,o),
(820,558,o),
(824,575,c),
(825,583,o),
(827,590,o),
(828,595,cs),
(829,600,o),
(830,605,o),
(830,610,cs),
(830,615,o),
(830,620,o),
(831,624,c),
(832,631,o),
(833,636,o),
(836,643,c),
(891,643,ls),
(894,643,o),
(897,642,o),
(899,641,c),
(903,638,o),
(905,635,o),
(905,631,cs),
(905,629,o),
(905,627,o),
(905,626,cs),
(905,594,o),
(898,554,o),
(886,524,cs),
(875,493,o),
(865,469,o),
(857,452,c),
(852,443,o),
(849,438,o),
(848,436,c),
(843,431,o),
(840,424,o),
(839,418,cs),
(838,413,o),
(835,403,o),
(836,395,c),
(836,386,o),
(842,379,o),
(849,373,cs),
(855,366,o),
(862,362,o),
(871,362,cs),
(879,362,o),
(889,364,o),
(899,372,cs),
(908,379,o),
(916,391,o),
(928,412,cs),
(940,433,o),
(954,467,o),
(963,498,cs),
(972,529,o),
(977,556,o),
(979,581,cs),
(980,592,o),
(980,629,o),
(980,689,c),
(981,702,o),
(978,712,o),
(971,720,cs),
(964,729,o),
(954,732,o),
(942,732,cs),
(728,732,l)
);
}
);
vertWidth = 1024;
width = 1024;
}
);
note = uni55AB;
unicode = 21931;
},
{
color = 1;
glyphname = uni5678;
lastChange = "2023-08-10 14:50:04 +0000";
layers = (
{
background = {
shapes = (
{
attr = {
strokeWidth = 0.142;
};
closed = 1;
nodes = (
(29,-3,l),
(995,-3,l),
(995,733,l),
(29,733,l)
);
}
);
};
layerId = "0A3FE703-33D8-4A7C-9AA9-9C187B3DD6D1";
shapes = (
{
closed = 1;
nodes = (
(175,310,ls),
(175,267,o),
(106,267,o),
(106,310,cs),
(106,473,ls),
(106,516,o),
(175,516,o),
(175,473,cs)
);
},
{
closed = 1;
nodes = (
(81,586,ls),
(54,586,o),
(35,570,o),
(35,542,cs),
(35,241,ls),
(35,216,o),
(56,198,o),
(80,198,cs),
(204,198,ls),
(229,198,o),
(247,215,o),
(247,241,cs),
(247,542,ls),
(247,566,o),
(226,586,o),
(201,586,cs)
);
},
{
closed = 1;
nodes = (
(537,641,ls),
(589,646,o),
(577,723,o),
(526,714,cs),
(350,682,ls),
(313,675,o),
(322,622,o),
(359,625,cs)
);
},
{
closed = 1;
nodes = (
(558,591,o),
(541,576,o),
(541,558,cs),
(541,273,ls),
(541,239,o),
(518,229,o),
(500,233,c),
(500,551,ls),
(500,573,o),
(479,591,o),
(457,591,cs),
(434,591,o),
(415,573,o),
(415,551,cs),
(415,233,l),
(386,229,o),
(369,239,o),
(369,273,cs),
(369,558,ls),
(369,576,o),
(345,591,o),
(327,591,cs),
(308,591,o),
(286,576,o),
(286,558,cs),
(286,219,ls),
(286,183,o),
(322,163,o),
(355,163,cs),
(415,163,l),
(415,111,l),
(331,97,ls),
(266,86,o),
(287,-3,o),
(351,14,cs),
(576,75,ls),
(592,79,o),
(595,98,o),
(591,113,cs),
(581,148,o),
(524,125,o),
(500,124,c),
(500,163,l),
(578,164,ls),
(604,164,o),
(628,189,o),
(628,220,cs),
(628,558,ls),
(628,576,o),
(605,591,o),
(587,591,cs)
);
},
{
closed = 1;
nodes = (
(761,467,l),
(760,485,o),
(775,501,o),
(794,501,cs),
(879,501,ls),
(899,501,o),
(915,489,o),
(913,467,c)
);
},
{
closed = 1;
nodes = (
(913,369,l),
(913,335,l),
(761,335,l),
(761,369,l)
);
},
{
closed = 1;
nodes = (
(913,218,o),
(901,204,o),
(886,204,cs),
(794,205,ls),
(775,205,o),
(760,219,o),
(761,238,c),
(913,238,l)
);
},
{
closed = 1;
nodes = (
(894,579,l),
(894,646,l),
(938,646,ls),
(985,646,o),
(985,716,o),
(938,716,cs),
(733,716,ls),
(713,716,o),
(696,701,o),
(696,682,cs),
(695,657,o),
(714,646,o),
(734,646,cs),
(776,646,l),
(776,579,l),
(720,579,ls),
(697,579,o),
(678,568,o),
(678,541,cs),
(678,163,ls),
(678,142,o),
(696,125,o),
(718,126,c),
(696,68,ls),
(675,12,o),
(764,-19,o),
(785,36,cs),
(819,126,l),
(851,126,l),
(885,36,ls),
(906,-19,o),
(995,11,o),
(974,68,cs),
(953,126,l),
(974,125,o),
(992,142,o),
(992,163,cs),
(992,541,ls),
(992,562,o),
(975,579,o),
(954,579,cs)
);
}
);
vertWidth = 1024;
width = 1024;
},
{
associatedMasterId = "0A3FE703-33D8-4A7C-9AA9-9C187B3DD6D1";
layerId = "02DFA265-C7E2-4283-8DB3-4876FFD1F19E";
name = "23年8月3日 18:15";
shapes = (
{
closed = 1;
nodes = (
(780,277,o),
(768,283,o),
(759,289,cs),
(750,295,o),
(746,304,o),
(747,316,c),
(747,373,l),
(823,373,l),
(823,344,l),
(824,331,o),
(834,321,o),
(845,316,cs),
(856,311,o),
(864,308,o),
(872,308,cs),
(880,308,o),
(888,310,o),
(897,314,c),
(905,317,o),
(909,320,o),
(914,325,cs),
(918,329,o),
(924,338,o),
(925,350,c),
(925,572,l),
(924,591,o),
(911,600,o),
(898,608,c),
(885,615,o),
(880,614,o),
(874,614,cs),
(868,614,o),
(862,613,o),
(859,612,c),
(855,611,o),
(851,609,o),
(843,605,cs),
(835,601,o),
(824,589,o),
(823,568,c),
(823,467,l),
(747,467,l),
(747,619,l),
(772,623,o),
(790,626,o),
(803,629,c),
(815,631,o),
(832,634,o),
(854,638,cs),
(898,645,o),
(931,654,o),
(967,663,c),
(979,670,o),
(985,683,o),
(987,698,cs),
(989,713,o),
(987,718,o),
(985,726,cs),
(983,734,o),
(978,741,o),
(970,750,c),
(961,758,o),
(949,763,o),
(933,760,c),
(875,747,o),
(813,734,o),
(747,720,c),
(747,757,l),
(743,774,o),
(731,783,o),
(719,788,c),
(706,792,o),
(697,792,o),
(689,792,c),
(681,791,o),
(674,790,o),
(666,784,c),
(657,778,o),
(651,767,o),
(651,748,cs),
(651,702,l),
(593,691,o),
(533,678,o),
(472,661,c),
(464,660,o),
(459,658,o),
(456,653,c),
(450,644,o),
(448,631,o),
(448,624,cs),
(448,621,o),
(448,618,o),
(449,615,c),
(450,609,o),
(453,603,o),
(460,596,cs),
(467,589,o),
(477,582,o),
(488,583,c),
(499,585,o),
(510,587,o),
(523,589,c),
(535,590,o),
(549,592,o),
(564,595,c),
(595,600,o),
(622,604,o),
(651,605,c),
(651,467,l),
(579,467,l),
(579,532,ls),
(579,551,o),
(567,559,o),
(555,565,cs),
(542,571,o),
(534,570,o),
(525,570,cs),
(516,570,o),
(511,570,o),
(500,566,cs),
(488,562,o),
(477,551,o),
(476,532,c),
(476,280,l),
(477,257,o),
(488,250,o),
(502,245,cs),
(516,240,o),
(521,239,o),
(528,239,cs),
(535,239,o),
(542,241,o),
(555,249,c),
(568,256,o),
(582,267,o),
(579,290,c),
(579,373,l),
(651,373,l),
(651,312,ls),
(651,271,o),
(661,246,o),
(681,224,cs),
(701,202,o),
(722,187,o),
(766,183,c),
(933,183,ls),
(949,183,o),
(960,191,o),
(965,201,c),
(969,211,o),
(972,222,o),
(972,232,c),
(971,242,o),
(969,250,o),
(962,260,cs),
(955,270,o),
(945,276,o),
(926,276,cs),
(797,276,l)
);
},
{
closed = 1;
nodes = (
(331,496,l),
(340,493,o),
(344,487,o),
(343,476,c),
(321,357,l),
(321,373,o),
(294,407,o),
(239,460,c),
(245,496,l)
);
},
{
closed = 1;
nodes = (
(1004,31,o),
(1009,48,o),
(1009,67,cs),
(1009,86,o),
(1007,95,o),
(1005,107,cs),
(1003,118,o),
(999,126,o),
(995,135,cs),
(991,144,o),
(985,153,o),
(979,158,cs),
(973,163,o),
(964,166,o),
(955,163,c),
(946,159,o),
(936,148,o),
(929,128,c),
(428,128,l),
(418,127,o),
(410,127,o),
(403,130,c),
(389,135,o),
(384,144,o),
(384,159,cs),
(384,166,o),
(386,175,o),
(389,186,c),
(453,517,l),
(454,537,o),
(452,555,o),
(445,569,c),
(437,583,o),
(425,591,o),
(409,591,cs),
(266,591,l),
(280,668,l),
(432,668,l),
(445,669,o),
(459,680,o),
(465,689,cs),
(471,698,o),
(472,704,o),
(472,713,cs),
(472,721,o),
(470,727,o),
(466,736,cs),
(462,745,o),
(450,753,o),
(433,753,cs),
(83,753,l),
(66,752,o),
(59,745,o),
(55,734,c),
(50,722,o),
(49,717,o),
(49,710,cs),
(49,703,o),
(51,697,o),
(56,689,c),
(61,680,o),
(70,671,o),
(85,668,c),
(171,668,l),
(83,211,l),
(30,195,l),
(11,186,o),
(7,170,o),
(6,155,cs),
(5,139,o),
(5,128,o),
(9,118,c),
(12,108,o),
(16,101,o),
(28,93,cs),
(40,85,o),
(59,77,o),
(78,80,c),
(264,160,l),
(273,163,o),
(278,169,o),
(281,177,c),
(278,163,o),
(277,152,o),
(277,143,cs),
(277,125,o),
(279,112,o),
(283,103,c),
(286,94,o),
(290,83,o),
(295,76,c),
(297,72,o),
(299,68,o),
(302,64,c),
(306,56,o),
(315,50,o),
(329,43,c),
(343,35,o),
(358,29,o),
(389,28,cs),
(988,28,l)
);
},
{
closed = 1;
nodes = (
(209,325,l),
(229,310,o),
(243,300,o),
(251,295,cs),
(259,290,o),
(266,288,o),
(273,287,c),
(285,286,o),
(295,290,o),
(307,302,c),
(293,232,l),
(286,248,o),
(266,254,o),
(250,250,cs),
(192,235,l)
);
}
);
vertWidth = 1024;
width = 1024;
}
);
note = uni5678;
unicode = 22136;
},
{
color = 4;
glyphname = uni56A2;
lastChange = "2023-08-08 15:07:25 +0000";
layers = (
{
layerId = "0A3FE703-33D8-4A7C-9AA9-9C187B3DD6D1";
shapes = (
{
closed = 1;
nodes = (
(514,75,o),
(504,69,o),
(491,65,c),
(479,60,o),
(469,58,o),
(461,62,c),
(452,65,o),
(448,74,o),
(448,96,cs),
(448,131,l),
(512,131,l),
(503,116,o),
(511,96,o),
(526,84,c)
);
},
{
closed = 1;
nodes = (
(459,569,l),
(352,569,l),
(342,572,o),
(337,580,o),
(337,589,cs),
(337,599,o),
(342,607,o),
(354,607,cs),
(459,607,l)
);
},
{
closed = 1;
nodes = (
(677,607,o),
(682,599,o),
(683,589,c),
(683,580,o),
(678,572,o),
(669,569,c),
(568,569,l),
(568,607,l),
(668,607,ls)
);
},
{
closed = 1;
nodes = (
(575,415,l),
(575,396,l),
(433,396,l),
(433,415,l)
);
},
{
closed = 1;
nodes = (
(575,303,l),
(433,303,l),
(433,321,l),
(575,321,l)
);
},
{
closed = 1;
nodes = (
(575,212,l),
(433,212,l),
(433,232,l),
(575,232,l)
);
},
{
closed = 1;
nodes = (
(605,125,o),
(599,121,o),
(589,119,c),
(581,121,o),
(575,125,o),
(570,131,c),
(606,131,l)
);
},
{
closed = 1;
nodes = (
(365,47,o),
(369,34,o),
(374,24,cs),
(384,6,o),
(396,-4,o),
(408,-10,c),
(419,-16,o),
(428,-19,o),
(439,-21,cs),
(451,-23,o),
(455,-22,o),
(464,-20,cs),
(468,-19,o),
(472,-17,o),
(477,-16,cs),
(486,-14,o),
(492,-12,o),
(503,-7,c),
(513,-3,o),
(522,2,o),
(539,15,cs),
(548,21,o),
(560,31,o),
(575,45,c),
(604,27,o),
(626,16,o),
(643,9,cs),
(676,-5,o),
(701,-12,o),
(720,-15,cs),
(739,-19,o),
(758,-20,o),
(775,-20,cs),
(791,-20,o),
(806,-17,o),
(819,-15,cs),
(832,-13,o),
(842,-9,o),
(850,-4,c),
(858,0,o),
(864,4,o),
(868,9,cs),
(872,14,o),
(873,20,o),
(873,27,c),
(872,35,o),
(869,44,o),
(866,48,c),
(862,52,o),
(857,57,o),
(848,59,cs),
(839,61,o),
(829,63,o),
(820,63,cs),
(815,63,o),
(811,63,o),
(806,62,cs),
(801,61,o),
(795,61,o),
(789,61,cs),
(783,61,o),
(777,61,o),
(772,61,cs),
(761,61,o),
(748,63,o),
(736,66,cs),
(724,69,o),
(713,72,o),
(705,75,c),
(701,76,o),
(693,79,o),
(683,82,cs),
(673,86,o),
(666,88,o),
(662,89,c),
(681,101,o),
(689,116,o),
(689,131,c),
(818,131,l),
(834,136,o),
(842,145,o),
(846,154,c),
(849,163,o),
(849,166,o),
(849,174,c),
(848,182,o),
(846,188,o),
(843,196,c),
(839,203,o),
(830,212,o),
(814,212,cs),
(680,212,l),
(680,232,l),
(770,232,l),
(782,233,o),
(787,241,o),
(791,250,c),
(795,258,o),
(797,263,o),
(797,268,cs),
(797,270,o),
(797,273,o),
(796,276,cs),
(795,279,o),
(794,282,o),
(793,285,c),
(792,292,o),
(789,294,o),
(786,298,c),
(782,302,o),
(775,303,o),
(767,303,cs),
(680,303,l),
(680,322,l),
(765,322,l),
(778,325,o),
(787,333,o),
(790,342,cs),
(793,350,o),
(794,353,o),
(794,359,cs),
(794,365,o),
(794,369,o),
(791,377,c),
(787,384,o),
(779,392,o),
(764,396,c),
(680,396,l),
(680,415,l),
(809,415,l),
(826,416,o),
(839,414,o),
(848,411,c),
(866,404,o),
(871,397,o),
(876,391,c),
(880,384,o),
(885,379,o),
(888,377,c),
(889,376,o),
(892,374,o),
(895,371,c),
(901,366,o),
(908,361,o),
(915,358,c),
(922,354,o),
(930,353,o),
(938,354,cs),
(945,355,o),
(951,359,o),
(958,364,c),
(964,368,o),
(966,374,o),
(969,379,cs),
(972,384,o),
(972,392,o),
(972,398,c),
(971,404,o),
(968,412,o),
(960,424,cs),
(951,436,o),
(940,451,o),
(924,467,cs),
(908,482,o),
(894,488,o),
(877,490,c),
(568,490,l),
(568,509,l),
(757,509,l),
(780,512,o),
(802,525,o),
(802,549,c),
(805,575,o),
(805,602,o),
(802,628,c),
(802,654,o),
(782,671,o),
(757,671,cs),
(568,671,l),
(568,688,l),
(761,688,l),
(774,691,o),
(780,698,o),
(785,706,c),
(789,714,o),
(790,720,o),
(790,726,c),
(789,732,o),
(786,737,o),
(782,747,c),
(777,756,o),
(771,760,o),
(756,763,c),
(568,763,l),
(568,787,o),
(558,803,o),
(547,811,c),
(534,818,o),
(525,819,o),
(513,819,cs),
(501,819,o),
(489,818,o),
(477,812,cs),
(464,806,o),
(455,791,o),
(454,763,c),
(266,763,l),
(253,764,o),
(240,758,o),
(233,751,cs),
(226,744,o),
(225,737,o),
(225,729,c),
(224,721,o),
(224,714,o),
(229,707,cs),
(234,700,o),
(244,694,o),
(265,688,c),
(454,688,l),
(454,671,l),
(277,671,ls),
(252,671,o),
(233,654,o),
(230,629,cs),
(227,604,o),
(227,577,o),
(230,551,c),
(230,538,o),
(235,528,o),
(245,520,c),
(253,512,o),
(263,508,o),
(279,509,c),
(459,509,l),
(459,490,l),
(159,490,l),
(148,488,o),
(138,487,o),
(131,484,c),
(118,479,o),
(108,469,o),
(103,459,c),
(100,454,o),
(98,448,o),
(95,443,cs),
(92,437,o),
(88,431,o),
(85,425,cs),
(82,419,o),
(80,415,o),
(79,412,c),
(77,409,o),
(76,406,o),
(75,402,cs),
(74,398,o),
(73,394,o),
(72,390,c),
(71,384,o),
(70,380,o),
(70,375,cs),
(70,366,o),
(72,359,o),
(74,354,cs),
(76,349,o),
(80,344,o),
(85,340,cs),
(91,335,o),
(98,333,o),
(106,333,cs),
(114,333,o),
(125,338,o),
(132,343,c),
(139,347,o),
(147,359,o),
(154,375,c),
(157,383,o),
(161,391,o),
(165,397,cs),
(172,408,o),
(186,415,o),
(203,415,cs),
(336,415,l),
(336,396,l),
(259,396,l),
(244,397,o),
(235,390,o),
(232,381,c),
(228,373,o),
(228,366,o),
(228,359,cs),
(228,352,o),
(228,347,o),
(232,339,c),
(235,329,o),
(244,321,o),
(259,321,cs),
(336,321,l),
(336,303,l),
(261,303,l),
(245,302,o),
(238,296,o),
(234,288,c),
(229,278,o),
(229,272,o),
(229,265,cs),
(229,258,o),
(229,252,o),
(234,244,c),
(238,236,o),
(247,228,o),
(263,227,c),
(336,227,l),
(336,212,l),
(214,212,ls),
(195,212,o),
(183,202,o),
(177,193,cs),
(171,183,o),
(170,178,o),
(171,170,cs),
(172,162,o),
(173,159,o),
(178,151,c),
(183,142,o),
(194,131,o),
(211,131,cs),
(317,131,l),
(298,123,o),
(284,116,o),
(269,108,cs),
(261,104,o),
(255,101,o),
(250,100,c),
(245,98,o),
(240,96,o),
(236,95,c),
(231,93,o),
(227,91,o),
(224,90,c),
(220,89,o),
(217,87,o),
(214,86,cs),
(211,85,o),
(207,82,o),
(204,81,c),
(200,80,o),
(197,78,o),
(194,77,cs),
(190,76,o),
(186,75,o),
(182,74,cs),
(178,73,o),
(175,73,o),
(172,72,c),
(167,70,o),
(162,67,o),
(155,61,cs),
(148,55,o),
(145,45,o),
(145,34,cs),
(145,27,o),
(146,22,o),
(147,18,c),
(150,10,o),
(154,2,o),
(162,-2,c),
(170,-7,o),
(179,-10,o),
(196,-6,c),
(203,-5,o),
(214,-2,o),
(229,3,cs),
(259,12,o),
(301,31,o),
(363,64,c)
);
}
);
vertWidth = 1024;
width = 1024;
}
);
note = uni56A2;
unicode = 22178;
},
{
color = 5;
glyphname = uni56DB;
lastChange = "2023-08-08 14:54:03 +0000";
layers = (
{
layerId = "0A3FE703-33D8-4A7C-9AA9-9C187B3DD6D1";
shapes = (
{
closed = 1;
nodes = (
(817,586,l),
(829,585,o),
(837,575,o),
(845,562,c),
(838,268,l),
(834,231,o),
(821,213,o),
(793,209,c),
(242,208,ls),
(213,208,o),
(198,226,o),
(197,250,cs),
(187,565,l),
(192,580,o),
(206,590,o),
(218,590,cs),
(366,590,l),
(366,399,l),
(365,381,o),
(357,371,o),
(340,370,c),
(252,370,l),
(236,369,o),
(227,356,o),
(224,343,c),
(220,330,o),
(222,321,o),
(227,310,c),
(232,297,o),
(242,286,o),
(254,283,c),
(383,283,l),
(422,290,o),
(453,317,o),
(456,361,c),
(456,590,l),
(577,590,l),
(577,357,ls),
(578,326,o),
(612,283,o),
(645,282,cs),
(779,282,l),
(789,285,o),
(795,289,o),
(800,294,c),
(808,304,o),
(811,321,o),
(811,331,cs),
(811,336,o),
(810,341,o),
(807,347,c),
(802,359,o),
(792,369,o),
(776,370,c),
(693,370,l),
(673,373,o),
(665,383,o),
(667,399,c),
(667,586,l)
);
},
{
closed = 1;
nodes = (
(891,128,o),
(914,157,o),
(918,196,c),
(928,619,ls),
(928,654,o),
(898,688,o),
(868,688,cs),
(154,688,ls),
(137,688,o),
(120,683,o),
(108,672,c),
(95,660,o),
(89,645,o),
(90,632,c),
(104,197,l),
(113,157,o),
(136,130,o),
(173,127,c),
(855,125,l)
);
}
);
vertWidth = 1024;
width = 1024;
}
);
note = uni56DB;
unicode = 22235;
},
{
glyphname = uni56FD;
lastChange = "2023-08-06 13:19:05 +0000";
layers = (
{
layerId = "0A3FE703-33D8-4A7C-9AA9-9C187B3DD6D1";
shapes = (
{
closed = 1;
nodes = (
(761,81,o),
(750,64,o),
(729,60,c),
(323,60,l),
(308,61,o),
(291,78,o),
(291,99,c),
(288,173,o),
(286,270,o),
(286,391,cs),
(286,677,ls),
(286,701,o),
(299,717,o),
(322,721,c),
(728,721,l),
(747,722,o),
(761,708,o),
(764,688,c),
(764,105,l)
);
},
{
closed = 1;
nodes = (
(481,195,l),
(361,195,l),
(344,194,o),
(333,184,o),
(329,176,cs),
(325,168,o),
(324,161,o),
(324,152,cs),
(324,143,o),
(325,137,o),
(329,127,c),
(332,118,o),
(340,107,o),
(357,110,c),
(708,110,l),
(723,111,o),
(732,120,o),
(737,130,c),
(741,141,o),
(741,148,o),
(741,156,c),
(740,164,o),
(738,169,o),
(733,178,cs),
(728,188,o),
(717,196,o),
(705,195,c),
(570,195,l),
(570,373,l),
(643,373,ls),
(661,373,o),
(672,381,o),
(678,391,c),
(684,399,o),
(686,408,o),
(686,420,cs),
(686,431,o),
(683,441,o),
(679,450,c),
(674,458,o),
(663,464,o),
(647,464,cs),
(564,464,l),
(564,577,l),
(673,577,l),
(690,576,o),
(704,585,o),
(711,598,c),
(718,609,o),
(719,616,o),
(719,625,cs),
(719,634,o),
(717,639,o),
(712,649,cs),
(707,658,o),
(692,666,o),
(672,667,c),
(368,667,l),
(352,666,o),
(341,660,o),
(336,650,cs),
(331,639,o),
(331,631,o),
(332,622,c),
(332,613,o),
(333,607,o),
(340,598,cs),
(348,588,o),
(359,578,o),
(374,577,c),
(476,577,l),
(476,464,l),
(399,464,ls),
(383,464,o),
(371,458,o),
(365,450,c),
(359,441,o),
(357,432,o),
(357,421,cs),
(357,410,o),
(358,403,o),
(365,394,cs),
(372,384,o),
(382,377,o),
(402,373,c),
(481,373,l)
);
},
{
closed = 1;
nodes = (
(645,346,o),
(637,346,o),
(631,342,cs),
(619,333,o),
(615,319,o),
(616,307,cs),
(617,294,o),
(620,276,o),
(624,267,c),
(627,258,o),
(633,247,o),
(641,239,cs),
(649,230,o),
(657,226,o),
(669,226,cs),
(674,226,o),
(679,227,o),
(684,229,c),
(693,233,o),
(703,240,o),
(707,247,cs),
(711,254,o),
(714,263,o),
(711,272,c),
(708,280,o),
(703,289,o),
(694,302,c),
(685,315,o),
(676,327,o),
(657,341,c)
);
},
{
closed = 1;
nodes = (
(868,797,o),
(839,821,o),
(799,821,cs),
(248,821,ls),
(211,821,o),
(178,791,o),
(178,759,cs),
(178,406,ls),
(179,239,o),
(184,126,o),
(192,32,c),
(197,1,o),
(211,-21,o),
(242,-28,c),
(803,-27,l),
(838,-24,o),
(859,-9,o),
(860,22,c),
(865,95,o),
(867,166,o),
(867,236,cs),
(868,764,ls)
);
}
);
vertWidth = 1024;
width = 1024;
}
);
note = uni56FD;
unicode = 22269;
},
{
color = 4;
glyphname = uni5802;
lastChange = "2023-08-08 15:44:34 +0000";
layers = (
{
layerId = "0A3FE703-33D8-4A7C-9AA9-9C187B3DD6D1";
shapes = (
{
closed = 1;
nodes = (
(827,19,ls),
(850,19,o),
(870,36,o),
(870,61,cs),
(870,83,o),
(850,103,o),
(827,103,cs),
(553,103,l),
(553,161,l),
(743,161,ls),
(763,161,o),
(778,178,o),
(778,198,cs),
(778,218,o),
(763,236,o),
(743,236,cs),
(553,236,l),
(553,286,l),
(695,286,ls),
(713,286,o),
(725,301,o),
(725,318,cs),
(725,453,ls),
(725,470,o),
(713,483,o),
(695,483,cs),
(306,483,ls),
(288,483,o),
(276,470,o),
(276,453,cs),
(276,318,ls),
(276,301,o),
(288,286,o),
(306,286,cs),
(448,286,l),
(448,236,l),
(258,236,ls),
(238,236,o),
(223,218,o),
(223,198,cs),
(223,178,o),
(238,161,o),
(258,161,cs),
(448,161,l),
(448,103,l),
(176,103,ls),
(151,103,o),
(131,83,o),
(131,61,cs),
(131,36,o),
(151,19,o),
(176,19,cs)
);
},
{
closed = 1;
nodes = (
(383,361,o),
(371,371,o),
(371,386,cs),
(371,398,o),
(383,411,o),
(396,411,cs),
(605,411,ls),
(618,411,o),
(630,398,o),
(630,386,cs),
(630,371,o),
(618,361,o),
(605,361,cs),
(396,361,ls)
);
},
{
closed = 1;
nodes = (
(393,653,ls),
(408,653,o),
(418,665,o),
(418,678,cs),
(418,688,o),
(415,693,o),
(408,698,c),
(373,730,o),
(328,753,o),
(278,755,cs),
(276,755,o),
(273,758,o),
(273,758,c),
(243,758,o),
(221,733,o),
(221,705,cs),
(221,675,o),
(243,653,o),
(273,653,cs)
);
},
{
closed = 1;
nodes = (
(126,428,o),
(148,445,o),
(153,468,cs),
(158,488,l),
(168,515,o),
(193,538,o),
(226,538,cs),
(775,538,ls),
(807,538,o),
(835,515,o),
(842,488,cs),
(847,468,ls),
(852,445,o),
(875,428,o),
(900,428,cs),
(932,428,o),
(957,453,o),
(957,483,cs),
(957,493,o),
(955,500,o),
(952,508,cs),
(927,560,ls),
(912,595,o),
(880,618,o),
(840,618,cs),
(553,618,l),
(553,735,ls),
(553,763,o),
(530,788,o),
(500,788,cs),
(470,788,o),
(448,763,o),
(448,735,cs),
(448,618,l),
(161,618,ls),
(121,618,o),
(88,595,o),
(73,560,cs),
(48,508,l),
(48,505,l),
(46,500,o),
(43,493,o),
(43,483,cs),
(43,453,o),
(68,428,o),
(101,428,cs)
);
},
{
closed = 1;
nodes = (
(728,653,ls),
(758,653,o),
(780,675,o),
(780,705,cs),
(780,733,o),
(758,758,o),
(728,758,c),
(728,758,o),
(725,755,o),
(723,755,cs),
(673,753,o),
(628,730,o),
(593,698,c),
(585,693,o),
(583,688,o),
(583,678,cs),
(583,665,o),
(593,653,o),
(608,653,cs)
);
}
);
vertWidth = 1024;
width = 1024;
},
{
associatedMasterId = "0A3FE703-33D8-4A7C-9AA9-9C187B3DD6D1";
layerId = "577433B2-0ED4-4419-B537-698EB4FE02BC";
name = "23年8月8日 23:43";
shapes = (
{
closed = 1;
nodes = (
(562,744,o),
(558,757,o),
(549,770,c),
(540,781,o),
(523,788,o),
(504,788,c),
(483,789,o),
(465,786,o),
(454,775,cs),
(442,762,o),
(435,749,o),
(438,732,c),
(438,622,l),
(107,622,l),
(88,621,o),
(64,593,o),
(47,557,cs),
(30,521,o),
(24,493,o),
(20,455,c),
(21,441,o),
(27,429,o),
(35,420,c),
(50,399,o),
(76,394,o),
(98,402,cs),
(120,411,o),
(128,427,o),
(133,436,c),
(137,445,o),
(139,454,o),
(143,471,cs),
(145,478,o),
(148,486,o),
(151,494,cs),
(157,511,o),
(170,529,o),
(194,532,c),
(803,532,l),
(810,534,o),
(818,533,o),
(825,529,c),
(840,520,o),
(848,503,o),
(855,488,cs),
(862,473,o),
(866,464,o),
(869,452,c),
(870,447,o),
(872,442,o),
(873,439,c),
(875,432,o),
(879,426,o),
(889,418,c),
(898,409,o),
(919,399,o),
(937,400,c),
(968,405,o),
(985,433,o),
(989,466,c),
(985,483,o),
(983,496,o),
(980,505,cs),
(974,524,o),
(964,544,o),
(957,558,c),
(954,566,o),
(950,573,o),
(947,581,c),
(940,596,o),
(926,618,o),
(901,622,c),
(562,622,l),
(562,728,ls)
);
},
{
closed = 1;
nodes = (
(214,767,o),
(192,745,o),
(196,714,c),
(194,703,o),
(195,694,o),
(199,687,c),
(207,671,o),
(220,663,o),
(240,658,c),
(259,653,o),
(280,652,o),
(299,652,cs),
(308,652,o),
(319,652,o),
(332,653,c),
(343,653,o),
(353,653,o),
(362,653,cs),
(370,653,o),
(379,653,o),
(388,652,c),
(396,655,o),
(404,662,o),
(408,668,cs),
(412,674,o),
(412,682,o),
(411,689,c),
(382,745,o),
(316,770,o),
(244,771,c)
);
},
{
closed = 1;
nodes = (
(730,767,o),
(719,765,o),
(712,764,cs),
(705,762,o),
(699,761,o),
(694,760,cs),
(689,759,o),
(683,758,o),
(675,755,c),
(659,750,o),
(648,744,o),
(636,736,cs),
(628,731,o),
(623,728,o),
(619,726,c),
(610,721,o),
(603,713,o),
(600,703,c),
(596,694,o),
(592,674,o),
(604,663,c),
(615,651,o),
(629,651,o),
(659,652,cs),
(674,652,o),
(685,652,o),
(692,651,c),
(697,652,o),
(702,653,o),
(709,653,c),
(715,652,o),
(723,652,o),
(732,652,cs),
(751,652,o),
(758,651,o),
(775,658,cs),
(792,666,o),
(809,692,o),
(809,717,c),
(805,748,o),
(779,769,o),
(748,769,c)
);
},
{
closed = 1;
nodes = (
(288,494,o),
(263,474,o),
(262,444,cs),
(262,325,l),
(263,300,o),
(288,283,o),
(317,284,cs),
(438,284,l),
(438,245,l),
(234,245,l),
(222,246,o),
(214,243,o),
(207,235,c),
(199,227,o),
(196,216,o),
(196,203,cs),
(196,180,o),
(209,161,o),
(233,158,c),
(438,158,l),
(438,112,l),
(127,112,l),
(118,113,o),
(110,108,o),
(106,99,c),
(101,90,o),
(98,78,o),
(98,66,cs),
(98,44,o),
(108,23,o),
(129,18,c),
(867,17,l),
(887,24,o),
(902,41,o),
(901,62,c),
(901,89,o),
(887,111,o),
(867,112,c),
(562,112,l),
(562,158,l),
(773,158,ls),
(781,158,o),
(789,163,o),
(795,171,cs),
(801,179,o),
(804,189,o),
(804,200,cs),
(804,214,o),
(801,225,o),
(795,233,cs),
(789,241,o),
(778,245,o),
(770,245,cs),
(562,245,l),
(562,284,l),
(695,284,ls),
(708,284,o),
(721,288,o),
(732,296,c),
(744,303,o),
(748,316,o),
(747,328,c),
(747,447,l),
(746,475,o),
(731,490,o),
(708,493,c),
(313,493,l)
);
},
{
closed = 1;
nodes = (
(376,367,o),
(371,375,o),
(368,390,c),
(369,403,o),
(375,412,o),
(387,415,c),
(618,415,l),
(640,411,o),
(643,370,o),
(617,367,c),
(385,367,ls)
);
}
);
vertWidth = 1024;
visible = 1;
width = 1024;
}
);
note = uni5802;
unicode = 22530;
},
{
glyphname = uni5834;
lastChange = "2023-08-06 13:19:05 +0000";
layers = (
{
layerId = "0A3FE703-33D8-4A7C-9AA9-9C187B3DD6D1";
shapes = (
{
closed = 1;
nodes = (
(926,-8,o),
(951,-3,o),
(969,17,cs),
(987,36,o),
(1001,63,o),
(1011,101,cs),
(1016,119,o),
(1020,135,o),
(1024,149,c),
(1031,176,o),
(1033,229,o),
(1029,254,cs),
(1025,277,o),
(1009,300,o),
(973,300,cs),
(566,300,l),
(567,310,o),
(569,320,o),
(572,330,c),
(997,330,ls),
(1017,330,o),
(1031,351,o),
(1030,372,cs),
(1029,392,o),
(1016,407,o),
(1000,408,c),
(426,408,l),
(415,407,o),
(408,404,o),
(403,399,c),
(393,387,o),
(392,370,o),
(397,355,c),
(401,339,o),
(413,331,o),
(434,330,c),
(452,330,l),
(446,290,o),
(439,264,o),
(429,250,cs),
(411,220,o),
(393,197,o),
(366,181,cs),
(340,166,o),
(324,156,o),
(320,136,c),
(315,116,o),
(316,102,o),
(325,91,c),
(334,78,o),
(347,69,o),
(366,69,cs),
(386,69,o),
(416,80,o),
(447,106,cs),
(477,131,o),
(502,154,o),
(546,230,c),
(592,230,l),
(580,165,o),
(554,130,o),
(521,111,cs),
(505,102,o),
(494,95,o),
(489,90,c),
(482,84,o),
(478,79,o),
(475,73,cs),
(469,61,o),
(464,45,o),
(472,29,cs),
(480,13,o),
(493,4,o),
(511,0,c),
(529,-5,o),
(557,4,o),
(582,23,cs),
(607,43,o),
(630,64,o),
(655,96,cs),
(678,127,o),
(695,166,o),
(720,230,c),
(753,230,l),
(746,180,o),
(727,141,o),
(703,113,cs),
(691,99,o),
(681,88,o),
(676,81,c),
(664,68,o),
(662,41,o),
(670,26,cs),
(678,12,o),
(696,0,o),
(720,0,cs),
(731,0,o),
(742,2,o),
(749,7,c),
(764,16,o),
(774,24,o),
(796,60,c),
(793,54,o),
(795,47,o),
(802,39,cs),
(816,21,o),
(825,6,o),
(874,-7,c)
);
},
{
closed = 1;
nodes = (
(836,138,o),
(851,183,o),
(858,230,c),
(903,230,l),
(930,225,o),
(923,198,o),
(919,169,cs),
(914,140,o),
(903,118,o),
(891,106,cs),
(879,93,o),
(862,88,o),
(842,98,c),
(831,103,o),
(825,105,o),
(822,104,cs),
(819,103,o),
(817,100,o),
(815,96,c)
);
},
{
closed = 1;
nodes = (
(104,140,o),
(140,148,o),
(186,161,cs),
(275,185,o),
(387,229,o),
(399,242,cs),
(405,248,o),
(408,255,o),
(408,264,cs),
(408,272,o),
(407,279,o),
(404,284,c),
(398,296,o),
(386,301,o),
(364,302,c),
(293,302,l),
(293,472,l),
(374,472,l),
(386,473,o),
(394,479,o),
(401,488,c),
(413,508,o),
(417,528,o),
(412,551,cs),
(407,573,o),
(396,588,o),
(368,589,c),
(293,589,l),
(293,614,ls),
(293,628,o),
(290,640,o),
(283,652,c),
(268,672,o),
(250,680,o),
(227,680,cs),
(216,680,o),
(206,679,o),
(197,676,cs),
(178,670,o),
(154,643,o),
(153,612,cs),
(153,589,l),
(77,589,ls),
(44,588,o),
(38,576,o),
(33,561,cs),
(27,546,o),
(24,526,o),
(31,508,cs),
(37,489,o),
(52,473,o),
(80,472,c),
(153,472,l),
(153,302,l),
(73,302,ls),
(58,302,o),
(45,300,o),
(36,297,c),
(16,288,o),
(-3,269,o),
(-7,244,c),
(-12,218,o),
(-9,185,o),
(4,169,c),
(16,152,o),
(41,136,o),
(76,136,c)
);
},
{
closed = 1;
nodes = (
(932,426,o),
(956,450,o),
(955,498,c),
(955,643,l),
(958,688,o),
(926,723,o),
(890,723,cs),
(528,723,ls),
(484,722,o),
(451,683,o),
(451,643,cs),
(451,503,ls),
(451,454,o),
(481,426,o),
(522,426,cs),
(900,426,ls)
);
},
{
closed = 1;
nodes = (
(572,503,o),
(564,508,o),
(561,519,c),
(561,536,l),
(848,536,l),
(848,521,l),
(849,512,o),
(842,507,o),
(827,506,c),
(586,506,l)
);
},
{
closed = 1;
nodes = (
(561,631,ls),
(561,642,o),
(568,648,o),
(582,649,c),
(826,649,ls),
(840,649,o),
(848,642,o),
(848,630,cs),
(848,616,l),
(561,616,l)
);
}
);
vertWidth = 1024;
width = 1024;
}
);
note = uni5834;
unicode = 22580;
},
{
color = 1;
glyphname = uni5857;
lastChange = "2023-08-10 14:28:39 +0000";
layers = (
{
background = {
shapes = (
{
attr = {
strokeWidth = 0.142;
};
closed = 1;
nodes = (
(29,-3,l),
(995,-3,l),
(995,733,l),
(29,733,l)
);
}
);
};
layerId = "0A3FE703-33D8-4A7C-9AA9-9C187B3DD6D1";
shapes = (
{
closed = 1;
nodes = (
(852,1,ls),
(906,1,o),
(906,85,o),
(852,85,cs),
(603,85,l),
(603,128,l),
(768,128,ls),
(791,128,o),
(810,148,o),
(810,171,cs),
(810,195,o),
(791,214,o),
(768,214,cs),
(603,214,l),
(600,279,o),
(499,279,o),
(497,214,c),
(343,214,ls),
(320,214,o),
(301,195,o),
(301,171,cs),
(301,148,o),
(320,128,o),
(343,128,cs),
(497,128,l),
(497,85,l),
(238,85,ls),
(184,85,o),
(184,1,o),
(238,1,cs)
);
},
{
closed = 1;
nodes = (
(323,332,ls),
(362,377,o),
(302,420,o),
(264,383,cs),
(159,280,ls),
(114,235,o),
(187,170,o),
(226,217,cs)
);
},
{
closed = 1;
nodes = (
(222,428,ls),
(246,429,o),
(261,449,o),
(260,475,cs),
(259,499,o),
(238,519,o),
(213,518,cs),
(137,515,ls),
(78,512,o),
(82,422,o),
(139,425,cs)
);
},
{
closed = 1;
nodes = (
(516,289,ls),
(532,301,o),
(536,322,o),
(524,339,cs),
(511,355,o),
(490,360,o),
(473,349,cs),
(408,304,ls),
(390,291,o),
(390,265,o),
(404,250,cs),
(419,235,o),
(439,232,o),
(455,244,cs)
);
},
{
closed = 1;
nodes = (
(332,617,o),
(286,651,o),
(258,671,cs),
(252,676,o),
(247,680,o),
(242,684,cs),
(195,721,o),
(137,647,o),
(184,609,c),
(189,606,o),
(195,601,o),
(201,595,cs),
(226,573,o),
(268,538,o),
(299,578,cs)
);
},
{
closed = 1;
nodes = (
(640,275,o),
(655,292,o),
(655,313,cs),
(655,376,l),
(740,376,ls),
(763,376,o),
(781,391,o),
(781,414,cs),
(781,439,o),
(761,450,o),
(737,450,cs),
(654,450,l),
(654,481,l),
(703,481,ls),
(751,481,o),
(751,554,o),
(703,554,cs),
(530,554,ls),
(483,554,o),
(483,481,o),
(530,481,cs),
(575,481,l),
(575,450,l),
(478,450,ls),
(429,450,o),
(429,376,o),
(478,376,cs),
(576,376,l),
(576,310,ls),
(576,289,o),
(594,275,o),
(616,275,cs)
);
},
{
closed = 1;
nodes = (
(754,241,o),
(779,241,o),
(794,257,cs),
(809,273,o),
(809,300,o),
(792,314,cs),
(752,348,ls),
(738,360,o),
(716,361,o),
(701,345,cs),
(685,329,o),
(688,307,o),
(701,294,cs),
(738,257,ls)
);
},
{
closed = 1;
nodes = (
(450,519,o),
(544,599,o),
(587,653,cs),
(595,662,o),
(607,663,o),
(616,656,cs),
(659,627,o),
(859,437,o),
(897,514,cs),
(908,533,o),
(901,558,o),
(882,569,c),
(814,602,o),
(696,676,o),
(637,722,cs),
(620,736,o),
(593,735,o),
(577,721,cs),
(521,674,o),
(409,593,o),
(347,555,cs),
(328,543,o),
(322,518,o),
(334,500,cs),
(345,482,o),
(370,476,o),
(389,487,cs)
);
}
);
width = 1024;
}
);
unicode = 22615;
},
{
color = 4;
glyphname = uni590F;
lastChange = "2023-08-08 15:22:58 +0000";
layers = (
{
layerId = "0A3FE703-33D8-4A7C-9AA9-9C187B3DD6D1";
shapes = (
{
closed = 1;
nodes = (
(334,485,l),
(334,527,l),
(691,527,l),
(691,485,l)
);
},
{
closed = 1;
nodes = (
(30,45,o),
(52,22,o),
(78,22,cs),
(86,22,o),
(95,24,o),
(100,28,c),
(178,67,o),
(244,121,o),
(301,184,c),
(354,148,o),
(414,118,o),
(473,89,c),
(454,83,o),
(435,78,o),
(413,75,cs),
(392,73,o),
(373,55,o),
(373,30,cs),
(373,4,o),
(393,-16,o),
(418,-16,cs),
(421,-16,ls),
(484,-10,o),
(540,13,o),
(587,49,c),
(700,11,o),
(819,-12,o),
(945,-16,cs),
(973,-16,o),
(993,6,o),
(993,32,cs),
(993,58,o),
(973,82,o),
(946,82,cs),
(848,83,o),
(750,97,o),
(660,121,c),
(678,148,o),
(694,178,o),
(704,211,cs),
(706,216,o),
(706,221,o),
(706,228,cs),
(706,259,o),
(682,283,o),
(652,283,cs),
(531,283,ls),
(506,283,o),
(488,265,o),
(488,242,cs),
(488,220,o),
(506,202,o),
(531,202,cs),
(604,202,l),
(593,184,o),
(580,165,o),
(565,150,c),
(490,176,o),
(419,211,o),
(353,250,c),
(367,270,o),
(379,293,o),
(392,313,c),
(711,313,ls),
(746,313,o),
(779,346,o),
(779,381,cs),
(779,628,ls),
(779,667,o),
(746,696,o),
(711,696,cs),
(556,696,l),
(556,745,l),
(842,745,ls),
(862,745,o),
(879,761,o),
(879,783,cs),
(879,804,o),
(862,820,o),
(842,820,cs),
(183,820,ls),
(161,820,o),
(145,804,o),
(145,783,cs),
(145,761,o),
(161,745,o),
(183,745,cs),
(467,745,l),
(467,696,l),
(314,696,ls),
(276,696,o),
(246,667,o),
(246,628,cs),
(246,381,ls),
(246,356,o),
(262,331,o),
(285,322,c),
(228,234,o),
(149,162,o),
(57,113,cs),
(43,105,o),
(30,88,o),
(30,71,cs)
);
},
{
closed = 1;
nodes = (
(691,402,o),
(670,379,o),
(644,379,cs),
(379,379,ls),
(353,379,o),
(334,402,o),
(334,428,c),
(691,428,l)
);
},
{
closed = 1;
nodes = (
(334,581,l),
(334,610,o),
(353,629,o),
(379,629,cs),
(644,629,ls),
(670,629,o),
(691,610,o),
(691,581,c)
);
}
);
vertWidth = 1024;
width = 1024;
},
{
associatedMasterId = "0A3FE703-33D8-4A7C-9AA9-9C187B3DD6D1";
layerId = "D01A490C-80AE-4CD9-A223-EC64B4FC5C3A";
name = "23年8月8日 23:21";
shapes = (
{
closed = 1;
nodes = (
(364,573,o),
(364,578,o),
(368,583,c),
(371,588,o),
(377,591,o),
(384,591,cs),
(649,591,l),
(656,592,o),
(665,591,o),
(671,587,c),
(677,582,o),
(681,575,o),
(681,564,c),
(365,564,l)
);
},
{
closed = 1;
nodes = (
(681,470,l),
(365,470,l),
(365,499,l),
(681,499,l)
);
},
{
closed = 1;
nodes = (
(681,398,o),
(671,386,o),
(654,385,c),
(388,385,l),
(380,386,o),
(374,391,o),
(370,396,c),
(365,401,o),
(364,408,o),
(365,415,c),
(680,415,l)
);
},
{
closed = 1;
nodes = (
(704,146,o),
(706,153,o),
(709,159,c),
(712,164,o),
(714,169,o),
(716,174,c),
(719,183,o),
(722,193,o),
(724,199,cs),
(726,205,o),
(727,207,o),
(728,214,c),
(729,217,o),
(729,220,o),
(730,223,c),
(731,225,o),
(731,228,o),
(730,232,c),
(729,240,o),
(726,253,o),
(718,267,c),
(709,281,o),
(693,289,o),
(653,292,c),
(536,292,l),
(524,291,o),
(515,289,o),
(510,286,cs),
(498,281,o),
(492,270,o),
(491,262,cs),
(490,253,o),
(492,245,o),
(499,239,cs),
(506,232,o),
(513,228,o),
(522,225,c),
(530,221,o),
(540,218,o),
(546,218,cs),
(549,218,o),
(551,218,o),
(553,217,c),
(554,216,o),
(556,215,o),
(558,214,cs),
(560,213,o),
(563,212,o),
(566,209,c),
(573,204,o),
(577,192,o),
(569,171,c),
(513,189,o),
(460,220,o),
(426,257,c),
(452,307,l),
(737,307,ls),
(773,307,o),
(812,328,o),
(813,357,c),
(813,629,l),
(812,659,o),
(788,674,o),
(756,674,cs),
(595,674,l),
(595,708,l),
(847,708,l),
(868,709,o),
(878,718,o),
(884,730,cs),
(890,742,o),
(895,753,o),
(896,763,c),
(896,773,o),
(894,781,o),
(889,794,cs),
(885,808,o),
(877,818,o),
(856,821,c),
(192,821,ls),
(175,821,o),
(165,813,o),
(160,801,cs),
(155,788,o),
(155,781,o),
(155,769,cs),
(155,763,o),
(155,758,o),
(155,754,cs),
(155,749,o),
(156,743,o),
(158,738,cs),
(162,727,o),
(170,717,o),
(187,712,c),
(453,712,l),
(453,674,l),
(275,674,l),
(250,671,o),
(232,650,o),
(234,628,c),
(234,349,ls),
(234,341,o),
(238,331,o),
(247,323,c),
(255,315,o),
(264,309,o),
(275,302,c),
(250,252,o),
(207,198,o),
(179,174,cs),
(151,151,o),
(136,143,o),
(115,133,cs),
(95,124,o),
(82,118,o),
(61,111,c),
(51,107,o),
(43,102,o),
(38,97,c),
(25,86,o),
(22,75,o),
(21,64,cs),
(20,52,o),
(22,42,o),
(26,37,c),
(29,31,o),
(35,27,o),
(42,23,c),
(49,18,o),
(55,16,o),
(63,16,cs),
(67,16,o),
(71,16,o),
(74,17,c),
(77,17,o),
(82,17,o),
(85,17,cs),
(88,17,o),
(91,17,o),
(93,18,c),
(95,18,o),
(98,18,o),
(101,18,cs),
(104,18,o),
(108,19,o),
(114,20,cs),
(120,21,o),
(129,24,o),
(142,28,c),
(153,31,o),
(171,39,o),
(195,50,cs),
(243,71,o),
(301,107,o),
(370,180,c),
(400,150,o),
(433,125,o),
(470,106,c),
(463,101,o),
(456,96,o),
(449,93,c),
(435,84,o),
(414,74,o),
(405,71,c),
(396,67,o),
(384,63,o),
(378,53,cs),
(372,43,o),
(370,29,o),
(370,22,cs),
(370,14,o),
(372,7,o),
(376,1,cs),
(380,-5,o),
(387,-10,o),
(396,-14,c),
(404,-20,o),
(411,-22,o),
(415,-22,cs),
(416,-22,o),
(419,-22,o),
(422,-22,cs),
(425,-22,o),
(428,-22,o),
(433,-21,c),
(442,-20,o),
(445,-19,o),
(457,-18,c),
(463,-18,o),
(468,-18,o),
(473,-17,c),
(482,-15,o),
(496,-12,o),
(509,-8,cs),
(521,-4,o),
(532,1,o),
(552,10,c),
(571,18,o),
(591,25,o),
(624,38,c),
(670,23,o),
(709,12,o),
(741,4,cs),
(805,-12,o),
(829,-14,o),
(855,-17,cs),
(867,-18,o),
(876,-19,o),
(881,-20,cs),
(886,-21,o),
(892,-22,o),
(902,-22,cs),
(911,-22,o),
(917,-22,o),
(920,-22,c),
(923,-23,o),
(928,-23,o),
(933,-22,c),
(938,-22,o),
(942,-22,o),
(945,-22,cs),
(947,-22,o),
(950,-22,o),
(954,-21,cs),
(958,-20,o),
(962,-20,o),
(967,-19,cs),
(972,-18,o),
(977,-17,o),
(982,-14,cs),
(992,-10,o),
(999,-4,o),
(1002,8,cs),
(1005,20,o),
(1001,37,o),
(991,50,cs),
(982,63,o),
(967,75,o),
(939,83,cs),
(911,92,o),
(887,96,o),
(856,101,cs),
(839,104,o),
(824,107,o),
(810,110,cs),
(781,116,o),
(743,125,o),
(701,139,c)
);
}
);
vertWidth = 1024;
visible = 1;
width = 1024;
}
);
note = uni590F;
unicode = 22799;
},
{
glyphname = uni591C;
lastChange = "2023-08-06 13:19:05 +0000";
layers = (
{
layerId = "0A3FE703-33D8-4A7C-9AA9-9C187B3DD6D1";
shapes = (
{
closed = 1;
nodes = (
(272,-26,o),
(283,-24,o),
(290,-20,cs),
(306,-12,o),
(316,5,o),
(316,29,cs),
(316,384,l),
(315,396,o),
(312,405,o),
(307,411,c),
(329,461,o),
(344,498,o),
(350,522,c),
(355,545,o),
(358,561,o),
(359,571,c),
(360,589,o),
(355,605,o),
(344,616,cs),
(332,626,o),
(316,630,o),
(297,630,c),
(277,629,o),
(258,616,o),
(248,596,cs),
(243,587,o),
(228,546,o),
(207,476,cs),
(184,404,o),
(166,355,o),
(152,328,cs),
(122,273,o),
(101,248,o),
(79,225,cs),
(68,213,o),
(61,201,o),
(57,191,cs),
(49,170,o),
(52,143,o),
(74,132,cs),
(97,121,o),
(120,130,o),
(137,147,cs),
(155,164,o),
(170,177,o),
(198,221,c),
(198,29,ls),
(198,20,o),
(200,12,o),
(204,3,cs),
(212,-14,o),
(225,-24,o),
(258,-27,c)
);
},
{
closed = 1;
nodes = (
(866,-24,o),
(882,-25,o),
(895,-24,c),
(923,-23,o),
(945,-18,o),
(963,-7,cs),
(979,5,o),
(983,14,o),
(987,31,c),
(990,47,o),
(983,66,o),
(970,79,c),
(957,91,o),
(931,94,o),
(898,95,cs),
(882,96,o),
(863,98,o),
(839,103,cs),
(792,113,o),
(762,123,o),
(693,167,c),
(761,280,o),
(811,397,o),
(844,519,c),
(853,554,o),
(839,591,o),
(794,591,cs),
(629,591,l),
(616,625,o),
(603,632,o),
(582,632,cs),
(571,632,o),
(562,630,o),
(555,627,cs),
(539,620,o),
(538,608,o),
(528,575,cs),
(518,541,o),
(499,495,o),
(482,455,cs),
(465,416,o),
(446,388,o),
(424,373,c),
(399,389,o),
(381,397,o),
(373,396,cs),
(364,395,o),
(357,392,o),
(350,388,c),
(336,379,o),
(326,365,o),
(338,332,cs),
(345,316,o),
(359,295,o),
(382,271,cs),
(428,221,o),
(486,163,o),
(591,94,cs),
(696,26,o),
(823,-22,o),
(848,-23,cs)
);
},
{
closed = 1;
nodes = (
(633,284,o),
(613,253,o),
(591,228,c),
(558,245,o),
(531,266,o),
(510,289,c),
(535,312,o),
(556,339,o),
(571,371,c),
(582,351,o),
(606,339,o),
(652,320,c)
);
},
{
closed = 1;
nodes = (
(709,453,o),
(701,432,o),
(689,408,c),
(662,422,o),
(625,442,o),
(602,442,c),
(622,493,l),
(704,493,l),
(713,492,o),
(717,486,o),
(714,473,cs)
);
},
{
closed = 1;
nodes = (
(857,639,o),
(869,644,o),
(877,651,cs),
(893,666,o),
(898,690,o),
(894,712,cs),
(890,735,o),
(877,750,o),
(844,753,c),
(574,753,l),
(573,777,o),
(571,794,o),
(566,806,cs),
(556,831,o),
(530,841,o),
(503,841,cs),
(489,841,o),
(477,839,o),
(466,834,cs),
(445,824,o),
(430,805,o),
(429,753,c),
(171,753,l),
(157,752,o),
(145,749,o),
(134,742,cs),
(114,729,o),
(108,702,o),
(114,679,cs),
(120,654,o),
(134,638,o),
(166,637,cs),
(841,637,l)
);
}
);
vertWidth = 1024;
width = 1024;
}
);
note = uni591C;
unicode = 22812;
},
{
color = 5;
glyphname = uni5927;
lastChange = "2023-08-08 14:54:03 +0000";
layers = (
{
layerId = "0A3FE703-33D8-4A7C-9AA9-9C187B3DD6D1";
shapes = (
{
closed = 1;
nodes = (
(865,496,o),
(877,509,o),
(882,522,cs),
(887,535,o),
(890,548,o),
(889,558,cs),
(888,568,o),
(887,576,o),
(881,588,cs),
(875,601,o),
(862,611,o),
(838,614,c),
(583,614,l),
(583,752,l),
(582,776,o),
(568,798,o),
(555,807,cs),
(542,816,o),
(529,817,o),
(516,817,cs),
(503,817,o),
(494,816,o),
(481,807,c),
(468,798,o),
(454,779,o),
(453,750,cs),
(453,614,l),
(193,614,l),
(177,611,o),
(161,598,o),
(153,585,c),
(144,573,o),
(145,567,o),
(145,555,cs),
(145,543,o),
(144,535,o),
(151,522,cs),
(158,509,o),
(172,494,o),
(193,493,c),
(445,493,l),
(436,424,o),
(424,383,o),
(403,341,cs),
(381,298,o),
(351,256,o),
(319,222,cs),
(288,189,o),
(253,159,o),
(221,136,cs),
(190,111,o),
(164,95,o),
(149,86,cs),
(141,80,o),
(136,77,o),
(132,76,c),
(129,74,o),
(127,72,o),
(125,70,c),
(123,67,o),
(121,66,o),
(120,65,c),
(117,63,o),
(113,56,o),
(110,48,cs),
(107,40,o),
(105,33,o),
(105,27,cs),
(105,24,o),
(105,21,o),
(105,18,cs),
(105,11,o),
(107,6,o),
(112,-1,cs),
(117,-8,o),
(125,-15,o),
(137,-19,cs),
(148,-24,o),
(160,-23,o),
(178,-17,cs),
(197,-12,o),
(218,-1,o),
(243,15,cs),
(267,31,o),
(294,50,o),
(322,71,cs),
(350,93,o),
(374,113,o),
(407,149,cs),
(440,185,o),
(473,227,o),
(522,320,c),
(545,270,o),
(564,234,o),
(581,209,c),
(614,159,o),
(649,126,o),
(675,102,cs),
(702,77,o),
(723,59,o),
(747,43,cs),
(770,26,o),
(799,6,o),
(819,-5,c),
(839,-17,o),
(853,-23,o),
(865,-26,cs),
(877,-29,o),
(886,-28,o),
(894,-24,c),
(902,-21,o),
(908,-15,o),
(912,-9,cs),
(916,-3,o),
(920,6,o),
(922,15,cs),
(924,24,o),
(923,36,o),
(916,45,cs),
(909,54,o),
(894,67,o),
(882,76,c),
(875,80,o),
(869,85,o),
(863,90,c),
(851,98,o),
(827,115,o),
(804,135,cs),
(779,154,o),
(745,191,o),
(714,230,cs),
(683,270,o),
(656,311,o),
(633,357,cs),
(611,402,o),
(596,451,o),
(593,493,c),
(845,493,l)
);
}
);
vertWidth = 1024;
width = 1024;
}
);
note = uni5927;
unicode = 22823;
},
{
color = 5;
glyphname = uni5929;
lastChange = "2023-08-08 14:54:03 +0000";
layers = (
{
layerId = "0A3FE703-33D8-4A7C-9AA9-9C187B3DD6D1";
name = Regular;
shapes = (
{
closed = 1;
nodes = (
(535,256,o),
(550,229,o),
(564,211,cs),
(591,175,o),
(613,151,o),
(632,133,cs),
(649,115,o),
(673,95,o),
(693,79,cs),
(712,63,o),
(730,50,o),
(747,39,cs),
(755,34,o),
(764,29,o),
(775,23,cs),
(784,18,o),
(793,14,o),
(801,11,cs),
(816,4,o),
(830,-1,o),
(841,-1,cs),
(851,-1,o),
(859,3,o),
(865,7,cs),
(870,11,o),
(875,16,o),
(877,23,cs),
(880,29,o),
(881,39,o),
(878,50,cs),
(874,60,o),
(871,68,o),
(861,76,cs),
(858,78,o),
(855,81,o),
(852,83,cs),
(846,88,o),
(841,92,o),
(834,95,cs),
(831,96,o),
(829,97,o),
(828,98,c),
(825,99,o),
(823,101,o),
(821,102,cs),
(820,103,o),
(818,104,o),
(816,105,cs),
(814,106,o),
(813,107,o),
(811,108,cs),
(804,112,o),
(790,121,o),
(771,138,cs),
(751,153,o),
(733,168,o),
(712,190,cs),
(710,192,o),
(707,195,o),
(704,199,c),
(697,205,o),
(691,212,o),
(683,218,c),
(662,242,o),
(649,257,o),
(638,275,cs),
(625,293,o),
(615,312,o),
(606,336,cs),
(597,361,o),
(588,392,o),
(582,434,c),
(822,434,l),
(838,438,o),
(847,449,o),
(851,460,cs),
(856,470,o),
(857,474,o),
(857,483,cs),
(857,491,o),
(857,498,o),
(851,508,c),
(847,519,o),
(836,528,o),
(823,528,cs),
(566,528,l),
(566,677,l),
(758,677,l),
(777,680,o),
(786,690,o),
(789,699,cs),
(792,711,o),
(794,719,o),
(794,727,cs),
(794,736,o),
(793,740,o),
(789,750,c),
(783,760,o),
(773,768,o),
(755,772,c),
(273,772,ls),
(252,772,o),
(243,761,o),
(239,748,cs),
(234,737,o),
(234,732,o),
(234,723,cs),
(234,715,o),
(234,711,o),
(238,700,cs),
(241,690,o),
(249,682,o),
(275,677,c),
(462,677,l),
(462,528,l),
(219,528,ls),
(200,528,o),
(188,520,o),
(181,510,cs),
(175,500,o),
(175,494,o),
(175,483,cs),
(175,472,o),
(175,464,o),
(181,455,cs),
(188,444,o),
(197,436,o),
(217,434,c),
(449,434,l),
(446,420,o),
(444,408,o),
(442,398,cs),
(441,394,o),
(441,390,o),
(440,387,cs),
(435,364,o),
(426,340,o),
(418,320,cs),
(409,302,o),
(398,284,o),
(386,268,cs),
(375,253,o),
(363,237,o),
(353,225,cs),
(348,220,o),
(343,214,o),
(337,208,cs),
(327,197,o),
(315,185,o),
(304,175,cs),
(287,160,o),
(271,146,o),
(250,131,cs),
(248,129,o),
(245,128,o),
(243,126,cs),
(236,121,o),
(230,117,o),
(225,113,cs),
(217,107,o),
(209,102,o),
(201,99,cs),
(193,96,o),
(189,93,o),
(184,90,cs),
(181,88,o),
(180,87,o),
(178,85,c),
(175,84,o),
(173,82,o),
(170,81,c),
(163,77,o),
(154,69,o),
(148,60,c),
(144,51,o),
(143,36,o),
(144,25,cs),
(144,15,o),
(148,9,o),
(157,3,cs),
(167,-5,o),
(175,-9,o),
(188,-9,cs),
(195,-9,o),
(201,-8,o),
(208,-5,cs),
(221,-1,o),
(237,5,o),
(254,14,cs),
(270,23,o),
(286,35,o),
(314,56,cs),
(340,75,o),
(363,93,o),
(398,125,cs),
(432,157,o),
(469,202,o),
(517,287,c)
);
}
);
vertWidth = 1024;
visible = 1;
width = 1024;
}
);
note = uni5929;
unicode = 22825;
},
{
glyphname = uni5B57;
lastChange = "2023-08-08 06:51:28 +0000";
layers = (
{
layerId = "0A3FE703-33D8-4A7C-9AA9-9C187B3DD6D1";
shapes = (
{
closed = 1;
nodes = (
(538,5,o),
(588,57,o),
(588,120,cs),
(588,278,l),
(874,278,ls),
(899,278,o),
(920,298,o),
(920,325,cs),
(920,350,o),
(899,369,o),
(874,369,cs),
(574,369,l),
(573,373,o),
(571,376,o),
(570,379,cs),
(568,382,o),
(565,387,o),
(564,391,c),
(643,416,o),
(706,455,o),
(755,514,c),
(763,524,o),
(769,536,o),
(769,554,cs),
(769,587,o),
(744,612,o),
(711,612,cs),
(310,612,ls),
(285,612,o),
(266,593,o),
(266,566,cs),
(266,541,o),
(285,523,o),
(310,523,cs),
(616,523,l),
(619,514,l),
(584,492,o),
(544,478,o),
(496,466,cs),
(465,460,o),
(448,432,o),
(448,406,cs),
(448,395,o),
(452,382,o),
(461,369,c),
(157,369,ls),
(131,369,o),
(111,351,o),
(111,325,cs),
(111,298,o),
(131,278,o),
(157,278,cs),
(498,278,l),
(498,120,ls),
(498,103,o),
(489,96,o),
(473,96,cs),
(444,96,o),
(419,101,o),
(386,118,cs),
(380,121,o),
(373,123,o),
(366,123,cs),
(339,123,o),
(320,103,o),
(320,77,cs),
(320,62,o),
(330,45,o),
(347,35,cs),
(390,16,o),
(431,5,o),
(473,5,cs)
);
},
{
closed = 1;
nodes = (
(572,760,l),
(569,783,o),
(562,801,o),
(551,809,cs),
(538,817,o),
(530,818,o),
(518,818,cs),
(506,818,o),
(498,817,o),
(486,810,cs),
(473,802,o),
(460,787,o),
(460,759,cs),
(460,740,l),
(225,740,ls),
(205,740,o),
(191,736,o),
(180,731,cs),
(157,722,o),
(142,704,o),
(135,692,cs),
(127,679,o),
(117,663,o),
(109,649,cs),
(102,631,o),
(96,615,o),
(92,595,cs),
(88,576,o),
(86,564,o),
(88,557,cs),
(90,547,o),
(93,540,o),
(102,535,cs),
(109,530,o),
(118,527,o),
(128,527,cs),
(135,527,o),
(145,528,o),
(154,532,cs),
(162,536,o),
(170,544,o),
(175,556,cs),
(179,565,o),
(185,582,o),
(189,593,c),
(190,600,o),
(192,605,o),
(194,608,c),
(195,611,o),
(197,614,o),
(199,619,cs),
(201,624,o),
(202,627,o),
(205,632,cs),
(210,640,o),
(214,646,o),
(221,651,cs),
(227,655,o),
(234,657,o),
(246,658,c),
(802,658,ls),
(822,658,o),
(829,648,o),
(835,634,cs),
(841,622,o),
(844,610,o),
(847,594,cs),
(848,588,o),
(850,581,o),
(852,576,cs),
(855,564,o),
(857,558,o),
(863,551,cs),
(869,543,o),
(877,540,o),
(889,538,cs),
(900,536,o),
(913,538,o),
(921,542,cs),
(927,546,o),
(934,556,o),
(938,562,cs),
(941,569,o),
(943,578,o),
(941,591,cs),
(939,604,o),
(936,618,o),
(932,634,cs),
(927,651,o),
(923,662,o),
(919,674,cs),
(914,686,o),
(906,700,o),
(895,716,cs),
(885,730,o),
(870,740,o),
(850,740,cs),
(572,740,l)
);
}
);
width = 1024;
},
{
associatedMasterId = "0A3FE703-33D8-4A7C-9AA9-9C187B3DD6D1";
layerId = "44FB01CB-C45B-4A83-8D0D-8D5DC53DBA79";
name = "23年8月7日 00:44";
shapes = (
{
closed = 1;
nodes = (
(191,546,o),
(214,570,o),
(214,598,cs),
(214,683,l),
(816,683,l),
(816,598,ls),
(816,570,o),
(840,546,o),
(868,546,cs),
(898,546,o),
(921,570,o),
(921,598,cs),
(921,707,ls),
(921,751,o),
(885,787,o),
(840,787,cs),
(567,787,l),
(567,821,ls),
(567,850,o),
(544,873,o),
(515,873,cs),
(487,873,o),
(463,850,o),
(463,821,cs),
(463,787,l),
(191,787,ls),
(146,787,o),
(110,751,o),
(110,707,cs),
(110,598,ls),
(110,570,o),
(133,546,o),
(161,546,cs)
);
},
{
closed = 1;
nodes = (
(541,0,o),
(596,56,o),
(596,124,cs),
(596,284,l),
(889,284,ls),
(917,284,o),
(941,308,o),
(941,337,cs),
(941,366,o),
(917,389,o),
(889,389,cs),
(580,389,l),
(578,394,o),
(575,398,o),
(573,403,c),
(653,429,o),
(718,470,o),
(768,531,c),
(778,541,o),
(785,556,o),
(785,575,cs),
(785,612,o),
(755,641,o),
(719,641,cs),
(302,641,ls),
(274,641,o),
(250,618,o),
(250,589,cs),
(250,560,o),
(274,538,o),
(302,538,cs),
(620,538,l),
(585,515,o),
(544,501,o),
(494,489,cs),
(460,482,o),
(440,451,o),
(440,422,cs),
(440,412,o),
(443,400,o),
(449,389,c),
(142,389,ls),
(113,389,o),
(90,366,o),
(90,337,cs),
(90,308,o),
(113,284,o),
(142,284,cs),
(492,284,l),
(492,124,ls),
(492,110,o),
(485,104,o),
(472,104,cs),
(442,104,o),
(417,110,o),
(383,126,cs),
(376,130,o),
(368,132,o),
(359,132,cs),
(330,132,o),
(307,109,o),
(307,80,cs),
(307,62,o),
(318,42,o),
(338,32,cs),
(383,11,o),
(427,0,o),
(472,0,cs)
);
}
);
visible = 1;
width = 1024;
},
{
associatedMasterId = "0A3FE703-33D8-4A7C-9AA9-9C187B3DD6D1";
layerId = "A6EAD0CE-2572-45C4-9A69-1481EB4C208A";
name = "23年8月8日 14:51";
shapes = (
{
closed = 1;
nodes = (
(538,5,o),
(588,57,o),
(588,120,cs),
(588,278,l),
(874,278,ls),
(899,278,o),
(920,298,o),
(920,325,cs),
(920,350,o),
(899,369,o),
(874,369,cs),
(574,369,l),
(573,373,o),
(571,376,o),
(570,379,cs),
(568,382,o),
(565,387,o),
(564,391,c),
(643,416,o),
(706,455,o),
(755,514,c),
(763,524,o),
(769,536,o),
(769,554,cs),
(769,587,o),
(744,612,o),
(711,612,cs),
(310,612,ls),
(285,612,o),
(266,593,o),
(266,566,cs),
(266,541,o),
(285,523,o),
(310,523,cs),
(616,523,l),
(619,514,l),
(584,492,o),
(544,478,o),
(496,466,cs),
(465,460,o),
(448,432,o),
(448,406,cs),
(448,395,o),
(452,382,o),
(461,369,c),
(157,369,ls),
(131,369,o),
(111,351,o),
(111,325,cs),
(111,298,o),
(131,278,o),
(157,278,cs),
(498,278,l),
(498,120,ls),
(498,103,o),
(489,96,o),
(473,96,cs),
(444,96,o),
(419,101,o),
(386,118,cs),
(380,121,o),
(373,123,o),
(366,123,cs),
(339,123,o),
(320,103,o),
(320,77,cs),
(320,62,o),
(330,45,o),
(347,35,cs),
(390,16,o),
(431,5,o),
(473,5,cs)
);
},
{
closed = 1;
nodes = (
(572,760,l),
(569,783,o),
(562,801,o),
(551,809,cs),
(538,817,o),
(530,818,o),
(518,818,cs),
(506,818,o),
(498,817,o),
(486,810,cs),
(473,802,o),
(460,787,o),
(460,759,cs),
(460,740,l),
(225,740,ls),
(205,740,o),
(191,736,o),
(180,731,cs),
(157,722,o),
(142,704,o),
(135,692,cs),
(127,679,o),
(117,663,o),
(109,649,cs),
(102,631,o),
(96,615,o),
(92,595,cs),
(88,576,o),
(86,564,o),
(88,557,cs),
(90,547,o),
(93,540,o),
(102,535,cs),
(109,530,o),
(118,527,o),
(128,527,cs),
(135,527,o),
(145,528,o),
(154,532,cs),
(162,536,o),
(170,544,o),
(175,556,cs),
(179,565,o),
(185,582,o),
(189,593,c),
(190,600,o),
(192,605,o),
(194,608,c),
(195,611,o),
(197,614,o),
(199,619,cs),
(201,624,o),
(202,627,o),
(205,632,cs),
(210,640,o),
(214,646,o),
(221,651,cs),
(227,655,o),
(234,657,o),
(246,658,c),
(802,658,ls),
(822,658,o),
(829,648,o),
(835,634,cs),
(841,622,o),
(844,610,o),
(847,594,cs),
(848,588,o),
(850,581,o),
(852,576,cs),
(855,564,o),
(857,558,o),
(863,551,cs),
(869,543,o),
(877,540,o),
(889,538,cs),
(900,536,o),
(913,538,o),
(921,542,cs),
(927,546,o),
(934,556,o),
(938,562,cs),
(941,569,o),
(943,578,o),
(941,591,cs),
(939,604,o),
(936,618,o),
(932,634,cs),
(927,651,o),
(923,662,o),
(919,674,cs),
(914,686,o),
(906,700,o),
(895,716,cs),
(885,730,o),
(870,740,o),
(850,740,cs),
(572,740,l)
);
}
);
width = 1024;
}
);
unicode = 23383;
},
{
color = 1;
glyphname = uni5B9A;
lastChange = "2023-08-10 14:39:18 +0000";
layers = (
{
background = {
shapes = (
{
attr = {
strokeWidth = 0.142;
};
closed = 1;
nodes = (
(29,-3,l),
(995,-3,l),
(995,733,l),
(29,733,l)
);
}
);
};
layerId = "0A3FE703-33D8-4A7C-9AA9-9C187B3DD6D1";
shapes = (
{
closed = 1;
nodes = (
(149,488,o),
(150,617,o),
(238,609,c),
(807,609,ls),
(851,610,o),
(884,569,o),
(912,540,cs),
(948,500,o),
(1015,548,o),
(989,594,c),
(923,753,o),
(721,724,o),
(584,724,c),
(589,816,o),
(445,816,o),
(450,724,c),
(257,724,l),
(173,742,o),
(-37,589,o),
(73,514,c)
);
},
{
closed = 1;
nodes = (
(584,206,l),
(584,289,l),
(780,289,ls),
(807,289,o),
(828,311,o),
(828,338,cs),
(828,364,o),
(807,386,o),
(780,386,cs),
(584,386,l),
(584,452,l),
(774,452,ls),
(803,452,o),
(826,474,o),
(826,502,cs),
(826,531,o),
(803,554,o),
(774,554,cs),
(256,554,ls),
(190,555,o),
(190,451,o),
(256,452,cs),
(450,452,l),
(450,240,l),
(316,273,l),
(364,390,o),
(250,437,o),
(218,348,c),
(194,147,o),
(-6,110,o),
(54,27,c),
(134,-60,o),
(252,127,o),
(284,188,c),
(358,170,o),
(863,-25,o),
(932,-5,c),
(1001,-7,o),
(1014,99,o),
(947,114,cs)
);
}
);
vertWidth = 1024;
width = 1024;
},
{
associatedMasterId = "0A3FE703-33D8-4A7C-9AA9-9C187B3DD6D1";
layerId = "2A57A504-B853-4A25-B06C-7D2B3611E9C0";
name = "23年8月3日 18:14";
shapes = (
{
closed = 1;
nodes = (
(63,-7,o),
(69,-7,o),
(76,-7,cs),
(83,-7,o),
(89,-5,o),
(95,-2,c),
(106,4,o),
(117,10,o),
(128,18,c),
(139,25,o),
(152,35,o),
(163,45,cs),
(174,55,o),
(183,64,o),
(191,72,c),
(194,76,o),
(199,81,o),
(204,86,cs),
(214,96,o),
(220,102,o),
(226,109,cs),
(232,116,o),
(238,122,o),
(243,129,c),
(246,132,o),
(249,136,o),
(253,140,c),
(256,144,o),
(260,148,o),
(263,152,cs),
(266,156,o),
(273,165,o),
(284,178,c),
(373,141,o),
(465,104,o),
(561,78,cs),
(609,65,o),
(656,51,o),
(703,37,cs),
(750,23,o),
(797,12,o),
(846,4,c),
(857,4,o),
(868,4,o),
(880,4,cs),
(891,4,o),
(902,4,o),
(913,5,c),
(933,5,o),
(955,8,o),
(968,13,c),
(981,17,o),
(988,22,o),
(993,28,cs),
(998,34,o),
(1003,38,o),
(1007,49,c),
(1007,64,o),
(1007,73,o),
(1005,82,cs),
(1003,90,o),
(997,103,o),
(979,112,c),
(961,120,o),
(931,122,o),
(880,121,cs),
(854,120,o),
(824,124,o),
(789,131,cs),
(719,145,o),
(659,162,o),
(576,190,c),
(576,263,l),
(768,263,l),
(779,264,o),
(789,267,o),
(797,270,c),
(812,277,o),
(818,289,o),
(822,301,c),
(825,313,o),
(823,323,o),
(822,332,cs),
(821,341,o),
(809,358,o),
(801,362,c),
(797,363,o),
(793,365,o),
(790,367,c),
(786,368,o),
(778,370,o),
(766,372,c),
(576,372,l),
(576,460,l),
(740,460,l),
(757,463,o),
(767,468,o),
(772,473,c),
(781,483,o),
(787,497,o),
(787,511,cs),
(787,518,o),
(786,524,o),
(784,530,c),
(779,542,o),
(776,551,o),
(769,557,c),
(765,560,o),
(756,563,o),
(742,566,c),
(293,566,l),
(281,565,o),
(271,561,o),
(264,555,c),
(248,543,o),
(245,529,o),
(245,517,cs),
(245,505,o),
(246,492,o),
(252,484,cs),
(258,476,o),
(268,465,o),
(293,460,c),
(455,460,l),
(455,222,l),
(424,230,o),
(410,236,o),
(391,244,c),
(381,247,o),
(371,251,o),
(362,255,c),
(352,258,o),
(342,263,o),
(331,269,c),
(342,288,o),
(348,301,o),
(351,308,c),
(353,315,o),
(354,321,o),
(354,326,cs),
(354,335,o),
(354,347,o),
(350,358,cs),
(346,369,o),
(338,375,o),
(333,380,cs),
(328,385,o),
(320,388,o),
(307,392,cs),
(294,396,o),
(280,393,o),
(266,386,cs),
(252,379,o),
(246,374,o),
(243,367,c),
(240,359,o),
(239,355,o),
(236,343,cs),
(233,330,o),
(204,268,o),
(190,249,cs),
(183,239,o),
(178,231,o),
(175,226,c),
(172,220,o),
(168,215,o),
(165,211,c),
(162,206,o),
(158,201,o),
(155,195,c),
(151,189,o),
(147,184,o),
(144,181,cs),
(140,177,o),
(137,173,o),
(134,170,c),
(128,162,o),
(122,156,o),
(115,148,c),
(111,144,o),
(107,139,o),
(102,134,c),
(97,128,o),
(93,123,o),
(89,118,cs),
(85,113,o),
(81,108,o),
(77,103,cs),
(68,92,o),
(59,82,o),
(48,76,c),
(43,73,o),
(39,68,o),
(36,62,cs),
(30,49,o),
(28,35,o),
(31,22,cs),
(34,9,o),
(40,2,o),
(56,-7,c)
);
},
{
closed = 1;
nodes = (
(148,554,o),
(159,571,o),
(169,586,cs),
(179,601,o),
(190,610,o),
(219,637,c),
(805,637,l),
(849,629,o),
(864,608,o),
(873,594,c),
(881,580,o),
(888,565,o),
(920,560,c),
(935,562,o),
(946,565,o),
(951,569,cs),
(956,573,o),
(961,577,o),
(964,581,c),
(971,588,o),
(978,603,o),
(974,620,c),
(969,637,o),
(960,652,o),
(945,671,cs),
(930,690,o),
(914,703,o),
(903,712,c),
(891,721,o),
(877,731,o),
(852,736,c),
(578,736,l),
(578,772,l),
(566,809,o),
(549,812,o),
(532,815,cs),
(515,818,o),
(501,817,o),
(488,813,c),
(475,808,o),
(464,803,o),
(455,772,c),
(455,736,l),
(219,736,l),
(185,730,o),
(161,721,o),
(147,710,cs),
(132,699,o),
(122,690,o),
(116,683,c),
(103,669,o),
(95,657,o),
(84,641,c),
(72,625,o),
(69,607,o),
(70,591,cs),
(71,575,o),
(81,562,o),
(112,553,c)
);
}
);
vertWidth = 1024;
width = 1024;
}
);
note = uni5B9A;
unicode = 23450;
},
{
glyphname = uni5BA2;
lastChange = "2023-08-08 06:51:28 +0000";
layers = (
{
layerId = "0A3FE703-33D8-4A7C-9AA9-9C187B3DD6D1";
shapes = (
{
closed = 1;
nodes = (
(574,758,l),
(571,780,o),
(562,799,o),
(552,806,cs),
(539,814,o),
(531,815,o),
(519,815,cs),
(508,815,o),
(500,814,o),
(488,807,cs),
(475,800,o),
(461,784,o),
(461,757,cs),
(461,737,l),
(227,737,ls),
(208,737,o),
(193,733,o),
(183,729,cs),
(159,719,o),
(144,702,o),
(137,689,cs),
(129,677,o),
(119,661,o),
(112,646,cs),
(104,629,o),
(98,613,o),
(95,593,cs),
(91,574,o),
(89,563,o),
(91,554,cs),
(93,545,o),
(96,538,o),
(104,533,cs),
(112,528,o),
(120,524,o),
(130,524,cs),
(138,524,o),
(147,526,o),
(156,530,cs),
(164,534,o),
(172,542,o),
(177,553,cs),
(182,564,o),
(188,580,o),
(191,592,c),
(192,598,o),
(194,603,o),
(196,606,c),
(197,609,o),
(199,612,o),
(201,616,cs),
(203,621,o),
(205,625,o),
(208,630,cs),
(212,638,o),
(216,643,o),
(223,648,cs),
(229,652,o),
(236,655,o),
(248,656,c),
(803,656,ls),
(822,656,o),
(830,645,o),
(836,632,cs),
(841,619,o),
(844,608,o),
(847,592,cs),
(848,586,o),
(850,579,o),
(852,574,cs),
(855,563,o),
(858,555,o),
(864,548,cs),
(870,541,o),
(878,538,o),
(889,536,cs),
(901,534,o),
(913,536,o),
(921,540,cs),
(928,544,o),
(934,553,o),
(938,561,cs),
(941,568,o),
(943,576,o),
(941,589,cs),
(939,602,o),
(936,615,o),
(932,632,cs),
(928,648,o),
(923,661,o),
(919,672,cs),
(914,684,o),
(907,698,o),
(896,713,cs),
(885,728,o),
(871,737,o),
(850,737,cs),
(574,737,l)
);
},
{
closed = 1;
nodes = (
(620,419,ls),
(625,421,o),
(629,425,o),
(634,428,cs),
(647,434,o),
(659,442,o),
(675,452,c),
(667,447,o),
(686,459,o),
(696,464,c),
(698,466,o),
(699,467,o),
(701,468,cs),
(702,469,o),
(713,479,o),
(722,486,cs),
(733,496,o),
(746,514,o),
(749,534,cs),
(751,549,o),
(745,563,o),
(743,568,c),
(734,581,o),
(732,584,o),
(726,588,cs),
(717,593,o),
(712,596,o),
(701,598,cs),
(699,598,o),
(696,599,o),
(691,599,cs),
(682,600,o),
(673,600,o),
(662,601,c),
(534,601,l),
(541,609,o),
(548,617,o),
(549,630,cs),
(552,650,o),
(537,663,o),
(531,665,c),
(515,675,o),
(513,676,o),
(504,676,cs),
(495,676,o),
(485,674,o),
(474,671,cs),
(467,668,o),
(458,665,o),
(447,656,cs),
(436,645,ls),
(433,642,o),
(429,639,o),
(424,638,cs),
(419,632,o),
(417,630,o),
(411,627,c),
(406,621,o),
(389,611,o),
(357,592,c),
(347,584,o),
(340,579,o),
(328,572,c),
(315,563,o),
(304,557,o),
(291,549,c),
(292,549,o),
(285,545,o),
(282,545,cs),
(279,543,o),
(277,541,o),
(274,540,c),
(263,533,l),
(264,534,o),
(258,527,o),
(254,523,cs),
(246,517,o),
(233,490,o),
(242,475,cs),
(250,459,o),
(260,448,o),
(276,448,cs),
(285,447,o),
(289,448,o),
(303,452,cs),
(312,454,o),
(326,462,o),
(361,483,c),
(384,457,o),
(407,435,o),
(431,422,c),
(413,413,o),
(393,406,o),
(373,397,cs),
(337,383,o),
(278,360,o),
(239,348,cs),
(206,336,o),
(186,332,o),
(159,327,c),
(125,320,ls),
(96,314,o),
(84,292,o),
(87,278,cs),
(95,237,o),
(133,237,o),
(165,240,cs),
(190,241,o),
(228,247,o),
(283,264,cs),
(334,278,o),
(409,310,o),
(528,361,c),
(578,330,o),
(606,315,o),
(629,306,cs),
(661,290,o),
(681,282,o),
(704,274,cs),
(732,265,o),
(757,258,o),
(777,254,cs),
(802,249,o),
(825,245,o),
(842,244,cs),
(862,241,o),
(876,239,o),
(897,237,cs),
(918,235,o),
(926,235,o),
(934,237,cs),
(940,238,o),
(941,240,o),
(950,251,c),
(953,253,o),
(954,264,o),
(955,271,cs),
(955,279,o),
(954,288,o),
(952,293,cs),
(944,307,o),
(940,311,o),
(932,313,cs),
(916,320,o),
(909,319,o),
(896,320,cs),
(886,320,o),
(876,321,o),
(867,323,c),
(846,325,o),
(815,330,o),
(796,336,cs),
(770,341,o),
(751,346,o),
(737,352,cs),
(713,360,o),
(691,367,o),
(676,374,c),
(671,377,o),
(669,378,o),
(663,380,cs),
(656,383,ls),
(637,390,o),
(620,400,o),
(602,410,c)
);
},
{
closed = 1;
nodes = (
(517,465,o),
(511,469,o),
(505,475,c),
(478,496,ls),
(459,511,o),
(448,521,o),
(443,526,c),
(444,527,o),
(448,530,o),
(450,531,c),
(453,533,o),
(456,535,o),
(460,537,c),
(531,537,ls),
(550,537,o),
(565,535,o),
(571,533,cs),
(577,532,o),
(586,528,o),
(586,528,c),
(598,521,o),
(598,520,o),
(598,512,cs),
(598,511,o),
(596,510,o),
(593,509,c),
(591,505,o),
(584,500,o),
(572,492,cs),
(567,488,o),
(550,477,o),
(523,461,c)
);
},
{
closed = 1;
nodes = (
(330,174,o),
(341,182,o),
(361,182,cs),
(650,182,ls),
(666,182,o),
(677,170,o),
(677,146,cs),
(677,111,ls),
(677,88,o),
(667,80,o),
(649,80,cs),
(357,80,ls),
(342,80,o),
(330,97,o),
(330,113,cs),
(330,157,ls)
);
},
{
closed = 1;
nodes = (
(242,81,ls),
(242,41,o),
(269,0,o),
(306,0,cs),
(698,0,ls),
(742,0,o),
(766,21,o),
(766,77,cs),
(766,174,ls),
(766,229,o),
(739,262,o),
(699,262,cs),
(316,262,ls),
(268,262,o),
(242,242,o),
(242,202,cs)
);
}
);
width = 1024;
},
{
associatedMasterId = "0A3FE703-33D8-4A7C-9AA9-9C187B3DD6D1";
layerId = "5E021A4F-7735-47A2-900A-4649716E73DF";
name = "23年8月7日 00:15";
shapes = (
{
closed = 1;
nodes = (
(575,771,l),
(572,794,o),
(563,813,o),
(552,821,cs),
(539,829,o),
(530,830,o),
(518,830,cs),
(506,830,o),
(498,829,o),
(485,822,cs),
(472,814,o),
(457,798,o),
(457,770,cs),
(457,749,l),
(213,749,ls),
(193,749,o),
(178,745,o),
(167,740,cs),
(142,730,o),
(127,712,o),
(119,699,cs),
(111,686,o),
(101,670,o),
(93,654,cs),
(85,636,o),
(79,619,o),
(75,599,cs),
(71,579,o),
(69,567,o),
(71,558,cs),
(73,548,o),
(76,541,o),
(85,536,cs),
(93,531,o),
(102,527,o),
(112,527,cs),
(120,527,o),
(130,529,o),
(139,533,cs),
(147,537,o),
(156,545,o),
(161,557,cs),
(166,568,o),
(172,585,o),
(176,597,c),
(177,604,o),
(179,609,o),
(181,612,c),
(182,615,o),
(184,618,o),
(186,623,cs),
(188,628,o),
(190,632,o),
(193,637,cs),
(198,645,o),
(202,651,o),
(209,656,cs),
(215,660,o),
(223,663,o),
(235,664,c),
(814,664,ls),
(834,664,o),
(842,653,o),
(848,639,cs),
(854,626,o),
(857,614,o),
(860,598,cs),
(861,591,o),
(863,584,o),
(865,579,cs),
(868,567,o),
(871,559,o),
(878,552,cs),
(884,544,o),
(892,541,o),
(904,539,cs),
(916,537,o),
(929,539,o),
(937,543,cs),
(944,547,o),
(951,557,o),
(955,565,cs),
(958,572,o),
(960,581,o),
(958,594,cs),
(956,608,o),
(953,622,o),
(949,639,cs),
(944,656,o),
(939,669,o),
(935,681,cs),
(930,693,o),
(922,708,o),
(911,724,cs),
(900,739,o),
(885,749,o),
(863,749,cs),
(575,749,l)
);
},
{
closed = 1;
nodes = (
(623,417,ls),
(628,419,o),
(632,423,o),
(638,426,cs),
(651,433,o),
(664,441,o),
(680,452,c),
(672,446,o),
(692,459,o),
(702,464,c),
(704,466,o),
(706,467,o),
(708,468,cs),
(709,469,o),
(720,480,o),
(729,487,cs),
(741,497,o),
(755,516,o),
(758,537,cs),
(760,553,o),
(754,567,o),
(751,573,c),
(742,586,o),
(740,589,o),
(734,593,cs),
(724,599,o),
(719,602,o),
(708,604,cs),
(706,604,o),
(702,605,o),
(697,605,cs),
(688,606,o),
(678,606,o),
(667,607,c),
(533,607,l),
(541,615,o),
(548,624,o),
(549,637,cs),
(552,658,o),
(537,672,o),
(530,674,c),
(514,684,o),
(512,685,o),
(502,685,cs),
(493,685,o),
(482,683,o),
(471,680,cs),
(463,677,o),
(454,674,o),
(443,664,cs),
(431,653,ls),
(428,650,o),
(424,647,o),
(419,645,cs),
(413,639,o),
(411,637,o),
(405,634,c),
(400,628,o),
(382,617,o),
(349,597,c),
(338,589,o),
(331,584,o),
(318,577,c),
(305,567,o),
(293,561,o),
(280,553,c),
(281,553,o),
(274,549,o),
(271,548,cs),
(267,546,o),
(265,544,o),
(262,543,c),
(251,536,l),
(252,537,o),
(246,530,o),
(241,526,cs),
(233,519,o),
(219,491,o),
(229,475,cs),
(237,459,o),
(248,447,o),
(264,447,cs),
(274,446,o),
(278,447,o),
(292,452,cs),
(302,454,o),
(316,462,o),
(353,484,c),
(377,457,o),
(401,434,o),
(426,420,c),
(407,411,o),
(386,403,o),
(365,394,cs),
(328,379,o),
(266,356,o),
(226,343,cs),
(191,331,o),
(170,326,o),
(142,321,c),
(107,314,ls),
(76,308,o),
(64,285,o),
(67,270,cs),
(75,227,o),
(115,227,o),
(148,230,cs),
(175,231,o),
(214,238,o),
(272,255,cs),
(325,270,o),
(403,303,o),
(527,357,c),
(579,324,o),
(609,309,o),
(633,299,cs),
(666,283,o),
(687,274,o),
(711,266,cs),
(740,256,o),
(766,249,o),
(787,245,cs),
(813,240,o),
(837,236,o),
(855,234,cs),
(876,231,o),
(890,229,o),
(912,227,cs),
(934,225,o),
(942,225,o),
(951,227,cs),
(957,228,o),
(958,230,o),
(967,242,c),
(970,244,o),
(972,255,o),
(973,263,cs),
(973,271,o),
(972,280,o),
(969,286,cs),
(961,300,o),
(957,304,o),
(949,306,cs),
(932,314,o),
(925,313,o),
(911,314,cs),
(901,314,o),
(890,315,o),
(881,317,c),
(859,319,o),
(827,324,o),
(807,330,cs),
(780,336,o),
(760,341,o),
(745,347,cs),
(720,355,o),
(697,363,o),
(681,370,c),
(676,373,o),
(674,374,o),
(668,376,cs),
(661,379,ls),
(641,387,o),
(623,397,o),
(604,408,c)
);
},
{
closed = 1;
nodes = (
(516,465,o),
(509,469,o),
(503,475,c),
(475,497,ls),
(455,513,o),
(444,523,o),
(438,529,c),
(440,530,o),
(444,533,o),
(446,534,c),
(449,536,o),
(452,538,o),
(456,540,c),
(530,540,ls),
(550,540,o),
(566,538,o),
(572,536,cs),
(578,535,o),
(588,531,o),
(588,531,c),
(600,523,o),
(600,522,o),
(600,514,cs),
(600,513,o),
(598,512,o),
(595,511,c),
(593,507,o),
(586,502,o),
(573,493,cs),
(568,489,o),
(550,478,o),
(522,461,c)
);
},
{
closed = 1;
nodes = (
(321,162,o),
(332,170,o),
(353,170,cs),
(654,170,ls),
(671,170,o),
(683,157,o),
(683,132,cs),
(683,96,ls),
(683,72,o),
(672,63,o),
(653,63,cs),
(349,63,ls),
(333,63,o),
(321,81,o),
(321,98,cs),
(321,144,ls)
);
},
{
closed = 1;
nodes = (
(229,64,ls),
(229,23,o),
(257,-20,o),
(296,-20,cs),
(704,-20,ls),
(750,-20,o),
(775,2,o),
(775,60,cs),
(775,162,ls),
(775,219,o),
(747,253,o),
(706,253,cs),
(306,253,ls),
(256,253,o),
(229,232,o),
(229,191,cs)
);
}
);
width = 1024;
},
{
associatedMasterId = "0A3FE703-33D8-4A7C-9AA9-9C187B3DD6D1";
layerId = "66EC740F-7025-4215-89E5-4356F03DC2DB";
name = "23年8月8日 14:51";
shapes = (
{
closed = 1;
nodes = (
(574,758,l),
(571,780,o),
(562,799,o),
(552,806,cs),
(539,814,o),
(531,815,o),
(519,815,cs),
(508,815,o),
(500,814,o),
(488,807,cs),
(475,800,o),
(461,784,o),
(461,757,cs),
(461,737,l),
(227,737,ls),
(208,737,o),
(193,733,o),
(183,729,cs),
(159,719,o),
(144,702,o),
(137,689,cs),
(129,677,o),
(119,661,o),
(112,646,cs),
(104,629,o),
(98,613,o),
(95,593,cs),
(91,574,o),
(89,563,o),
(91,554,cs),
(93,545,o),
(96,538,o),
(104,533,cs),
(112,528,o),
(120,524,o),
(130,524,cs),
(138,524,o),
(147,526,o),
(156,530,cs),
(164,534,o),
(172,542,o),
(177,553,cs),
(182,564,o),
(188,580,o),
(191,592,c),
(192,598,o),
(194,603,o),
(196,606,c),
(197,609,o),
(199,612,o),
(201,616,cs),
(203,621,o),
(205,625,o),
(208,630,cs),
(212,638,o),
(216,643,o),
(223,648,cs),
(229,652,o),
(236,655,o),
(248,656,c),
(803,656,ls),
(822,656,o),
(830,645,o),
(836,632,cs),
(841,619,o),
(844,608,o),
(847,592,cs),
(848,586,o),
(850,579,o),
(852,574,cs),
(855,563,o),
(858,555,o),
(864,548,cs),
(870,541,o),
(878,538,o),
(889,536,cs),
(901,534,o),
(913,536,o),
(921,540,cs),
(928,544,o),
(934,553,o),
(938,561,cs),
(941,568,o),
(943,576,o),
(941,589,cs),
(939,602,o),
(936,615,o),
(932,632,cs),
(928,648,o),
(923,661,o),
(919,672,cs),
(914,684,o),
(907,698,o),
(896,713,cs),
(885,728,o),
(871,737,o),
(850,737,cs),
(574,737,l)
);
},
{
closed = 1;
nodes = (
(620,419,ls),
(625,421,o),
(629,425,o),
(634,428,cs),
(647,434,o),
(659,442,o),
(675,452,c),
(667,447,o),
(686,459,o),
(696,464,c),
(698,466,o),
(699,467,o),
(701,468,cs),
(702,469,o),
(713,479,o),
(722,486,cs),
(733,496,o),
(746,514,o),
(749,534,cs),
(751,549,o),
(745,563,o),
(743,568,c),
(734,581,o),
(732,584,o),
(726,588,cs),
(717,593,o),
(712,596,o),
(701,598,cs),
(699,598,o),
(696,599,o),
(691,599,cs),
(682,600,o),
(673,600,o),
(662,601,c),
(534,601,l),
(541,609,o),
(548,617,o),
(549,630,cs),
(552,650,o),
(537,663,o),
(531,665,c),
(515,675,o),
(513,676,o),
(504,676,cs),
(495,676,o),
(485,674,o),
(474,671,cs),
(467,668,o),
(458,665,o),
(447,656,cs),
(436,645,ls),
(433,642,o),
(429,639,o),
(424,638,cs),
(419,632,o),
(417,630,o),
(411,627,c),
(406,621,o),
(389,611,o),
(357,592,c),
(347,584,o),
(340,579,o),
(328,572,c),
(315,563,o),
(304,557,o),
(291,549,c),
(292,549,o),
(285,545,o),
(282,545,cs),
(279,543,o),
(277,541,o),
(274,540,c),
(263,533,l),
(264,534,o),
(258,527,o),
(254,523,cs),
(246,517,o),
(233,490,o),
(242,475,cs),
(250,459,o),
(260,448,o),
(276,448,cs),
(285,447,o),
(289,448,o),
(303,452,cs),
(312,454,o),
(326,462,o),
(361,483,c),
(384,457,o),
(407,435,o),
(431,422,c),
(413,413,o),
(393,406,o),
(373,397,cs),
(337,383,o),
(278,360,o),
(239,348,cs),
(206,336,o),
(186,332,o),
(159,327,c),
(125,320,ls),
(96,314,o),
(84,292,o),
(87,278,cs),
(95,237,o),
(133,237,o),
(165,240,cs),
(190,241,o),
(228,247,o),
(283,264,cs),
(334,278,o),
(409,310,o),
(528,361,c),
(578,330,o),
(606,315,o),
(629,306,cs),
(661,290,o),
(681,282,o),
(704,274,cs),
(732,265,o),
(757,258,o),
(777,254,cs),
(802,249,o),
(825,245,o),
(842,244,cs),
(862,241,o),
(876,239,o),
(897,237,cs),
(918,235,o),
(926,235,o),
(934,237,cs),
(940,238,o),
(941,240,o),
(950,251,c),
(953,253,o),
(954,264,o),
(955,271,cs),
(955,279,o),
(954,288,o),
(952,293,cs),
(944,307,o),
(940,311,o),
(932,313,cs),
(916,320,o),
(909,319,o),
(896,320,cs),
(886,320,o),
(876,321,o),
(867,323,c),
(846,325,o),
(815,330,o),
(796,336,cs),
(770,341,o),
(751,346,o),
(737,352,cs),
(713,360,o),
(691,367,o),
(676,374,c),
(671,377,o),
(669,378,o),
(663,380,cs),
(656,383,ls),
(637,390,o),
(620,400,o),
(602,410,c)
);
},
{
closed = 1;
nodes = (
(517,465,o),
(511,469,o),
(505,475,c),
(478,496,ls),
(459,511,o),
(448,521,o),
(443,526,c),
(444,527,o),
(448,530,o),
(450,531,c),
(453,533,o),
(456,535,o),
(460,537,c),
(531,537,ls),
(550,537,o),
(565,535,o),
(571,533,cs),
(577,532,o),
(586,528,o),
(586,528,c),
(598,521,o),
(598,520,o),
(598,512,cs),
(598,511,o),
(596,510,o),
(593,509,c),
(591,505,o),
(584,500,o),
(572,492,cs),
(567,488,o),
(550,477,o),
(523,461,c)
);
},
{
closed = 1;
nodes = (
(330,174,o),
(341,182,o),
(361,182,cs),
(650,182,ls),
(666,182,o),
(677,170,o),
(677,146,cs),
(677,111,ls),
(677,88,o),
(667,80,o),
(649,80,cs),
(357,80,ls),
(342,80,o),
(330,97,o),
(330,113,cs),
(330,157,ls)
);
},
{
closed = 1;
nodes = (
(242,81,ls),
(242,41,o),
(269,0,o),
(306,0,cs),
(698,0,ls),
(742,0,o),
(766,21,o),
(766,77,cs),
(766,174,ls),
(766,229,o),
(739,262,o),
(699,262,cs),
(316,262,ls),
(268,262,o),
(242,242,o),
(242,202,cs)
);
}
);
width = 1024;
}
);
unicode = 23458;
},
